SplineFontDB: 3.0
FontName: Strobrod-Bold
FullName: Strobrod Bold
FamilyName: Strobrod
Weight: Bold
Copyright: CC, Aaron Christianson, Nicolas Mercier
UComments: "2017-3-27: Created with FontForge (http://fontforge.org)"
Version: 001.000
StrokeWidth: 600
ItalicAngle: 0
UnderlinePosition: -100
UnderlineWidth: 0
Ascent: 800
Descent: 736
InvalidEm: 0
LayerCount: 2
Layer: 0 0 "Back" 1
Layer: 1 0 "Fore" 0
StrokedFont: 1
HasVMetrics: 1
XUID: [1021 68 1269985762 15680502]
StyleMap: 0x0020
FSType: 0
OS2Version: 0
OS2_WeightWidthSlopeOnly: 0
OS2_UseTypoMetrics: 1
CreationTime: 1490615230
ModificationTime: 1495917811
PfmFamily: 49
TTFWeight: 700
TTFWidth: 5
LineGap: -536
VLineGap: 0
Panose: 2 11 8 9 0 0 0 0 0 0
OS2TypoAscent: 800
OS2TypoAOffset: 0
OS2TypoDescent: -200
OS2TypoDOffset: 0
OS2TypoLinegap: -536
OS2WinAscent: 800
OS2WinAOffset: 0
OS2WinDescent: 200
OS2WinDOffset: 0
HheadAscent: 800
HheadAOffset: 0
HheadDescent: -200
HheadDOffset: 0
OS2Vendor: 'PfEd'
MacStyle: 1
MarkAttachClasses: 1
DEI: 91125
LangName: 1033
GaspTable: 2 0 5 65535 5 1
DesignSize: 100
Encoding: iso8859-15
UnicodeInterp: none
NameList: AGL For New Fonts
DisplaySize: -48
AntiAlias: 1
FitToEm: 0
WinInfo: 0 61 21
BeginPrivate: 0
EndPrivate
TeXData: 1 10485760 0 628097 314049 209365 524288 1048576 209365 783286 444596 497025 792723 393216 433062 380633 303038 157286 324010 404750 52429 2506097 1059062 262144
BeginChars: 545 545

StartChar: exclam
Encoding: 33 33 1
Width: 576
VWidth: 0
Flags: W
LayerCount: 2
Back
Fore
SplineSet
192.5 95.5 m 1
 383.5 95.5 l 1
 383.5 0.5 l 1
 192.5 0.5 l 1
 192.5 95.5 l 1
192.5 575.5 m 1
 383.5 575.5 l 1
 383.5 192.5 l 1
 192.5 192.5 l 1
 192.5 575.5 l 1
EndSplineSet
EndChar

StartChar: quotedbl
Encoding: 34 34 2
Width: 576
VWidth: 0
Flags: W
LayerCount: 2
Back
Fore
SplineSet
384.5 671.5 m 1
 479.5 671.5 l 1
 479.5 480.5 l 1
 384.5 480.5 l 1
 384.5 671.5 l 1
96.5 671.5 m 1
 287.5 671.5 l 1
 287.5 480.5 l 1
 96.5 480.5 l 1
 96.5 671.5 l 1
EndSplineSet
EndChar

StartChar: numbersign
Encoding: 35 35 3
Width: 576
VWidth: 0
Flags: W
LayerCount: 2
Back
Fore
SplineSet
287.5 384 m 1
 287.5 288 l 1
 287.5 287.5 l 1
 288 287.5 l 1
 384 287.5 l 1
 384.5 287.5 l 1
 384.5 288 l 1
 384.5 384 l 1
 384.5 384.5 l 1
 384 384.5 l 1
 288 384.5 l 1
 287.5 384.5 l 1
 287.5 384 l 1
96.5 575.5 m 1
 287.5 575.5 l 1
 287.5 480 l 1
 287.5 479.5 l 1
 288 479.5 l 1
 384 479.5 l 1
 384.5 479.5 l 1
 384.5 480 l 1
 384.5 575.5 l 1
 479.5 575.5 l 1
 479.5 480 l 1
 479.5 479.5 l 1
 480 479.5 l 1
 575.5 479.5 l 1
 575.5 384.5 l 1
 480 384.5 l 1
 479.5 384.5 l 1
 479.5 384 l 1
 479.5 288 l 1
 479.5 287.5 l 1
 480 287.5 l 1
 575.5 287.5 l 1
 575.5 192.5 l 1
 480 192.5 l 1
 479.5 192.5 l 1
 479.5 192 l 1
 479.5 96.5 l 1
 384.5 96.5 l 1
 384.5 192 l 1
 384.5 192.5 l 1
 384 192.5 l 1
 288 192.5 l 1
 287.5 192.5 l 1
 287.5 192 l 1
 287.5 96.5 l 1
 96.5 96.5 l 1
 96.5 192 l 1
 96.5 192.5 l 1
 96 192.5 l 1
 0.5 192.5 l 1
 0.5 287.5 l 1
 96 287.5 l 1
 96.5 287.5 l 1
 96.5 288 l 1
 96.5 384 l 1
 96.5 384.5 l 1
 96 384.5 l 1
 0.5 384.5 l 1
 0.5 479.5 l 1
 96 479.5 l 1
 96.5 479.5 l 1
 96.5 480 l 1
 96.5 575.5 l 1
EndSplineSet
EndChar

StartChar: dollar
Encoding: 36 36 4
Width: 574
VWidth: 0
Flags: W
LayerCount: 2
Back
Fore
SplineSet
96 384 m 1
 96 479.5 l 1
 191.465206435 479.5 l 1
 191.962783485 479.5 l 1
 191.962783485 480 l 1
 191.962783485 575.5 l 1
 382.037216515 575.5 l 1
 382.037216515 480 l 1
 382.037216515 479.5 l 1
 382.534793565 479.5 l 1
 478 479.5 l 1
 478 384.5 l 1
 191.465206435 384.5 l 1
 190.967629386 384.5 l 1
 190.967629386 384 l 1
 190.967629386 288 l 1
 190.967629386 287.5 l 1
 191.465206435 287.5 l 1
 478 287.5 l 1
 478 192 l 1
 478 191.5 l 1
 478.5 191.5 l 1
 574 191.5 l 1
 574 96.5 l 1
 478.5 96.5 l 1
 478 96.5 l 1
 478 96 l 1
 478 0.5 l 1
 382.534793565 0.5 l 1
 382.037216515 0.5 l 1
 382.037216515 0 l 1
 382.037216515 -95.5 l 1
 191.962783485 -95.5 l 1
 191.962783485 0 l 1
 191.962783485 0.5 l 1
 191.465206435 0.5 l 1
 96 0.5 l 1
 96 95.5 l 1
 382.534793565 95.5 l 1
 383.032370614 95.5 l 1
 383.032370614 96 l 1
 383.032370614 192 l 1
 383.032370614 192.5 l 1
 382.534793565 192.5 l 1
 96 192.5 l 1
 96 288 l 1
 96 288.5 l 1
 95.5 288.5 l 1
 0 288.5 l 1
 0 383.5 l 1
 95.5 383.5 l 1
 96 383.5 l 1
 96 384 l 1
EndSplineSet
EndChar

StartChar: percent
Encoding: 37 37 5
Width: 575
VWidth: 0
Flags: W
LayerCount: 2
Back
Fore
SplineSet
384 96.5 m 1
 384 191.5 l 1
 479 191.5 l 1
 479 96.5 l 1
 384 96.5 l 1
96 96.5 m 1
 96 287.5 l 1
 191.5 287.5 l 1
 192 287.5 l 1
 192 288 l 1
 192 383.5 l 1
 287.5 383.5 l 1
 288 383.5 l 1
 288 384 l 1
 288 479.5 l 1
 383.5 479.5 l 1
 384 479.5 l 1
 384 480 l 1
 384 575.5 l 1
 479 575.5 l 1
 479 384.5 l 1
 383.5 384.5 l 1
 383 384.5 l 1
 383 384 l 1
 383 288.5 l 1
 287.5 288.5 l 1
 287 288.5 l 1
 287 288 l 1
 287 192.5 l 1
 191.5 192.5 l 1
 191 192.5 l 1
 191 192 l 1
 191 96.5 l 1
 96 96.5 l 1
96 480.5 m 1
 96 575.5 l 1
 191 575.5 l 1
 191 480.5 l 1
 96 480.5 l 1
EndSplineSet
EndChar

StartChar: ampersand
Encoding: 38 38 6
Width: 576
VWidth: 0
Flags: W
LayerCount: 2
Back
Fore
SplineSet
479.5 96.6666666667 m 0
 384.5 96.5 l 1
 384.5 287.5 l 1
 479.333333333 287.5 l 1024
480.5 288.5 m 1
 480.5 383.5 l 1
 575.5 383.5 l 1
 575.5 288.5 l 1
 480.5 288.5 l 1
480.5 95.5 m 1
 575.5 95.5 l 1
 575.5 0.5 l 1
 480.5 0.5 l 1
 480.5 95.5 l 1
383.5 95.5 m 1
 383.5 0.5 l 1
 192.5 0.5 l 1
 192.5 96 l 1
 192.5 96.5 l 1
 192 96.5 l 1
 96.5 96.5 l 1
 96.5 287.5 l 1
 192 287.5 l 1
 192.5 287.5 l 1
 192.5 288 l 1
 192.5 575.5 l 1
 288 575.5 l 1
 288.5 575.5 l 1
 288.5 576 l 1
 288.5 671.5 l 1
 479.5 671.5 l 1
 479.5 576.5 l 1
 384 576.5 l 1
 383.5 576.5 l 1
 383.5 576 l 1
 383.5 288.5 l 1
 288 288.5 l 1
 287.5 288.5 l 1
 287.5 288 l 1
 287.5 96 l 1
 287.5 95.5 l 1
 288 95.5 l 1
 383.5 95.5 l 1
EndSplineSet
EndChar

StartChar: quotesingle
Encoding: 39 39 7
Width: 576
VWidth: 0
Flags: W
LayerCount: 2
Back
Fore
SplineSet
192.5 671.5 m 1
 383.5 671.5 l 1
 383.5 480.5 l 1
 192.5 480.5 l 1
 192.5 671.5 l 1
EndSplineSet
EndChar

StartChar: parenleft
Encoding: 40 40 8
Width: 576
VWidth: 0
Flags: W
LayerCount: 2
Back
Fore
SplineSet
192.5 671.5 m 1
 383.5 671.5 l 1
 383.5 576.5 l 1
 288 576.5 l 1
 287.5 576.5 l 1
 287.5 576 l 1
 287.5 0 l 1
 287.5 -0.5 l 1
 288 -0.5 l 1
 383.5 -0.5 l 1
 383.5 -95.5 l 1
 192.5 -95.5 l 1
 192.5 0 l 1
 192.5 0.5 l 1
 192 0.5 l 1
 96.5 0.5 l 1
 96.5 575.5 l 1
 192 575.5 l 1
 192.5 575.5 l 1
 192.5 576 l 1
 192.5 671.5 l 1
EndSplineSet
EndChar

StartChar: parenright
Encoding: 41 41 9
Width: 576
VWidth: 0
Flags: W
LayerCount: 2
Back
Fore
SplineSet
96.5 671.5 m 1
 287.5 671.5 l 1
 287.5 576 l 1
 287.5 575.5 l 1
 288 575.5 l 1
 383.5 575.5 l 1
 383.5 0.5 l 1
 288 0.5 l 1
 287.5 0.5 l 1
 287.5 0 l 1
 287.5 -95.5 l 1
 96.5 -95.5 l 1
 96.5 -0.5 l 1
 192 -0.5 l 1
 192.5 -0.5 l 1
 192.5 0 l 1
 192.5 576 l 1
 192.5 576.5 l 1
 192 576.5 l 1
 96.5 576.5 l 1
 96.5 671.5 l 1
EndSplineSet
EndChar

StartChar: asterisk
Encoding: 42 42 10
Width: 576
VWidth: 0
Flags: W
LayerCount: 2
Back
Fore
SplineSet
0.5 479.5 m 1
 192 479.5 l 1
 192.5 479.5 l 1
 192.5 480 l 1
 192.5 575.5 l 1
 383.5 575.5 l 1
 383.5 480 l 1
 383.5 479.5 l 1
 384 479.5 l 1
 575.5 479.5 l 1
 575.5 384.5 l 1
 480 384.5 l 1
 479.5 384.5 l 1
 479.5 384 l 1
 479.5 288 l 1
 479.5 287.5 l 1
 480 287.5 l 1
 575.5 287.5 l 1
 575.5 192.5 l 1
 384 192.5 l 1
 383.5 192.5 l 1
 383.5 192 l 1
 383.5 96.5 l 1
 192.5 96.5 l 1
 192.5 192 l 1
 192.5 192.5 l 1
 192 192.5 l 1
 0.5 192.5 l 1
 0.5 287.5 l 1
 96 287.5 l 1
 96.5 287.5 l 1
 96.5 288 l 1
 96.5 384 l 1
 96.5 384.5 l 1
 96 384.5 l 1
 0.5 384.5 l 1
 0.5 479.5 l 1
EndSplineSet
EndChar

StartChar: plus
Encoding: 43 43 11
Width: 576
VWidth: 0
Flags: W
LayerCount: 2
Back
Fore
SplineSet
192.5 479.5 m 1
 383.5 479.5 l 1
 383.5 288 l 1
 383.5 287.5 l 1
 384 287.5 l 1
 575.5 287.5 l 1
 575.5 192.5 l 1
 384 192.5 l 1
 383.5 192.5 l 1
 383.5 192 l 1
 383.5 0.5 l 1
 192.5 0.5 l 1
 192.5 192 l 1
 192.5 192.5 l 1
 192 192.5 l 1
 0.5 192.5 l 1
 0.5 287.5 l 1
 192 287.5 l 1
 192.5 287.5 l 1
 192.5 288 l 1
 192.5 479.5 l 1
EndSplineSet
EndChar

StartChar: comma
Encoding: 44 44 12
Width: 576
VWidth: 0
Flags: W
LayerCount: 2
Back
Fore
SplineSet
192.5 191.5 m 1
 383.5 191.5 l 1
 383.5 0.5 l 1
 288 0.5 l 1
 287.5 0.5 l 1
 287.5 0 l 1
 287.5 -95.5 l 1
 96.5 -95.5 l 1
 96.5 -0.5 l 1
 192 -0.5 l 1
 192.5 -0.5 l 1
 192.5 0 l 1
 192.5 191.5 l 1
EndSplineSet
EndChar

StartChar: hyphen
Encoding: 45 45 13
Width: 576
VWidth: 0
Flags: W
LayerCount: 2
Back
Fore
SplineSet
96.5 287.5 m 1
 575.5 287.5 l 1
 575.5 192.5 l 1
 96.5 192.5 l 1
 96.5 287.5 l 1
EndSplineSet
EndChar

StartChar: period
Encoding: 46 46 14
Width: 576
VWidth: 0
Flags: W
LayerCount: 2
Back
Fore
SplineSet
192.5 191.5 m 1
 383.5 191.5 l 1
 383.5 0.5 l 1
 192.5 0.5 l 1
 192.5 191.5 l 1
EndSplineSet
EndChar

StartChar: slash
Encoding: 47 47 15
Width: 576
VWidth: 0
Flags: W
LayerCount: 2
Back
Fore
SplineSet
96.5 95.5 m 1
 192 95.5 l 1
 192.5 95.5 l 1
 192.5 96 l 1
 192.5 287.5 l 1
 288 287.5 l 1
 288.5 287.5 l 1
 288.5 288 l 1
 288.5 479.5 l 1
 384 479.5 l 1
 384.5 479.5 l 1
 384.5 480 l 1
 384.5 671.5 l 1
 575.5 671.5 l 1
 575.5 480.5 l 1
 480 480.5 l 1
 479.5 480.5 l 1
 479.5 480 l 1
 479.5 288.5 l 1
 384 288.5 l 1
 383.5 288.5 l 1
 383.5 288 l 1
 383.5 96.5 l 1
 288 96.5 l 1
 287.5 96.5 l 1
 287.5 96 l 1
 287.5 -95.5 l 1
 96.5 -95.5 l 1
 96.5 95.5 l 1
EndSplineSet
EndChar

StartChar: zero
Encoding: 48 48 16
Width: 575
VWidth: 0
Flags: W
LayerCount: 2
Back
Fore
SplineSet
96 96.5 m 1
 96 479.5 l 1
 191.5 479.5 l 1
 192 479.5 l 1
 192 480 l 1
 192 575.5 l 1
 383 575.5 l 1
 383 480.5 l 1
 287.5 480.5 l 1
 287 480.5 l 1
 287 480 l 1
 287 384 l 1
 287 383.5 l 1
 287.5 383.5 l 1
 383.5 383.5 l 1
 384 383.5 l 1
 384 384 l 1
 384 479.5 l 1
 479 479.5 l 1
 479 96.5 l 1
 384 96.5 l 1
 384 288 l 1
 384 288.5 l 1
 383.5 288.5 l 1
 287.5 288.5 l 1
 287 288.5 l 1
 287 288 l 1
 287 96 l 1
 287 95.5 l 1
 287.5 95.5 l 1
 383 95.5 l 1
 383 0.5 l 1
 192 0.5 l 1
 192 96 l 1
 192 96.5 l 1
 191.5 96.5 l 1
 96 96.5 l 1
EndSplineSet
EndChar

StartChar: one
Encoding: 49 49 17
Width: 575
VWidth: 0
Flags: W
LayerCount: 2
Back
Fore
SplineSet
96 384.5 m 1
 96 479.5 l 1
 191.5 479.5 l 1
 192 479.5 l 1
 192 480 l 1
 192 575.5 l 1
 383 575.5 l 1
 383 0.5 l 1
 192 0.5 l 1
 192 384 l 1
 192 384.5 l 1
 191.5 384.5 l 1
 96 384.5 l 1
EndSplineSet
EndChar

StartChar: two
Encoding: 50 50 18
Width: 575
VWidth: 0
Flags: W
LayerCount: 2
Back
Fore
SplineSet
287.5 480.5 m 1
 192 480.5 l 1
 192 575.5 l 1
 383 575.5 l 1
 383 480 l 1
 383 479.5 l 1
 383.5 479.5 l 1
 479 479.5 l 1
 479 288.5 l 1
 383.5 288.5 l 1
 383 288.5 l 1
 383 288 l 1
 383 192.5 l 1
 287.5 192.5 l 1
 287 192.5 l 1
 287 192 l 1
 287 96 l 1
 287 95.5 l 1
 287.5 95.5 l 1
 479 95.5 l 1
 479 0.5 l 1
 96 0.5 l 1
 96 191.5 l 1
 191.5 191.5 l 1
 192 191.5 l 1
 192 192 l 1
 192 287.5 l 1
 287.5 287.5 l 1
 288 287.5 l 1
 288 288 l 1
 288 480 l 1
 288 480.5 l 1
 287.5 480.5 l 1
96 479.5 m 1
 191 479.5 l 1
 191 384.5 l 1
 96 384.5 l 1
 96 479.5 l 1
EndSplineSet
EndChar

StartChar: three
Encoding: 51 51 19
Width: 575
VWidth: 0
Flags: W
LayerCount: 2
Back
Fore
SplineSet
96 480.5 m 1
 96 575.5 l 1
 479 575.5 l 1
 479 384.5 l 1
 383.5 384.5 l 1
 383 384.5 l 1
 383 384 l 1
 383 288 l 1
 383 287.5 l 1
 383.5 287.5 l 1
 479 287.5 l 1
 479 96.5 l 1
 383.5 96.5 l 1
 383 96.5 l 1
 383 96 l 1
 383 0.5 l 1
 96 0.5 l 1
 96 95.5 l 1
 287.5 95.5 l 1
 288 95.5 l 1
 288 96 l 1
 288 288 l 1
 288 288.5 l 1
 287.5 288.5 l 1
 192 288.5 l 1
 192 383.5 l 1
 287.5 383.5 l 1
 288 383.5 l 1
 288 384 l 1
 288 480 l 1
 288 480.5 l 1
 287.5 480.5 l 1
 96 480.5 l 1
EndSplineSet
EndChar

StartChar: four
Encoding: 52 52 20
Width: 575
VWidth: 0
Flags: W
LayerCount: 2
Back
Fore
SplineSet
384 480 m 1
 384 575.5 l 1
 479 575.5 l 1
 479 0.5 l 1
 288 0.5 l 1
 288 96 l 1
 288 96.5 l 1
 287.5 96.5 l 1
 96 96.5 l 1
 96 287.5 l 1
 191 287.5 l 1
 191 192 l 1
 191 191.5 l 1
 191.5 191.5 l 1
 287.5 191.5 l 1
 288 191.5 l 1
 288 192 l 1
 288 288 l 1
 288 288.5 l 1
 287.5 288.5 l 1
 192 288.5 l 1
 192 383.5 l 1
 287.5 383.5 l 1
 288 383.5 l 1
 288 384 l 1
 288 479.5 l 1
 383.5 479.5 l 1
 384 479.5 l 1
 384 480 l 1
EndSplineSet
EndChar

StartChar: five
Encoding: 53 53 21
Width: 575
VWidth: 0
Flags: W
LayerCount: 2
Back
Fore
SplineSet
96 288.5 m 1
 96 575.5 l 1
 479 575.5 l 1
 479 480.5 l 1
 287.5 480.5 l 1
 287 480.5 l 1
 287 480 l 1
 287 384 l 1
 287 383.5 l 1
 287.5 383.5 l 1
 383 383.5 l 1
 383 288 l 1
 383 287.5 l 1
 383.5 287.5 l 1
 479 287.5 l 1
 479 96.5 l 1
 383.5 96.5 l 1
 383 96.5 l 1
 383 96 l 1
 383 0.5 l 1
 96 0.5 l 1
 96 95.5 l 1
 287.5 95.5 l 1
 288 95.5 l 1
 288 96 l 1
 288 288 l 1
 288 288.5 l 1
 287.5 288.5 l 1
 96 288.5 l 1
EndSplineSet
EndChar

StartChar: six
Encoding: 54 54 22
Width: 575
VWidth: 0
Flags: W
LayerCount: 2
Back
Fore
SplineSet
479 96.5 m 1
 384 96.5 l 1
 384 287.5 l 1
 479 287.5 l 1
 479 96.5 l 1
287.5 95.5 m 1
 383 95.5 l 1
 383 0.5 l 1
 192 0.5 l 1
 192 96 l 1
 192 96.5 l 1
 191.5 96.5 l 1
 96 96.5 l 1
 96 479.5 l 1
 191.5 479.5 l 1
 192 479.5 l 1
 192 480 l 1
 192 575.5 l 1
 383 575.5 l 1
 383 480.5 l 1
 287.5 480.5 l 1
 287 480.5 l 1
 287 480 l 1
 287 384 l 1
 287 383.5 l 1
 287.5 383.5 l 1
 383 383.5 l 1
 383 288.5 l 1
 287.5 288.5 l 1
 287 288.5 l 1
 287 288 l 1
 287 96 l 1
 287 95.5 l 1
 287.5 95.5 l 1
EndSplineSet
EndChar

StartChar: seven
Encoding: 55 55 23
Width: 575
VWidth: 0
Flags: W
LayerCount: 2
Back
Fore
SplineSet
96 480.5 m 1
 96 575.5 l 1
 479 575.5 l 1
 479 288.5 l 1
 383.5 288.5 l 1
 383 288.5 l 1
 383 288 l 1
 383 192.5 l 1
 287.5 192.5 l 1
 287 192.5 l 1
 287 192 l 1
 287 0.5 l 1
 96 0.5 l 1
 96 191.5 l 1
 191.5 191.5 l 1
 192 191.5 l 1
 192 192 l 1
 192 287.5 l 1
 287.5 287.5 l 1
 288 287.5 l 1
 288 288 l 1
 288 480 l 1
 288 480.5 l 1
 287.5 480.5 l 1
 96 480.5 l 1
EndSplineSet
EndChar

StartChar: eight
Encoding: 56 56 24
Width: 575
VWidth: 0
Flags: W
LayerCount: 2
Back
Fore
SplineSet
479 384.5 m 1
 384 384.5 l 1
 384 479.5 l 1
 479 479.5 l 1
 479 384.5 l 1
479 96.5 m 1
 384 96.5 l 1
 384 287.5 l 1
 479 287.5 l 1
 479 96.5 l 1
287.5 95.5 m 1
 383 95.5 l 1
 383 0.5 l 1
 192 0.5 l 1
 192 96 l 1
 192 96.5 l 1
 191.5 96.5 l 1
 96 96.5 l 1
 96 287.5 l 1
 191.5 287.5 l 1
 192 287.5 l 1
 192 288 l 1
 192 384 l 1
 192 384.5 l 1
 191.5 384.5 l 1
 96 384.5 l 1
 96 479.5 l 1
 191.5 479.5 l 1
 192 479.5 l 1
 192 480 l 1
 192 575.5 l 1
 383 575.5 l 1
 383 480.5 l 1
 287.5 480.5 l 1
 287 480.5 l 1
 287 480 l 1
 287 384 l 1
 287 383.5 l 1
 287.5 383.5 l 1
 383 383.5 l 1
 383 288.5 l 1
 287.5 288.5 l 1
 287 288.5 l 1
 287 288 l 1
 287 96 l 1
 287 95.5 l 1
 287.5 95.5 l 1
EndSplineSet
EndChar

StartChar: nine
Encoding: 57 57 25
Width: 575
VWidth: 0
Flags: W
LayerCount: 2
Back
Fore
SplineSet
96 479.5 m 1
 191 479.5 l 1
 191 288.5 l 1
 96 288.5 l 1
 96 479.5 l 1
287.5 480.5 m 1
 192 480.5 l 1
 192 575.5 l 1
 383 575.5 l 1
 383 480 l 1
 383 479.5 l 1
 383.5 479.5 l 1
 479 479.5 l 1
 479 96.5 l 1
 383.5 96.5 l 1
 383 96.5 l 1
 383 96 l 1
 383 0.5 l 1
 192 0.5 l 1
 192 95.5 l 1
 287.5 95.5 l 1
 288 95.5 l 1
 288 96 l 1
 288 192 l 1
 288 192.5 l 1
 287.5 192.5 l 1
 192 192.5 l 1
 192 287.5 l 1
 287.5 287.5 l 1
 288 287.5 l 1
 288 288 l 1
 288 480 l 1
 288 480.5 l 1
 287.5 480.5 l 1
EndSplineSet
EndChar

StartChar: colon
Encoding: 58 58 26
Width: 576
VWidth: 0
Flags: W
LayerCount: 2
Back
Fore
SplineSet
192.5 191.5 m 1
 383.5 191.5 l 1
 383.5 96.5 l 1
 192.5 96.5 l 1
 192.5 191.5 l 1
192.5 383.5 m 1
 383.5 383.5 l 1
 383.5 288.5 l 1
 192.5 288.5 l 1
 192.5 383.5 l 1
EndSplineSet
EndChar

StartChar: semicolon
Encoding: 59 59 27
Width: 576
VWidth: 0
Flags: W
LayerCount: 2
Back
Fore
SplineSet
192.5 191.5 m 1
 383.5 191.5 l 1
 383.5 0.5 l 1
 288 0.5 l 1
 287.5 0.5 l 1
 287.5 0 l 1
 287.5 -95.5 l 1
 96.5 -95.5 l 1
 96.5 -0.5 l 1
 192 -0.5 l 1
 192.5 -0.5 l 1
 192.5 0 l 1
 192.5 191.5 l 1
192.5 383.5 m 1
 383.5 383.5 l 1
 383.5 288.5 l 1
 192.5 288.5 l 1
 192.5 383.5 l 1
EndSplineSet
EndChar

StartChar: less
Encoding: 60 60 28
Width: 576
VWidth: 0
Flags: W
CounterMasks: 1 e0
LayerCount: 2
Back
Fore
SplineSet
96.5 287.5 m 1
 192 287.5 l 1
 192.5 287.5 l 1
 192.5 288 l 1
 192.5 383.5 l 1
 288 383.5 l 1
 288.5 383.5 l 1
 288.5 384 l 1
 288.5 479.5 l 1
 479.5 479.5 l 1
 479.5 384.5 l 1
 384 384.5 l 1
 383.5 384.5 l 1
 383.5 384 l 1
 383.5 288.5 l 1
 288 288.5 l 1
 287.5 288.5 l 1
 287.5 288 l 1
 287.5 192 l 1
 287.5 191.5 l 1
 288 191.5 l 1
 383.5 191.5 l 1
 383.5 96 l 1
 383.5 95.5 l 1
 384 95.5 l 1
 479.5 95.5 l 1
 479.5 0.5 l 1
 288.5 0.5 l 1
 288.5 96 l 1
 288.5 96.5 l 1
 288 96.5 l 1
 192.5 96.5 l 1
 192.5 192 l 1
 192.5 192.5 l 1
 192 192.5 l 1
 96.5 192.5 l 1
 96.5 287.5 l 1
EndSplineSet
EndChar

StartChar: equal
Encoding: 61 61 29
Width: 576
VWidth: 0
Flags: W
LayerCount: 2
Back
Fore
SplineSet
96.5 191.5 m 1
 479.5 191.5 l 1
 479.5 96.5 l 1
 96.5 96.5 l 1
 96.5 191.5 l 1
96.5 383.5 m 1
 479.5 383.5 l 1
 479.5 288.5 l 1
 96.5 288.5 l 1
 96.5 383.5 l 1
EndSplineSet
EndChar

StartChar: greater
Encoding: 62 62 30
Width: 576
VWidth: 0
Flags: W
CounterMasks: 1 e0
LayerCount: 2
Back
Fore
SplineSet
96.5 479.5 m 1
 287.5 479.5 l 1
 287.5 384 l 1
 287.5 383.5 l 1
 288 383.5 l 1
 383.5 383.5 l 1
 383.5 288 l 1
 383.5 287.5 l 1
 384 287.5 l 1
 479.5 287.5 l 1
 479.5 192.5 l 1
 384 192.5 l 1
 383.5 192.5 l 1
 383.5 192 l 1
 383.5 96.5 l 1
 288 96.5 l 1
 287.5 96.5 l 1
 287.5 96 l 1
 287.5 0.5 l 1
 96.5 0.5 l 1
 96.5 95.5 l 1
 192 95.5 l 1
 192.5 95.5 l 1
 192.5 96 l 1
 192.5 191.5 l 1
 288 191.5 l 1
 288.5 191.5 l 1
 288.5 192 l 1
 288.5 288 l 1
 288.5 288.5 l 1
 288 288.5 l 1
 192.5 288.5 l 1
 192.5 384 l 1
 192.5 384.5 l 1
 192 384.5 l 1
 96.5 384.5 l 1
 96.5 479.5 l 1
EndSplineSet
EndChar

StartChar: question
Encoding: 63 63 31
Width: 576
VWidth: 0
Flags: W
LayerCount: 2
Back
Fore
SplineSet
192.5 -0.5 m 1
 383.5 -0.5 l 1
 383.5 -95.5 l 1
 192.5 -95.5 l 1
 192.5 -0.5 l 1
96.5 480.5 m 1
 96.5 575.5 l 1
 383.5 575.5 l 1
 383.5 480 l 1
 383.5 479.5 l 1
 384 479.5 l 1
 479.5 479.5 l 1
 479.5 288.5 l 1
 384 288.5 l 1
 383.5 288.5 l 1
 383.5 288 l 1
 383.5 96.5 l 1
 192.5 96.5 l 1
 192.5 287.5 l 1
 288 287.5 l 1
 288.5 287.5 l 1
 288.5 288 l 1
 288.5 480 l 1
 288.5 480.5 l 1
 288 480.5 l 1
 96.5 480.5 l 1
95.5 479.5 m 1
 95.5 384.5 l 1
 0.5 384.5 l 1
 0.5 479.5 l 1
 95.5 479.5 l 1
EndSplineSet
EndChar

StartChar: at
Encoding: 64 64 32
Width: 576
VWidth: 0
Flags: W
LayerCount: 2
Back
Fore
SplineSet
287.5 384 m 1
 287.5 192 l 1
 287.5 191.5 l 1
 288 191.5 l 1
 384 191.5 l 1
 384.5 191.5 l 1
 384.5 192 l 1
 384.5 384 l 1
 384.5 384.5 l 1
 384 384.5 l 1
 288 384.5 l 1
 287.5 384.5 l 1
 287.5 384 l 1
96.5 575.5 m 1
 192 575.5 l 1
 192.5 575.5 l 1
 192.5 576 l 1
 192.5 671.5 l 1
 383.5 671.5 l 1
 383.5 576.5 l 1
 288 576.5 l 1
 287.5 576.5 l 1
 287.5 576 l 1
 287.5 480 l 1
 287.5 479.5 l 1
 288 479.5 l 1
 384 479.5 l 1
 384.5 479.5 l 1
 384.5 480 l 1
 384.5 575.5 l 1
 479.5 575.5 l 1
 479.5 96.5 l 1
 288 96.5 l 1
 287.5 96.5 l 1
 287.5 96 l 1
 287.5 0 l 1
 287.5 -0.5 l 1
 288 -0.5 l 1
 383.5 -0.5 l 1
 383.5 -95.5 l 1
 192.5 -95.5 l 1
 192.5 0 l 1
 192.5 0.5 l 1
 192 0.5 l 1
 96.5 0.5 l 1
 96.5 575.5 l 1
EndSplineSet
EndChar

StartChar: A
Encoding: 65 65 33
Width: 574
VWidth: 0
Flags: W
LayerCount: 2
Back
Fore
SplineSet
96 0.5 m 1
 96 479.5 l 1
 191.5 479.5 l 1
 192 479.5 l 1
 192 480 l 1
 192 575.5 l 1
 382.010309278 575.5 l 1
 382.010309278 480.5 l 1
 287.494845361 480.5 l 1
 287 480.5 l 1
 287 480 l 1
 287 288 l 1
 287 287.5 l 1
 287.494845361 287.5 l 1
 382.505154639 287.5 l 1
 383 287.5 l 1
 383 288 l 1
 383 479.5 l 1
 478 479.5 l 1
 478 0.5 l 1
 383 0.5 l 1
 383 192 l 1
 383 192.5 l 1
 382.505154639 192.5 l 1
 287.494845361 192.5 l 1
 287 192.5 l 1
 287 192 l 1
 287 0.5 l 1
 96 0.5 l 1
EndSplineSet
EndChar

StartChar: B
Encoding: 66 66 34
Width: 575
VWidth: 0
Flags: W
LayerCount: 2
Back
Fore
SplineSet
479 384.5 m 1
 384 384.5 l 1
 384 479.5 l 1
 479 479.5 l 1
 479 384.5 l 1
479 96.5 m 1
 384 96.5 l 1
 384 287.5 l 1
 479 287.5 l 1
 479 96.5 l 1
287.5 95.5 m 1
 383 95.5 l 1
 383 0.5 l 1
 96 0.5 l 1
 96 575.5 l 1
 383 575.5 l 1
 383 480.5 l 1
 287.5 480.5 l 1
 287 480.5 l 1
 287 480 l 1
 287 384 l 1
 287 383.5 l 1
 287.5 383.5 l 1
 383 383.5 l 1
 383 288.5 l 1
 287.5 288.5 l 1
 287 288.5 l 1
 287 288 l 1
 287 96 l 1
 287 95.5 l 1
 287.5 95.5 l 1
EndSplineSet
EndChar

StartChar: C
Encoding: 67 67 35
Width: 575
VWidth: 0
Flags: W
LayerCount: 2
Back
Fore
SplineSet
192 480 m 1
 192 575.5 l 1
 479 575.5 l 1
 479 480.5 l 1
 287.5 480.5 l 1
 287 480.5 l 1
 287 480 l 1
 287 96 l 1
 287 95.5 l 1
 287.5 95.5 l 1
 479 95.5 l 1
 479 0.5 l 1
 192 0.5 l 1
 192 96 l 1
 192 96.5 l 1
 191.5 96.5 l 1
 96 96.5 l 1
 96 479.5 l 1
 191.5 479.5 l 1
 192 479.5 l 1
 192 480 l 1
EndSplineSet
EndChar

StartChar: D
Encoding: 68 68 36
Width: 575
VWidth: 0
Flags: W
LayerCount: 2
Back
Fore
SplineSet
479 96.5 m 1
 384 96.5 l 1
 384 479.5 l 1
 479 479.5 l 1
 479 96.5 l 1
287.5 95.5 m 1
 383 95.5 l 1
 383 0.5 l 1
 96 0.5 l 1
 96 575.5 l 1
 383 575.5 l 1
 383 480.5 l 1
 287.5 480.5 l 1
 287 480.5 l 1
 287 480 l 1
 287 96 l 1
 287 95.5 l 1
 287.5 95.5 l 1
EndSplineSet
EndChar

StartChar: E
Encoding: 69 69 37
Width: 575
VWidth: 0
Flags: W
LayerCount: 2
Back
Fore
SplineSet
96 0.5 m 1
 96 575.5 l 1
 479 575.5 l 1
 479 480.5 l 1
 287.5 480.5 l 1
 287 480.5 l 1
 287 480 l 1
 287 384 l 1
 287 383.5 l 1
 287.5 383.5 l 1
 383 383.5 l 1
 383 288.5 l 1
 287.5 288.5 l 1
 287 288.5 l 1
 287 288 l 1
 287 96 l 1
 287 95.5 l 1
 287.5 95.5 l 1
 479 95.5 l 1
 479 0.5 l 1
 96 0.5 l 1
EndSplineSet
EndChar

StartChar: F
Encoding: 70 70 38
Width: 575
VWidth: 0
Flags: W
LayerCount: 2
Back
Fore
SplineSet
96 0.5 m 1
 96 575.5 l 1
 479 575.5 l 1
 479 480.5 l 1
 287.5 480.5 l 1
 287 480.5 l 1
 287 480 l 1
 287 384 l 1
 287 383.5 l 1
 287.5 383.5 l 1
 383 383.5 l 1
 383 288.5 l 1
 287.5 288.5 l 1
 287 288.5 l 1
 287 288 l 1
 287 0.5 l 1
 96 0.5 l 1
EndSplineSet
EndChar

StartChar: G
Encoding: 71 71 39
Width: 575
VWidth: 0
Flags: W
LayerCount: 2
Back
Fore
SplineSet
192 480 m 1
 192 575.5 l 1
 479 575.5 l 1
 479 480.5 l 1
 287.5 480.5 l 1
 287 480.5 l 1
 287 480 l 1
 287 96 l 1
 287 95.5 l 1
 287.5 95.5 l 1
 383.5 95.5 l 1
 384 95.5 l 1
 384 96 l 1
 384 287.5 l 1
 479 287.5 l 1
 479 0.5 l 1
 192 0.5 l 1
 192 96 l 1
 192 96.5 l 1
 191.5 96.5 l 1
 96 96.5 l 1
 96 479.5 l 1
 191.5 479.5 l 1
 192 479.5 l 1
 192 480 l 1
EndSplineSet
EndChar

StartChar: H
Encoding: 72 72 40
Width: 574
VWidth: 0
Flags: W
LayerCount: 2
Back
Fore
SplineSet
96 0.5 m 1
 96 575.5 l 1
 287 575.5 l 1
 287 288 l 1
 287 287.5 l 1
 287.494845361 287.5 l 1
 382.505154639 287.5 l 1
 383 287.5 l 1
 383 288 l 1
 383 575.5 l 1
 478 575.5 l 1
 478 0.5 l 1
 383 0.5 l 1
 383 192 l 1
 383 192.5 l 1
 382.505154639 192.5 l 1
 287.494845361 192.5 l 1
 287 192.5 l 1
 287 192 l 1
 287 0.5 l 1
 96 0.5 l 1
EndSplineSet
EndChar

StartChar: I
Encoding: 73 73 41
Width: 575
VWidth: 0
Flags: W
LayerCount: 2
Back
Fore
SplineSet
192 0.5 m 1
 192 575.5 l 1
 383 575.5 l 1
 383 0.5 l 1
 192 0.5 l 1
EndSplineSet
EndChar

StartChar: J
Encoding: 74 74 42
Width: 575
VWidth: 0
Flags: W
LayerCount: 2
Back
Fore
SplineSet
288 96 m 1
 288 575.5 l 1
 479 575.5 l 1
 479 96.5 l 1
 383.5 96.5 l 1
 383 96.5 l 1
 383 96 l 1
 383 0.5 l 1
 96 0.5 l 1
 96 95.5 l 1
 287.5 95.5 l 1
 288 95.5 l 1
 288 96 l 1
EndSplineSet
EndChar

StartChar: K
Encoding: 75 75 43
Width: 574
VWidth: 0
Flags: W
LayerCount: 2
Back
Fore
SplineSet
574 480.5 m 1
 479 480.5 l 1
 479 575.5 l 1
 574 575.5 l 1
 574 480.5 l 1
383.497409326 479.5 m 1
 478.005181347 479.5 l 1
 478.005181347 384.5 l 1
 383.497409326 384.5 l 1
 383.497409326 479.5 l 1
479 0.5 m 1
 479 95.5 l 1
 574 95.5 l 1
 574 0.5 l 1
 479 0.5 l 1
478.005181347 191.5 m 1
 478.005181347 96.5 l 1
 383.497409326 96.5 l 1
 383.497409326 191.5 l 1
 478.005181347 191.5 l 1
382.502590674 383.5 m 1
 382.502590674 192.5 l 1
 287.497409326 192.5 l 1
 287 192.5 l 1
 287 192 l 1
 287 0.5 l 1
 96 0.5 l 1
 96 575.5 l 1
 287 575.5 l 1
 287 384 l 1
 287 383.5 l 1
 287.497409326 383.5 l 1
 382.502590674 383.5 l 1
EndSplineSet
EndChar

StartChar: L
Encoding: 76 76 44
Width: 575
VWidth: 0
Flags: W
LayerCount: 2
Back
Fore
SplineSet
96 0.5 m 1
 96 575.5 l 1
 287 575.5 l 1
 287 96 l 1
 287 95.5 l 1
 287.5 95.5 l 1
 479 95.5 l 1
 479 0.5 l 1
 96 0.5 l 1
EndSplineSet
EndChar

StartChar: M
Encoding: 77 77 45
Width: 574
VWidth: 0
Flags: W
LayerCount: 2
Back
Fore
SplineSet
478.5 480.5 m 1
 383 480.5 l 1
 383 575.5 l 1
 574 575.5 l 1
 574 0.5 l 1
 479 0.5 l 1
 479 480 l 1
 479 480.5 l 1
 478.5 480.5 l 1
287.989690722 479.5 m 1
 382.010309278 479.5 l 1
 382.010309278 288.5 l 1
 287.989690722 288.5 l 1
 287.989690722 479.5 l 1
287 575.5 m 1
 287 480.5 l 1
 191.5 480.5 l 1
 191 480.5 l 1
 191 480 l 1
 191 0.5 l 1
 0 0.5 l 1
 0 575.5 l 1
 287 575.5 l 1
EndSplineSet
EndChar

StartChar: N
Encoding: 78 78 46
Width: 574
VWidth: 0
Flags: W
LayerCount: 2
Back
Fore
SplineSet
383.497409326 192.5 m 1
 383.497409326 287.5 l 1
 478.502590674 287.5 l 1
 479 287.5 l 1
 479 288 l 1
 479 575.5 l 1
 574 575.5 l 1
 574 0.5 l 1
 479 0.5 l 1
 479 192 l 1
 479 192.5 l 1
 478.502590674 192.5 l 1
 383.497409326 192.5 l 1
382.502590674 383.5 m 1
 382.502590674 288.5 l 1
 287.497409326 288.5 l 1
 287 288.5 l 1
 287 288 l 1
 287 0.5 l 1
 96 0.5 l 1
 96 575.5 l 1
 287 575.5 l 1
 287 384 l 1
 287 383.5 l 1
 287.497409326 383.5 l 1
 382.502590674 383.5 l 1
EndSplineSet
EndChar

StartChar: O
Encoding: 79 79 47
Width: 575
VWidth: 0
Flags: W
LayerCount: 2
Back
Fore
SplineSet
479 96.5 m 1
 384 96.5 l 1
 384 479.5 l 1
 479 479.5 l 1
 479 96.5 l 1
287.5 95.5 m 1
 383 95.5 l 1
 383 0.5 l 1
 192 0.5 l 1
 192 96 l 1
 192 96.5 l 1
 191.5 96.5 l 1
 96 96.5 l 1
 96 479.5 l 1
 191.5 479.5 l 1
 192 479.5 l 1
 192 480 l 1
 192 575.5 l 1
 383 575.5 l 1
 383 480.5 l 1
 287.5 480.5 l 1
 287 480.5 l 1
 287 480 l 1
 287 96 l 1
 287 95.5 l 1
 287.5 95.5 l 1
EndSplineSet
EndChar

StartChar: P
Encoding: 80 80 48
Width: 575
VWidth: 0
Flags: W
LayerCount: 2
Back
Fore
SplineSet
479 288.5 m 1
 384 288.5 l 1
 384 479.5 l 1
 479 479.5 l 1
 479 288.5 l 1
287.5 287.5 m 1
 383 287.5 l 1
 383 192.5 l 1
 287.5 192.5 l 1
 287 192.5 l 1
 287 192 l 1
 287 0.5 l 1
 96 0.5 l 1
 96 575.5 l 1
 383 575.5 l 1
 383 480.5 l 1
 287.5 480.5 l 1
 287 480.5 l 1
 287 480 l 1
 287 288 l 1
 287 287.5 l 1
 287.5 287.5 l 1
EndSplineSet
EndChar

StartChar: Q
Encoding: 81 81 49
Width: 575
VWidth: 0
Flags: W
LayerCount: 2
Back
Fore
SplineSet
479 96.5 m 1
 384 96.5 l 1
 384 479.5 l 1
 479 479.5 l 1
 479 96.5 l 1
287.5 95 m 1
 383 95 l 1
 383 -0.5 l 1
 383 -1 l 1
 383.5 -1 l 1
 479 -1 l 1
 479 -96 l 1
 288 -96 l 1
 288 -0.5 l 1
 288 0 l 1
 287.5 0 l 1
 192 0 l 1
 192 95.5 l 1
 192 96 l 1
 191.5 96 l 1
 96 96 l 1
 96 479 l 1
 191.5 479 l 1
 192 479 l 1
 192 479.5 l 1
 192 575 l 1
 383 575 l 1
 383 480 l 1
 287.5 480 l 1
 287 480 l 1
 287 479.5 l 1
 287 95.5 l 1
 287 95 l 1
 287.5 95 l 1
EndSplineSet
EndChar

StartChar: R
Encoding: 82 82 50
Width: 574
VWidth: 0
Flags: W
LayerCount: 2
Back
Fore
SplineSet
478 288.5 m 1
 383 288.5 l 1
 383 479.5 l 1
 478 479.5 l 1
 478 288.5 l 1
383 0.5 m 1
 383 95.5 l 1
 478 95.5 l 1
 478 0.5 l 1
 383 0.5 l 1
382.010309278 287.5 m 1
 382.010309278 96.5 l 1
 287.494845361 96.5 l 1
 287 96.5 l 1
 287 96 l 1
 287 0.5 l 1
 96 0.5 l 1
 96 575.5 l 1
 382.010309278 575.5 l 1
 382.010309278 480.5 l 1
 287.494845361 480.5 l 1
 287 480.5 l 1
 287 480 l 1
 287 288 l 1
 287 287.5 l 1
 287.494845361 287.5 l 1
 382.010309278 287.5 l 1
EndSplineSet
EndChar

StartChar: S
Encoding: 83 83 51
Width: 575
VWidth: 0
Flags: W
LayerCount: 2
Back
Fore
SplineSet
96 384.5 m 1
 96 479.5 l 1
 191.5 479.5 l 1
 192 479.5 l 1
 192 480 l 1
 192 575.5 l 1
 479 575.5 l 1
 479 480.5 l 1
 287.5 480.5 l 1
 287 480.5 l 1
 287 480 l 1
 287 384 l 1
 287 383.5 l 1
 287.5 383.5 l 1
 383 383.5 l 1
 383 288 l 1
 383 287.5 l 1
 383.5 287.5 l 1
 479 287.5 l 1
 479 96.5 l 1
 383.5 96.5 l 1
 383 96.5 l 1
 383 96 l 1
 383 0.5 l 1
 96 0.5 l 1
 96 95.5 l 1
 287.5 95.5 l 1
 288 95.5 l 1
 288 96 l 1
 288 288 l 1
 288 288.5 l 1
 287.5 288.5 l 1
 192 288.5 l 1
 192 384 l 1
 192 384.5 l 1
 191.5 384.5 l 1
 96 384.5 l 1
EndSplineSet
EndChar

StartChar: T
Encoding: 84 84 52
Width: 574
VWidth: 0
Flags: W
LayerCount: 2
Back
Fore
SplineSet
0 480.5 m 1
 0 575.5 l 1
 574 575.5 l 1
 574 480.5 l 1
 382.534793565 480.5 l 1
 382.037216515 480.5 l 1
 382.037216515 480 l 1
 382 0.5 l 1
 191 0.5 l 1
 191.962783485 480 l 1
 191.962783485 480.5 l 1
 191.465206435 480.5 l 1
 0 480.5 l 1
EndSplineSet
EndChar

StartChar: U
Encoding: 85 85 53
Width: 574
VWidth: 0
Flags: W
LayerCount: 2
Back
Fore
SplineSet
96 96.5 m 1
 96 575.5 l 1
 287 575.5 l 1
 287 96 l 1
 287 95.5 l 1
 287.494845361 95.5 l 1
 382.505154639 95.5 l 1
 383 95.5 l 1
 383 96 l 1
 383 575.5 l 1
 478 575.5 l 1
 478 0.5 l 1
 192 0.5 l 1
 192 96 l 1
 192 96.5 l 1
 191.5 96.5 l 1
 96 96.5 l 1
EndSplineSet
EndChar

StartChar: V
Encoding: 86 86 54
Width: 574
VWidth: 0
Flags: W
LayerCount: 2
Back
Fore
SplineSet
478 192.5 m 1
 383 192.5 l 1
 383 575.5 l 1
 478 575.5 l 1
 478 192.5 l 1
191.497409326 191.5 m 1
 382.005181347 191.5 l 1
 382.005181347 96.5 l 1
 287 96.5 l 1
 286.502590674 96.5 l 1
 286.502590674 96 l 1
 286.502590674 0.5 l 1
 96 0.5 l 1
 96 192 l 1
 96 192.5 l 1
 95.5 192.5 l 1
 0 192.5 l 1
 0 575.5 l 1
 191 575.5 l 1
 191 192 l 1
 191 191.5 l 1
 191.497409326 191.5 l 1
EndSplineSet
EndChar

StartChar: W
Encoding: 87 87 55
Width: 574
VWidth: 0
Flags: W
LayerCount: 2
Back
Fore
SplineSet
574 96.5 m 1
 479 96.5 l 1
 479 575.5 l 1
 574 575.5 l 1
 574 96.5 l 1
382.833910035 95.5 m 1
 478.003460208 95.5 l 1
 478.003460208 0.5 l 1
 96 0.5 l 1
 96 96 l 1
 96 96.5 l 1
 95.5 96.5 l 1
 0 96.5 l 1
 0 575.5 l 1
 191 575.5 l 1
 191 96 l 1
 191 95.5 l 1
 191.498269896 95.5 l 1
 287.166089965 95.5 l 1
 287.664359862 95.5 l 1
 287.664359862 96 l 1
 287.664359862 287.5 l 1
 382.335640138 287.5 l 1
 382.335640138 96 l 1
 382.335640138 95.5 l 1
 382.833910035 95.5 l 1
EndSplineSet
EndChar

StartChar: X
Encoding: 88 88 56
Width: 574
VWidth: 0
Flags: W
LayerCount: 2
Back
Fore
SplineSet
478 384.5 m 1
 383 384.5 l 1
 383 575.5 l 1
 478 575.5 l 1
 478 384.5 l 1
0 191.5 m 1
 95 191.5 l 1
 95 0.5 l 1
 0 0.5 l 1
 0 191.5 l 1
287 192.5 m 1
 96 192.5 l 1
 96 384 l 1
 96 384.5 l 1
 95.5 384.5 l 1
 0 384.5 l 1
 0 575.5 l 1
 191 575.5 l 1
 191 384 l 1
 191 383.5 l 1
 191.497409326 383.5 l 1
 382.005181347 383.5 l 1
 382.005181347 192 l 1
 382.005181347 191.5 l 1
 382.502590674 191.5 l 1
 478 191.5 l 1
 478 0.5 l 1
 287.497409326 0.5 l 1
 287.497409326 192 l 1
 287.497409326 192.5 l 1
 287 192.5 l 1
EndSplineSet
EndChar

StartChar: Y
Encoding: 89 89 57
Width: 574
VWidth: 0
Flags: W
LayerCount: 2
Back
Fore
SplineSet
574 384.5 m 1
 479 384.5 l 1
 479 575.5 l 1
 574 575.5 l 1
 574 384.5 l 1
383.332179931 383.5 m 1
 478.003460208 383.5 l 1
 478.003460208 288.5 l 1
 383.332179931 288.5 l 1
 383.332179931 383.5 l 1
287.166089965 287.5 m 1
 382.335640138 287.5 l 1
 382.335640138 0.5 l 1
 191.996539792 0.5 l 1
 191.996539792 288 l 1
 191.996539792 288.5 l 1
 191.498269896 288.5 l 1
 96 288.5 l 1
 96 384 l 1
 96 384.5 l 1
 95.5 384.5 l 1
 0 384.5 l 1
 0 575.5 l 1
 191 575.5 l 1
 191 384 l 1
 191 383.5 l 1
 191.498269896 383.5 l 1
 286.667820069 383.5 l 1
 286.667820069 288 l 1
 286.667820069 287.5 l 1
 287.166089965 287.5 l 1
EndSplineSet
EndChar

StartChar: Z
Encoding: 90 90 58
Width: 575
VWidth: 0
Flags: W
LayerCount: 2
Back
Fore
SplineSet
96 480.5 m 1
 96 575.5 l 1
 479 575.5 l 1
 479 384.5 l 1
 383.5 384.5 l 1
 383 384.5 l 1
 383 384 l 1
 383 288.5 l 1
 287.5 288.5 l 1
 287 288.5 l 1
 287 288 l 1
 287 96 l 1
 287 95.5 l 1
 287.5 95.5 l 1
 479 95.5 l 1
 479 0.5 l 1
 96 0.5 l 1
 96 287.5 l 1
 191.5 287.5 l 1
 192 287.5 l 1
 192 288 l 1
 192 383.5 l 1
 287.5 383.5 l 1
 288 383.5 l 1
 288 384 l 1
 288 480 l 1
 288 480.5 l 1
 287.5 480.5 l 1
 96 480.5 l 1
EndSplineSet
EndChar

StartChar: bracketleft
Encoding: 91 91 59
Width: 576
VWidth: 0
Flags: W
LayerCount: 2
Back
Fore
SplineSet
96.5 671.5 m 1
 383.5 671.5 l 1
 383.5 576.5 l 1
 288 576.5 l 1
 287.5 576.5 l 1
 287.5 576 l 1
 287.5 96 l 1
 287.5 95.5 l 1
 288 95.5 l 1
 383.5 95.5 l 1
 383.5 0.5 l 1
 96.5 0.5 l 1
 96.5 671.5 l 1
EndSplineSet
EndChar

StartChar: backslash
Encoding: 92 92 60
Width: 576
VWidth: 0
Flags: W
LayerCount: 2
Back
Fore
SplineSet
96.5 671.5 m 1
 287.5 671.5 l 1
 287.5 480 l 1
 287.5 479.5 l 1
 288 479.5 l 1
 383.5 479.5 l 1
 383.5 288 l 1
 383.5 287.5 l 1
 384 287.5 l 1
 479.5 287.5 l 1
 479.5 96 l 1
 479.5 95.5 l 1
 480 95.5 l 1
 575.5 95.5 l 1
 575.5 -95.5 l 1
 384.5 -95.5 l 1
 384.5 96 l 1
 384.5 96.5 l 1
 384 96.5 l 1
 288.5 96.5 l 1
 288.5 288 l 1
 288.5 288.5 l 1
 288 288.5 l 1
 192.5 288.5 l 1
 192.5 480 l 1
 192.5 480.5 l 1
 192 480.5 l 1
 96.5 480.5 l 1
 96.5 671.5 l 1
EndSplineSet
EndChar

StartChar: bracketright
Encoding: 93 93 61
Width: 576
VWidth: 0
Flags: W
LayerCount: 2
Back
Fore
SplineSet
192.5 671.5 m 1
 479.5 671.5 l 1
 479.5 0.5 l 1
 192.5 0.5 l 1
 192.5 95.5 l 1
 288 95.5 l 1
 288.5 95.5 l 1
 288.5 96 l 1
 288.5 576 l 1
 288.5 576.5 l 1
 288 576.5 l 1
 192.5 576.5 l 1
 192.5 671.5 l 1
EndSplineSet
EndChar

StartChar: asciicircum
Encoding: 94 94 62
Width: 576
VWidth: 0
Flags: W
LayerCount: 2
Back
Fore
SplineSet
480.5 479.5 m 1
 575.5 479.5 l 1
 575.5 384.5 l 1
 480.5 384.5 l 1
 480.5 479.5 l 1
479.5 480.5 m 1
 384.5 480.5 l 1
 384.5 575.5 l 1
 479.5 575.5 l 1
 479.5 480.5 l 1
383.5 576.5 m 1
 288 576.5 l 1
 287.5 576.5 l 1
 287.5 576 l 1
 287.5 480.5 l 1
 192 480.5 l 1
 191.5 480.5 l 1
 191.5 480 l 1
 191.5 384.5 l 1
 0.5 384.5 l 1
 0.5 479.5 l 1
 96 479.5 l 1
 96.5 479.5 l 1
 96.5 480 l 1
 96.5 575.5 l 1
 192 575.5 l 1
 192.5 575.5 l 1
 192.5 576 l 1
 192.5 671.5 l 1
 383.5 671.5 l 1
 383.5 576.5 l 1
EndSplineSet
EndChar

StartChar: underscore
Encoding: 95 95 63
Width: 576
VWidth: 0
Flags: W
LayerCount: 2
Back
Fore
SplineSet
96.5 -0.5 m 1
 575.5 -0.5 l 1
 575.5 -95.5 l 1
 96.5 -95.5 l 1
 96.5 -0.5 l 1
EndSplineSet
EndChar

StartChar: grave
Encoding: 96 96 64
Width: 576
VWidth: 0
Flags: W
LayerCount: 2
Back
Fore
SplineSet
96.5 671.5 m 1
 287.5 671.5 l 1
 287.5 480 l 1
 287.5 479.5 l 1
 288 479.5 l 1
 383.5 479.5 l 1
 383.5 384.5 l 1
 192.5 384.5 l 1
 192.5 480 l 1
 192.5 480.5 l 1
 192 480.5 l 1
 96.5 480.5 l 1
 96.5 671.5 l 1
EndSplineSet
EndChar

StartChar: a
Encoding: 97 97 65
Width: 574
VWidth: 0
Flags: W
LayerCount: 2
Back
Fore
SplineSet
479 0.5 m 1
 479 95.5 l 1
 574 95.5 l 1
 574 0.5 l 1
 479 0.5 l 1
96 383.5 m 1
 191 383.5 l 1
 191 96.5 l 1
 96 96.5 l 1
 96 383.5 l 1
287.5 384.5 m 1
 192 384.5 l 1
 192 479.5 l 1
 478.010309278 479.5 l 1
 478.010309278 96.5 l 1
 383.494845361 96.5 l 1
 383 96.5 l 1
 383 96 l 1
 383 0.5 l 1
 192 0.5 l 1
 192 95.5 l 1
 287.5 95.5 l 1
 288 95.5 l 1
 288 96 l 1
 288 384 l 1
 288 384.5 l 1
 287.5 384.5 l 1
EndSplineSet
EndChar

StartChar: b
Encoding: 98 98 66
Width: 575
VWidth: 0
Flags: W
LayerCount: 2
Back
Fore
SplineSet
479 96.5 m 1
 384 96.5 l 1
 384 383.5 l 1
 479 383.5 l 1
 479 96.5 l 1
287.5 96 m 1
 383 96 l 1
 383 1 l 1
 96 1 l 1
 96 672 l 1
 287 672 l 1
 287 480.5 l 1
 287 480 l 1
 287.5 480 l 1
 383 480 l 1
 383 385 l 1
 287.5 385 l 1
 287 385 l 1
 287 384.5 l 1
 287 96.5 l 1
 287 96 l 1
 287.5 96 l 1
EndSplineSet
EndChar

StartChar: c
Encoding: 99 99 67
Width: 575
VWidth: 0
Flags: W
LayerCount: 2
Back
Fore
SplineSet
96 96.5 m 1
 96 383.5 l 1
 191.5 383.5 l 1
 192 383.5 l 1
 192 384 l 1
 192 479.5 l 1
 479 479.5 l 1
 479 384.5 l 1
 287.5 384.5 l 1
 287 384.5 l 1
 287 384 l 1
 287 96 l 1
 287 95.5 l 1
 287.5 95.5 l 1
 479 95.5 l 1
 479 0.5 l 1
 192 0.5 l 1
 192 96 l 1
 192 96.5 l 1
 191.5 96.5 l 1
 96 96.5 l 1
EndSplineSet
EndChar

StartChar: d
Encoding: 100 100 68
Width: 575
VWidth: 0
Flags: W
LayerCount: 2
Back
Fore
SplineSet
96 383.5 m 1
 191 383.5 l 1
 191 96.5 l 1
 96 96.5 l 1
 96 383.5 l 1
287.5 385 m 1
 192 385 l 1
 192 480 l 1
 287.5 480 l 1
 288 480 l 1
 288 480.5 l 1
 288 672 l 1
 479 672 l 1
 479 1 l 1
 192 1 l 1
 192 96 l 1
 287.5 96 l 1
 288 96 l 1
 288 96.5 l 1
 288 384.5 l 1
 288 385 l 1
 287.5 385 l 1
EndSplineSet
EndChar

StartChar: e
Encoding: 101 101 69
Width: 575
VWidth: 0
Flags: W
LayerCount: 2
Back
Fore
SplineSet
192 384 m 1
 192 479.5 l 1
 383 479.5 l 1
 383 384.5 l 1
 287.5 384.5 l 1
 287 384.5 l 1
 287 384 l 1
 287 288 l 1
 287 287.5 l 1
 287.5 287.5 l 1
 383.5 287.5 l 1
 384 287.5 l 1
 384 288 l 1
 384 383.5 l 1
 479 383.5 l 1
 479 192.5 l 1
 287.5 192.5 l 1
 287 192.5 l 1
 287 192 l 1
 287 96 l 1
 287 95.5 l 1
 287.5 95.5 l 1
 479 95.5 l 1
 479 0.5 l 1
 192 0.5 l 1
 192 96 l 1
 192 96.5 l 1
 191.5 96.5 l 1
 96 96.5 l 1
 96 383.5 l 1
 191.5 383.5 l 1
 192 383.5 l 1
 192 384 l 1
EndSplineSet
EndChar

StartChar: f
Encoding: 102 102 70
Width: 575
VWidth: 0
Flags: W
LayerCount: 2
Back
Fore
SplineSet
96 1 m 1
 96 576 l 1
 191.5 576 l 1
 192 576 l 1
 192 576.5 l 1
 192 672 l 1
 479 672 l 1
 479 577 l 1
 287.5 577 l 1
 287 577 l 1
 287 576.5 l 1
 287 480.5 l 1
 287 480 l 1
 287.5 480 l 1
 479 480 l 1
 479 385 l 1
 287.5 385 l 1
 287 385 l 1
 287 384.5 l 1
 287 1 l 1
 96 1 l 1
EndSplineSet
EndChar

StartChar: g
Encoding: 103 103 71
Width: 575
VWidth: 0
Flags: W
LayerCount: 2
Back
Fore
SplineSet
287.5 384.5 m 1
 192 384.5 l 1
 192 479.5 l 1
 479 479.5 l 1
 479 0 l 1
 383.5 0 l 1
 383 0 l 1
 383 -0.5 l 1
 383 -96 l 1
 96 -96 l 1
 96 -1 l 1
 287.5 -1 l 1
 288 -1 l 1
 288 -0.5 l 1
 288 95.9970703125 l 1
 288 96.5 l 1
 287.5 96.5 l 1
 192 96.5 l 1
 192 191.5 l 1
 287.5 191.5 l 1
 288 191.5 l 1
 288 192 l 1
 288 384 l 1
 288 384.5 l 1
 287.5 384.5 l 1
96 383.5 m 1
 191 383.5 l 1
 191 192.5 l 1
 96 192.5 l 1
 96 383.5 l 1
EndSplineSet
EndChar

StartChar: h
Encoding: 104 104 72
Width: 574
VWidth: 0
Flags: W
LayerCount: 2
Back
Fore
SplineSet
383 0.5 m 1
 383 383.5 l 1
 478 383.5 l 1
 478 0.5 l 1
 383 0.5 l 1
382.010309278 480 m 1
 382.010309278 385 l 1
 287.494845361 385 l 1
 287 385 l 1
 287 384.5 l 1
 287 1 l 1
 96 1 l 1
 96 672 l 1
 287 672 l 1
 287 480.5 l 1
 287 480 l 1
 287.494845361 480 l 1
 382.010309278 480 l 1
EndSplineSet
EndChar

StartChar: i
Encoding: 105 105 73
Width: 575
VWidth: 0
Flags: W
LayerCount: 2
Back
Fore
SplineSet
192 0.5 m 1
 192 479.5 l 1
 383 479.5 l 1
 383 0.5 l 1
 192 0.5 l 1
192 577 m 1
 192 672 l 1
 383 672 l 1
 383 577 l 1
 192 577 l 1
EndSplineSet
EndChar

StartChar: j
Encoding: 106 106 74
Width: 575
VWidth: 0
Flags: W
LayerCount: 2
Back
Fore
SplineSet
192 -0.5 m 1
 192 479 l 1
 383 479 l 1
 383 0 l 1
 287.5 0 l 1
 287 0 l 1
 287 -0.5 l 1
 287 -96 l 1
 96 -96 l 1
 96 -1 l 1
 191.5 -1 l 1
 192 -1 l 1
 192 -0.5 l 1
192 577 m 1
 192 672 l 1
 383 672 l 1
 383 577 l 1
 192 577 l 1
EndSplineSet
EndChar

StartChar: k
Encoding: 107 107 75
Width: 575
VWidth: 0
Flags: W
LayerCount: 2
Back
Fore
SplineSet
575 384.5 m 1
 480 384.5 l 1
 480 479.5 l 1
 575 479.5 l 1
 575 384.5 l 1
384 383.5 m 1
 479 383.5 l 1
 479 288.5 l 1
 384 288.5 l 1
 384 383.5 l 1
480 0.5 m 1
 480 95.5 l 1
 575 95.5 l 1
 575 0.5 l 1
 480 0.5 l 1
479 191.5 m 1
 479 96.5 l 1
 384 96.5 l 1
 384 191.5 l 1
 479 191.5 l 1
383 287.5 m 1
 383 192.5 l 1
 287.5 192.5 l 1
 287 192.5 l 1
 287 192 l 1
 287 0.5 l 1
 96 0.5 l 1
 96 672 l 1
 287 672 l 1
 287 288.000976562 l 1
 287 287.5 l 1
 287.5 287.5 l 1
 383 287.5 l 1
EndSplineSet
EndChar

StartChar: l
Encoding: 108 108 76
Width: 575
VWidth: 0
Flags: W
LayerCount: 2
Back
Fore
SplineSet
96 97 m 1
 96 672 l 1
 287 672 l 1
 287 96.5 l 1
 287 96 l 1
 287.5 96 l 1
 479 96 l 1
 479 1 l 1
 192 1 l 1
 192 96.5 l 1
 192 97 l 1
 191.5 97 l 1
 96 97 l 1
EndSplineSet
EndChar

StartChar: m
Encoding: 109 109 77
Width: 574
VWidth: 0
Flags: W
LayerCount: 2
Back
Fore
SplineSet
479 0.5 m 1
 479 383.5 l 1
 574 383.5 l 1
 574 0.5 l 1
 479 0.5 l 1
478.003460208 479.5 m 1
 478.003460208 384.5 l 1
 382.833910035 384.5 l 1
 382.335640138 384.5 l 1
 382.335640138 384 l 1
 382.335640138 96.5 l 1
 287.664359862 96.5 l 1
 287.664359862 384 l 1
 287.664359862 384.5 l 1
 287.166089965 384.5 l 1
 191.498269896 384.5 l 1
 191 384.5 l 1
 191 384 l 1
 191 0.5 l 1
 0 0.5 l 1
 0 479.5 l 1
 478.003460208 479.5 l 1
EndSplineSet
EndChar

StartChar: n
Encoding: 110 110 78
Width: 574
VWidth: 0
Flags: W
LayerCount: 2
Back
Fore
SplineSet
383 0.5 m 1
 383 383.5 l 1
 478 383.5 l 1
 478 0.5 l 1
 383 0.5 l 1
382.010309278 479.5 m 1
 382.010309278 384.5 l 1
 287.494845361 384.5 l 1
 287 384.5 l 1
 287 384 l 1
 287 0.5 l 1
 96 0.5 l 1
 96 479.5 l 1
 382.010309278 479.5 l 1
EndSplineSet
EndChar

StartChar: o
Encoding: 111 111 79
Width: 575
VWidth: 0
Flags: W
LayerCount: 2
Back
Fore
SplineSet
479 96.5 m 1
 384 96.5 l 1
 384 383.5 l 1
 479 383.5 l 1
 479 96.5 l 1
287.5 95.5 m 1
 383 95.5 l 1
 383 0.5 l 1
 192 0.5 l 1
 192 96 l 1
 192 96.5 l 1
 191.5 96.5 l 1
 96 96.5 l 1
 96 383.5 l 1
 191.5 383.5 l 1
 192 383.5 l 1
 192 384 l 1
 192 479.5 l 1
 383 479.5 l 1
 383 384.5 l 1
 287.5 384.5 l 1
 287 384.5 l 1
 287 384 l 1
 287 96 l 1
 287 95.5 l 1
 287.5 95.5 l 1
EndSplineSet
EndChar

StartChar: p
Encoding: 112 112 80
Width: 575
VWidth: 0
Flags: W
LayerCount: 2
Back
Fore
SplineSet
479 192.5 m 1
 384 192.5 l 1
 384 383.5 l 1
 479 383.5 l 1
 479 192.5 l 1
287.5 191.5 m 1
 383 191.5 l 1
 383 96.5 l 1
 287.5 96.5 l 1
 287 96.5 l 1
 287 95.9990234375 l 1
 287 -96 l 1
 96 -96 l 1
 96 479.5 l 1
 383 479.5 l 1
 383 384.5 l 1
 287.5 384.5 l 1
 287 384.5 l 1
 287 384 l 1
 287 192 l 1
 287 191.5 l 1
 287.5 191.5 l 1
EndSplineSet
EndChar

StartChar: q
Encoding: 113 113 81
Width: 575
VWidth: 0
Flags: W
LayerCount: 2
Back
Fore
SplineSet
287.5 384.5 m 1
 192 384.5 l 1
 192 479.5 l 1
 479 479.5 l 1
 479 -96 l 1
 288 -96 l 1
 288 95.9990234375 l 1
 288 96.5 l 1
 287.5 96.5 l 1
 192 96.5 l 1
 192 191.5 l 1
 287.5 191.5 l 1
 288 191.5 l 1
 288 192 l 1
 288 384 l 1
 288 384.5 l 1
 287.5 384.5 l 1
96 383.5 m 1
 191 383.5 l 1
 191 192.5 l 1
 96 192.5 l 1
 96 383.5 l 1
EndSplineSet
EndChar

StartChar: r
Encoding: 114 114 82
Width: 575
VWidth: 0
Flags: W
LayerCount: 2
Back
Fore
SplineSet
192 384 m 1
 192 479.5 l 1
 479 479.5 l 1
 479 384.5 l 1
 287.5 384.5 l 1
 287 384.5 l 1
 287 384 l 1
 287 0.5 l 1
 96 0.5 l 1
 96 383.5 l 1
 191.5 383.5 l 1
 192 383.5 l 1
 192 384 l 1
EndSplineSet
EndChar

StartChar: s
Encoding: 115 115 83
Width: 575
VWidth: 0
Flags: W
LayerCount: 2
Back
Fore
SplineSet
192 384 m 1
 192 479.5 l 1
 479 479.5 l 1
 479 384.5 l 1
 287.5 384.5 l 1
 287 384.5 l 1
 287 384 l 1
 287 288 l 1
 287 287.5 l 1
 287.5 287.5 l 1
 383 287.5 l 1
 383 192 l 1
 383 191.5 l 1
 383.5 191.5 l 1
 479 191.5 l 1
 479 96.5 l 1
 383.5 96.5 l 1
 383 96.5 l 1
 383 96 l 1
 383 0.5 l 1
 96 0.5 l 1
 96 95.5 l 1
 287.5 95.5 l 1
 288 95.5 l 1
 288 96 l 1
 288 192 l 1
 288 192.5 l 1
 287.5 192.5 l 1
 192 192.5 l 1
 192 288 l 1
 192 288.5 l 1
 191.5 288.5 l 1
 96 288.5 l 1
 96 383.5 l 1
 191.5 383.5 l 1
 192 383.5 l 1
 192 384 l 1
EndSplineSet
EndChar

StartChar: t
Encoding: 116 116 84
Width: 575
VWidth: 0
Flags: W
LayerCount: 2
Back
Fore
SplineSet
96 97 m 1
 96 672 l 1
 287 672 l 1
 287 480.5 l 1
 287 480 l 1
 287.5 480 l 1
 479 480 l 1
 479 385 l 1
 287.5 385 l 1
 287 385 l 1
 287 384.5 l 1
 287 96.5 l 1
 287 96 l 1
 287.5 96 l 1
 479 96 l 1
 479 1 l 1
 192 1 l 1
 192 96.5 l 1
 192 97 l 1
 191.5 97 l 1
 96 97 l 1
EndSplineSet
EndChar

StartChar: u
Encoding: 117 117 85
Width: 574
VWidth: 0
Flags: W
LayerCount: 2
Back
Fore
SplineSet
191.989690722 0.5 m 1
 191.989690722 95.5 l 1
 286.505154639 95.5 l 1
 287 95.5 l 1
 287 96 l 1
 287 479.5 l 1
 478 479.5 l 1
 478 0.5 l 1
 191.989690722 0.5 l 1
191 479.5 m 1
 191 96.5 l 1
 96 96.5 l 1
 96 479.5 l 1
 191 479.5 l 1
EndSplineSet
EndChar

StartChar: v
Encoding: 118 118 86
Width: 574
VWidth: 0
Flags: W
LayerCount: 2
Back
Fore
SplineSet
478 192.5 m 1
 383 192.5 l 1
 383 479.5 l 1
 478 479.5 l 1
 478 192.5 l 1
191.497409326 191.5 m 1
 382.005181347 191.5 l 1
 382.005181347 0.5 l 1
 96 0.5 l 1
 96 192 l 1
 96 192.5 l 1
 95.5 192.5 l 1
 0 192.5 l 1
 0 479.5 l 1
 191 479.5 l 1
 191 192 l 1
 191 191.5 l 1
 191.497409326 191.5 l 1
EndSplineSet
EndChar

StartChar: w
Encoding: 119 119 87
Width: 574
VWidth: 0
Flags: W
LayerCount: 2
Back
Fore
SplineSet
0 96.5 m 1
 0 479.5 l 1
 191 479.5 l 1
 191 96 l 1
 191 95.5 l 1
 191.498269896 95.5 l 1
 287.166089965 95.5 l 1
 287.664359862 95.5 l 1
 287.664359862 96 l 1
 287.664359862 383.5 l 1
 382.335640138 383.5 l 1
 382.335640138 96 l 1
 382.335640138 95.5 l 1
 382.833910035 95.5 l 1
 478.501730104 95.5 l 1
 479 95.5 l 1
 479 96 l 1
 479 479.5 l 1
 574 479.5 l 1
 574 0.5 l 1
 96 0.5 l 1
 96 96 l 1
 96 96.5 l 1
 95.5 96.5 l 1
 0 96.5 l 1
EndSplineSet
EndChar

StartChar: x
Encoding: 120 120 88
Width: 574
VWidth: 0
Flags: W
LayerCount: 2
Back
Fore
SplineSet
478 288.5 m 1
 383 288.5 l 1
 383 479.5 l 1
 478 479.5 l 1
 478 288.5 l 1
96 191.5 m 1
 191 191.5 l 1
 191 0.5 l 1
 96 0.5 l 1
 96 191.5 l 1
287.494845361 192.5 m 1
 192 192.5 l 1
 192 288 l 1
 192 288.5 l 1
 191.5 288.5 l 1
 96 288.5 l 1
 96 479.5 l 1
 287 479.5 l 1
 287 288 l 1
 287 287.5 l 1
 287.494845361 287.5 l 1
 382.010309278 287.5 l 1
 382.010309278 192 l 1
 382.010309278 191.5 l 1
 382.505154639 191.5 l 1
 478 191.5 l 1
 478 0.5 l 1
 287.989690722 0.5 l 1
 287.989690722 192 l 1
 287.989690722 192.5 l 1
 287.494845361 192.5 l 1
EndSplineSet
EndChar

StartChar: y
Encoding: 121 121 89
Width: 574
VWidth: 0
Flags: W
LayerCount: 2
Back
Fore
SplineSet
191.989690722 96.5 m 1
 191.989690722 191.5 l 1
 286.505154639 191.5 l 1
 287 191.5 l 1
 287 192 l 1
 287 479.5 l 1
 478 479.5 l 1
 478 0 l 1
 382.5 0 l 1
 382 0 l 1
 382 -0.5 l 1
 382 -96 l 1
 191.989690722 -96 l 1
 191.989690722 -1 l 1
 286.505154639 -1 l 1
 287 -1 l 1
 287 -0.5 l 1
 287 95.9970703125 l 1
 287 96.5 l 1
 286.505154639 96.5 l 1
 191.989690722 96.5 l 1
191 479.5 m 1
 191 192.5 l 1
 96 192.5 l 1
 96 479.5 l 1
 191 479.5 l 1
EndSplineSet
EndChar

StartChar: z
Encoding: 122 122 90
Width: 575
VWidth: 0
Flags: W
LayerCount: 2
Back
Fore
SplineSet
96 384.5 m 1
 96 479.5 l 1
 479 479.5 l 1
 479 288.5 l 1
 383.5 288.5 l 1
 383 288.5 l 1
 383 288 l 1
 383 192.5 l 1
 287.5 192.5 l 1
 287 192.5 l 1
 287 192 l 1
 287 96 l 1
 287 95.5 l 1
 287.5 95.5 l 1
 479 95.5 l 1
 479 0.5 l 1
 96 0.5 l 1
 96 191.5 l 1
 191.5 191.5 l 1
 192 191.5 l 1
 192 192 l 1
 192 287.5 l 1
 287.5 287.5 l 1
 288 287.5 l 1
 288 288 l 1
 288 384 l 1
 288 384.5 l 1
 287.5 384.5 l 1
 96 384.5 l 1
EndSplineSet
EndChar

StartChar: braceleft
Encoding: 123 123 91
Width: 576
VWidth: 0
Flags: W
CounterMasks: 1 e0
LayerCount: 2
Back
Fore
SplineSet
96.5 383.5 m 1
 192 383.5 l 1
 192.5 383.5 l 1
 192.5 384 l 1
 192.5 575.5 l 1
 288 575.5 l 1
 288.5 575.5 l 1
 288.5 576 l 1
 288.5 671.5 l 1
 479.5 671.5 l 1
 479.5 576.5 l 1
 384 576.5 l 1
 383.5 576.5 l 1
 383.5 576 l 1
 383.5 384.5 l 1
 288 384.5 l 1
 287.5 384.5 l 1
 287.5 384 l 1
 287.5 288 l 1
 287.5 287.5 l 1
 288 287.5 l 1
 383.5 287.5 l 1
 383.5 96 l 1
 383.5 95.5 l 1
 384 95.5 l 1
 479.5 95.5 l 1
 479.5 0.5 l 1
 288.5 0.5 l 1
 288.5 96 l 1
 288.5 96.5 l 1
 288 96.5 l 1
 192.5 96.5 l 1
 192.5 288 l 1
 192.5 288.5 l 1
 192 288.5 l 1
 96.5 288.5 l 1
 96.5 383.5 l 1
EndSplineSet
EndChar

StartChar: bar
Encoding: 124 124 92
Width: 576
VWidth: 0
Flags: W
LayerCount: 2
Back
Fore
SplineSet
192.5 575.5 m 1
 383.5 575.5 l 1
 383.5 -95.5 l 1
 192.5 -95.5 l 1
 192.5 575.5 l 1
EndSplineSet
EndChar

StartChar: braceright
Encoding: 125 125 93
Width: 576
VWidth: 0
Flags: W
CounterMasks: 1 e0
LayerCount: 2
Back
Fore
SplineSet
96.5 671.5 m 1
 287.5 671.5 l 1
 287.5 576 l 1
 287.5 575.5 l 1
 288 575.5 l 1
 383.5 575.5 l 1
 383.5 384 l 1
 383.5 383.5 l 1
 384 383.5 l 1
 479.5 383.5 l 1
 479.5 288.5 l 1
 384 288.5 l 1
 383.5 288.5 l 1
 383.5 288 l 1
 383.5 96.5 l 1
 288 96.5 l 1
 287.5 96.5 l 1
 287.5 96 l 1
 287.5 0.5 l 1
 96.5 0.5 l 1
 96.5 95.5 l 1
 192 95.5 l 1
 192.5 95.5 l 1
 192.5 96 l 1
 192.5 287.5 l 1
 288 287.5 l 1
 288.5 287.5 l 1
 288.5 288 l 1
 288.5 384 l 1
 288.5 384.5 l 1
 288 384.5 l 1
 192.5 384.5 l 1
 192.5 576 l 1
 192.5 576.5 l 1
 192 576.5 l 1
 96.5 576.5 l 1
 96.5 671.5 l 1
EndSplineSet
EndChar

StartChar: asciitilde
Encoding: 126 126 94
Width: 576
VWidth: 0
Flags: W
LayerCount: 2
Back
Fore
SplineSet
480.5 288.5 m 1
 480.5 383.5 l 1
 575.5 383.5 l 1
 575.5 288.5 l 1
 480.5 288.5 l 1
479.5 287.5 m 1
 479.5 192.5 l 1
 288.5 192.5 l 1
 288.5 288 l 1
 288.5 288.5 l 1
 288 288.5 l 1
 192.5 288.5 l 1
 192.5 383.5 l 1
 383.5 383.5 l 1
 383.5 288 l 1
 383.5 287.5 l 1
 384 287.5 l 1
 479.5 287.5 l 1
191.5 287.5 m 1
 191.5 192.5 l 1
 96.5 192.5 l 1
 96.5 287.5 l 1
 191.5 287.5 l 1
EndSplineSet
EndChar

StartChar: currency
Encoding: 256 164 99
Width: 576
VWidth: 0
Flags: W
LayerCount: 2
Back
Fore
SplineSet
191.5 384 m 1
 191.5 192 l 1
 191.5 191.5 l 1
 192 191.5 l 1
 384 191.5 l 1
 384.5 191.5 l 1
 384.5 192 l 1
 384.5 384 l 1
 384.5 384.5 l 1
 384 384.5 l 1
 192 384.5 l 1
 191.5 384.5 l 1
 191.5 384 l 1
96.6666666667 96.5 m 1
 96.5 479.5 l 1
 479.333333333 479.5 l 1
 479.5 96.5 l 1
 96.6666666667 96.5 l 1
480.5 480.5 m 1
 480.5 575.5 l 1
 575.5 575.5 l 1
 575.5 480.5 l 1
 480.5 480.5 l 1
480.5 95.5 m 1
 575.5 95.5 l 1
 575.5 0.5 l 1
 480.5 0.5 l 1
 480.5 95.5 l 1
95.5 95.5 m 1
 95.5 0.5 l 1
 0.5 0.5 l 1
 0.5 95.5 l 1
 95.5 95.5 l 1
95.5 480.5 m 1
 0.5 480.5 l 1
 0.5 575.5 l 1
 95.5 575.5 l 1
 95.5 480.5 l 1
EndSplineSet
EndChar

StartChar: brokenbar
Encoding: 257 166 101
Width: 576
VWidth: 0
Flags: W
LayerCount: 2
Back
Fore
SplineSet
288.5 575.5 m 1
 383.5 575.5 l 1
 383.5 -95.5 l 1
 288.5 -95.5 l 1
 288.5 575.5 l 1
EndSplineSet
EndChar

StartChar: dieresis
Encoding: 258 168 103
Width: 576
VWidth: 0
Flags: W
LayerCount: 2
Back
Fore
SplineSet
480.5 575.5 m 1
 575.5 575.5 l 1
 575.5 480.5 l 1
 480.5 480.5 l 1
 480.5 575.5 l 1
192.5 575.5 m 1
 287.5 575.5 l 1
 287.5 480.5 l 1
 192.5 480.5 l 1
 192.5 575.5 l 1
EndSplineSet
EndChar

StartChar: acute
Encoding: 259 180 114
Width: 576
VWidth: 0
Flags: W
LayerCount: 2
Back
Fore
SplineSet
287.5 479.5 m 1
 287.5 384.5 l 1
 192.5 384.5 l 1
 192.5 479.5 l 1
 287.5 479.5 l 1
288.5 480.5 m 1
 288.5 671.5 l 1
 383.5 671.5 l 1
 383.5 480.5 l 1
 288.5 480.5 l 1
EndSplineSet
EndChar

StartChar: cedilla
Encoding: 260 184 118
Width: 576
VWidth: 0
Flags: W
LayerCount: 2
Back
Fore
SplineSet
384.5 -0.5 m 1
 479.5 -0.5 l 1
 479.5 -191.5 l 1
 192.5 -191.5 l 1
 192.5 -96.5 l 1
 384 -96.5 l 1
 384.5 -96.5 l 1
 384.5 -96 l 1
 384.5 -0.5 l 1
383.5 0.5 m 1
 288.5 0.5 l 1
 288.5 95.5 l 1
 383.5 95.5 l 1
 383.5 0.5 l 1
EndSplineSet
EndChar

StartChar: onequarter
Encoding: 261 188 122
Width: 576
VWidth: 0
Flags: W
LayerCount: 2
Back
Fore
SplineSet
383.5 384.666666667 m 0
 288.5 384.5 l 1
 288.5 479.5 l 1
 383.333333333 479.5 l 1024
192.666666667 288.5 m 1
 192.5 383.5 l 1
 287.333333333 383.5 l 1
 287.5 288.5 l 1
 192.666666667 288.5 l 1
384.5 480.5 m 1
 384.5 575.5 l 1
 479.5 575.5 l 1
 479.5 480.5 l 1
 384.5 480.5 l 1
384.5 383.5 m 1
 479.5 383.5 l 1
 479.5 96 l 1
 479.5 95.5 l 1
 480 95.5 l 1
 575.5 95.5 l 1
 575.5 0.5 l 1
 480 0.5 l 1
 479.5 0.5 l 1
 479.5 0 l 1
 479.5 -95.5 l 1
 384.5 -95.5 l 1
 384.5 0 l 1
 384.5 0.5 l 1
 384 0.5 l 1
 192.5 0.5 l 1
 192.5 191.5 l 1
 287.5 191.5 l 1
 287.5 96 l 1
 287.5 95.5 l 1
 288 95.5 l 1
 384 95.5 l 1
 384.5 95.5 l 1
 384.5 96 l 1
 384.5 192 l 1
 384.5 192.5 l 1
 384 192.5 l 1
 288.5 192.5 l 1
 288.5 287.5 l 1
 384 287.5 l 1
 384.5 287.5 l 1
 384.5 288 l 1
 384.5 383.5 l 1
95.5 191.5 m 1
 95.5 96.5 l 1
 0.5 96.5 l 1
 0.5 191.5 l 1
 95.5 191.5 l 1
96.5 192.5 m 1
 96.5 287.5 l 1
 191.5 287.5 l 1
 191.5 192.5 l 1
 96.5 192.5 l 1
191.5 384.5 m 1
 96.5 384.5 l 1
 96.5 576 l 1
 96.5 576.5 l 1
 96 576.5 l 1
 0.5 576.5 l 1
 0.5 671.5 l 1
 96 671.5 l 1
 96.5 671.5 l 1
 96.5 672 l 1
 96.5 767.5 l 1
 191.5 767.5 l 1
 191.5 384.5 l 1
EndSplineSet
EndChar

StartChar: onehalf
Encoding: 262 189 123
Width: 576
VWidth: 0
Flags: W
LayerCount: 2
Back
Fore
SplineSet
192.666666667 288.5 m 1
 192.5 383.5 l 1
 288.5 383.5 l 1
 288.5 479.5 l 1
 383.333333333 479.5 l 1
 383.5 384 l 1
 383.5 383.5 l 1
 479.5 383.5 l 1
 479.5 288.5 l 1
 192.666666667 288.5 l 1
384.5 480.5 m 1
 384.5 575.5 l 1
 479.5 575.5 l 1
 479.5 480.5 l 1
 384.5 480.5 l 1
479.5 191.5 m 1
 479.5 96 l 1
 479.5 95.5 l 1
 480 95.5 l 1
 575.5 95.5 l 1
 575.5 0.5 l 1
 288.5 0.5 l 1
 288.5 95.5 l 1
 384 95.5 l 1
 384.5 95.5 l 1
 384.5 96 l 1
 384.5 191.5 l 1
 479.5 191.5 l 1
480.5 192.5 m 1
 480.5 287.5 l 1
 575.5 287.5 l 1
 575.5 192.5 l 1
 480.5 192.5 l 1
95.5 191.5 m 1
 95.5 96.5 l 1
 0.5 96.5 l 1
 0.5 191.5 l 1
 95.5 191.5 l 1
96.5 192.5 m 1
 96.5 287.5 l 1
 191.5 287.5 l 1
 191.5 192.5 l 1
 96.5 192.5 l 1
191.5 384.5 m 1
 96.5 384.5 l 1
 96.5 576 l 1
 96.5 576.5 l 1
 96 576.5 l 1
 0.5 576.5 l 1
 0.5 671.5 l 1
 96 671.5 l 1
 96.5 671.5 l 1
 96.5 672 l 1
 96.5 767.5 l 1
 191.5 767.5 l 1
 191.5 384.5 l 1
EndSplineSet
EndChar

StartChar: threequarters
Encoding: 263 190 124
Width: 576
VWidth: 0
Flags: W
LayerCount: 2
Back
Fore
SplineSet
192.666666667 288.5 m 1
 192.5 384.5 l 1
 0.5 384.5 l 1
 0.5 479.5 l 1
 192.5 479.5 l 1
 192.5 576.5 l 1
 96.5 576.5 l 1
 96.5 672.5 l 1
 0.5 672.5 l 1
 0.5 767.5 l 1
 287.5 767.5 l 1
 287.5 479.5 l 1
 383.5 479.5 l 1
 383.5 384.666666667 l 1
 288 384.5 l 1
 287.5 384.5 l 1
 287.5 288.5 l 1
 192.666666667 288.5 l 1
384.5 480.5 m 1
 384.5 575.5 l 1
 479.5 575.5 l 1
 479.5 480.5 l 1
 384.5 480.5 l 1
384.5 383.5 m 1
 479.5 383.5 l 1
 479.5 96 l 1
 479.5 95.5 l 1
 480 95.5 l 1
 575.5 95.5 l 1
 575.5 0.5 l 1
 480 0.5 l 1
 479.5 0.5 l 1
 479.5 0 l 1
 479.5 -95.5 l 1
 384.5 -95.5 l 1
 384.5 0 l 1
 384.5 0.5 l 1
 384 0.5 l 1
 192.5 0.5 l 1
 192.5 191.5 l 1
 287.5 191.5 l 1
 287.5 96 l 1
 287.5 95.5 l 1
 288 95.5 l 1
 384 95.5 l 1
 384.5 95.5 l 1
 384.5 96 l 1
 384.5 192 l 1
 384.5 192.5 l 1
 384 192.5 l 1
 288.5 192.5 l 1
 288.5 287.5 l 1
 384 287.5 l 1
 384.5 287.5 l 1
 384.5 288 l 1
 384.5 383.5 l 1
95.5 191.5 m 1
 95.5 96.5 l 1
 0.5 96.5 l 1
 0.5 191.5 l 1
 95.5 191.5 l 1
96.5 192.5 m 1
 96.5 287.5 l 1
 191.5 287.5 l 1
 191.5 192.5 l 1
 96.5 192.5 l 1
EndSplineSet
EndChar

StartChar: questiondown
Encoding: 191 191 125
Width: 576
VWidth: 0
Flags: W
LayerCount: 2
Back
Fore
SplineSet
384.5 0.5 m 1
 384.5 95.5 l 1
 479.5 95.5 l 1
 479.5 0.5 l 1
 384.5 0.5 l 1
383.5 -0.5 m 1
 383.5 -95.5 l 1
 192.5 -95.5 l 1
 192.5 -0.5 l 1
 383.5 -0.5 l 1
191.5 0.5 m 1
 96.5 0.5 l 1
 96.5 191.5 l 1
 191.5 191.5 l 1
 191.5 0.5 l 1
192.5 192.5 m 1
 192.5 287.5 l 1
 287.5 287.5 l 1
 287.5 192.5 l 1
 192.5 192.5 l 1
288.5 288.5 m 1
 288.5 383.5 l 1
 383.5 383.5 l 1
 383.5 288.5 l 1
 288.5 288.5 l 1
288.5 575.5 m 1
 383.5 575.5 l 1
 383.5 480.5 l 1
 288.5 480.5 l 1
 288.5 575.5 l 1
EndSplineSet
EndChar

StartChar: Agrave
Encoding: 192 192 126
Width: 574
VWidth: 0
Flags: W
LayerCount: 2
Back
Fore
SplineSet
287.989690722 577 m 1
 287.989690722 672 l 1
 382.010309278 672 l 1
 382.010309278 577 l 1
 287.989690722 577 l 1
287 768 m 1
 287 673 l 1
 192 673 l 1
 192 768 l 1
 287 768 l 1
96 0.5 m 1
 96 479.5 l 1
 191.5 479.5 l 1
 192 479.5 l 1
 192 480 l 1
 192 575.5 l 1
 382.010309278 575.5 l 1
 382.010309278 480.5 l 1
 287.494845361 480.5 l 1
 287 480.5 l 1
 287 480 l 1
 287 288 l 1
 287 287.5 l 1
 287.494845361 287.5 l 1
 382.505154639 287.5 l 1
 383 287.5 l 1
 383 288 l 1
 383 479.5 l 1
 478 479.5 l 1
 478 0.5 l 1
 383 0.5 l 1
 383 192 l 1
 383 192.5 l 1
 382.505154639 192.5 l 1
 287.494845361 192.5 l 1
 287 192.5 l 1
 287 192 l 1
 287 0.5 l 1
 96 0.5 l 1
EndSplineSet
EndChar

StartChar: Aacute
Encoding: 193 193 127
Width: 574
VWidth: 0
Flags: W
LayerCount: 2
Back
Fore
SplineSet
382.010309278 673 m 1
 287.989690722 673 l 1
 287.989690722 768 l 1
 382.010309278 768 l 1
 382.010309278 673 l 1
192 672 m 1
 287 672 l 1
 287 577 l 1
 192 577 l 1
 192 672 l 1
96 0.5 m 1
 96 479.5 l 1
 191.5 479.5 l 1
 192 479.5 l 1
 192 480 l 1
 192 575.5 l 1
 382.010309278 575.5 l 1
 382.010309278 480.5 l 1
 287.494845361 480.5 l 1
 287 480.5 l 1
 287 480 l 1
 287 288 l 1
 287 287.5 l 1
 287.494845361 287.5 l 1
 382.505154639 287.5 l 1
 383 287.5 l 1
 383 288 l 1
 383 479.5 l 1
 478 479.5 l 1
 478 0.5 l 1
 383 0.5 l 1
 383 192 l 1
 383 192.5 l 1
 382.505154639 192.5 l 1
 287.494845361 192.5 l 1
 287 192.5 l 1
 287 192 l 1
 287 0.5 l 1
 96 0.5 l 1
EndSplineSet
EndChar

StartChar: Acircumflex
Encoding: 194 194 128
Width: 574
VWidth: 0
Flags: W
LayerCount: 2
Back
Fore
SplineSet
383 577 m 1
 383 672 l 1
 478 672 l 1
 478 577 l 1
 383 577 l 1
382.010309278 768 m 1
 382.010309278 673 l 1
 192 673 l 1
 192 768 l 1
 382.010309278 768 l 1
96 672 m 1
 191 672 l 1
 191 577 l 1
 96 577 l 1
 96 672 l 1
96 0.5 m 1
 96 479.5 l 1
 191.5 479.5 l 1
 192 479.5 l 1
 192 480 l 1
 192 575.5 l 1
 382.010309278 575.5 l 1
 382.010309278 480.5 l 1
 287.494845361 480.5 l 1
 287 480.5 l 1
 287 480 l 1
 287 288 l 1
 287 287.5 l 1
 287.494845361 287.5 l 1
 382.505154639 287.5 l 1
 383 287.5 l 1
 383 288 l 1
 383 479.5 l 1
 478 479.5 l 1
 478 0.5 l 1
 383 0.5 l 1
 383 192 l 1
 383 192.5 l 1
 382.505154639 192.5 l 1
 287.494845361 192.5 l 1
 287 192.5 l 1
 287 192 l 1
 287 0.5 l 1
 96 0.5 l 1
EndSplineSet
EndChar

StartChar: Atilde
Encoding: 195 195 129
Width: 574
VWidth: 0
Flags: W
LayerCount: 2
Back
Fore
SplineSet
97 0.5 m 1
 97 479.5 l 1
 192.5 479.5 l 1
 193 479.5 l 1
 193 480 l 1
 193 575.5 l 1
 383.010309278 575.5 l 1
 383.010309278 480.5 l 1
 288.494845361 480.5 l 1
 288 480.5 l 1
 288 480 l 1
 288 288 l 1
 288 287.5 l 1
 288.494845361 287.5 l 1
 383.505154639 287.5 l 1
 384 287.5 l 1
 384 288 l 1
 384 479.5 l 1
 479 479.5 l 1
 479 0.5 l 1
 384 0.5 l 1
 384 192 l 1
 384 192.5 l 1
 383.505154639 192.5 l 1
 288.494845361 192.5 l 1
 288 192.5 l 1
 288 192 l 1
 288 0.5 l 1
 97 0.5 l 1
97 672 m 1
 192 672 l 1
 192 577 l 1
 97 577 l 1
 97 672 l 1
288 768 m 1
 288 673 l 1
 193 673 l 1
 193 768 l 1
 288 768 l 1
288.989690722 672 m 1
 383.010309278 672 l 1
 383.010309278 577 l 1
 288.989690722 577 l 1
 288.989690722 672 l 1
479 673 m 1
 384 673 l 1
 384 768 l 1
 479 768 l 1
 479 673 l 1
96 672 m 1
 96 673 l 1
 97 673 l 1
 97 672 l 1
 96 672 l 1
EndSplineSet
EndChar

StartChar: null.dup1
Encoding: 196 196 130
Width: 574
VWidth: 0
Flags: W
LayerCount: 2
Back
Fore
SplineSet
478 673 m 1
 383 673 l 1
 383 768 l 1
 478 768 l 1
 478 673 l 1
287 673 m 1
 192 673 l 1
 192 768 l 1
 287 768 l 1
 287 673 l 1
96 0.5 m 1
 96 479.5 l 1
 191.5 479.5 l 1
 192 479.5 l 1
 192 480 l 1
 192 575.5 l 1
 382.010309278 575.5 l 1
 382.010309278 480.5 l 1
 287.494845361 480.5 l 1
 287 480.5 l 1
 287 480 l 1
 287 288 l 1
 287 287.5 l 1
 287.494845361 287.5 l 1
 382.505154639 287.5 l 1
 383 287.5 l 1
 383 288 l 1
 383 479.5 l 1
 478 479.5 l 1
 478 0.5 l 1
 383 0.5 l 1
 383 192 l 1
 383 192.5 l 1
 382.505154639 192.5 l 1
 287.494845361 192.5 l 1
 287 192.5 l 1
 287 192 l 1
 287 0.5 l 1
 96 0.5 l 1
EndSplineSet
EndChar

StartChar: Aring
Encoding: 197 197 131
Width: 574
VWidth: 0
Flags: W
LayerCount: 2
Back
Fore
SplineSet
382.010309278 673 m 1
 287.989690722 673 l 1
 287.989690722 768 l 1
 382.010309278 768 l 1
 382.010309278 673 l 1
192 672 m 1
 287 672 l 1
 287 577 l 1
 192 577 l 1
 192 672 l 1
478 577 m 1
 383 577 l 1
 383 672 l 1
 478 672 l 1
 478 577 l 1
287.989690722 575.5 m 1
 382.010309278 575.5 l 1
 382.010309278 384.5 l 1
 287.494845361 384.5 l 1
 287 384.5 l 1
 287 384 l 1
 287 288 l 1
 287 287.5 l 1
 287.494845361 287.5 l 1
 382.505154639 287.5 l 1
 383 287.5 l 1
 383 288 l 1
 383 383.5 l 1
 478 383.5 l 1
 478 0.5 l 1
 383 0.5 l 1
 383 192 l 1
 383 192.5 l 1
 382.505154639 192.5 l 1
 287.494845361 192.5 l 1
 287 192.5 l 1
 287 192 l 1
 287 0.5 l 1
 96 0.5 l 1
 96 383.5 l 1
 191.5 383.5 l 1
 192 383.5 l 1
 192 384 l 1
 192 479.5 l 1
 287.494845361 479.5 l 1
 287.989690722 479.5 l 1
 287.989690722 480 l 1
 287.989690722 575.5 l 1
EndSplineSet
EndChar

StartChar: AE
Encoding: 198 198 132
Width: 574
VWidth: 0
Flags: W
LayerCount: 2
Back
Fore
SplineSet
95 0.5 m 1
 0 0.5 l 1
 0 384 l 1
 0 479.5 l 1
 95 479.5 l 1
 95 288 l 1
 95 287.5 l 1
 95.4948453608 287.5 l 1
 190.505154639 287.5 l 1
 191 287.5 l 1
 191 288 l 1
 191 480 l 1
 191 480.5 l 1
 190.505154639 480.5 l 1
 95.9896907216 480.5 l 1
 95.9896907216 575.5 l 1
 478 575.5 l 1
 478 480.5 l 1
 382.5 480.5 l 1
 382 480.5 l 1
 382 480 l 1
 382 288 l 1
 382 287.5 l 1
 382.5 287.5 l 1
 478 287.5 l 1
 478 192.5 l 1
 382.5 192.5 l 1
 382 192.5 l 1
 382 192 l 1
 382 96 l 1
 382 95.5 l 1
 382.5 95.5 l 1
 478 95.5 l 1
 478 0.5 l 1
 191 0.5 l 1
 191 192 l 1
 191 192.5 l 1
 190.505154639 192.5 l 1
 95.4948453608 192.5 l 1
 95 192.5 l 1
 95 192 l 1
 95 0.5 l 1
EndSplineSet
EndChar

StartChar: Ccedilla
Encoding: 199 199 133
Width: 575
VWidth: 0
Flags: W
LayerCount: 2
Back
Fore
SplineSet
383 -96 m 1
 288 -96 l 1
 288 -1 l 1
 383 -1 l 1
 383 -96 l 1
192 -97 m 1
 287 -97 l 1
 287 -192 l 1
 192 -192 l 1
 192 -97 l 1
192 480 m 1
 192 575.5 l 1
 479 575.5 l 1
 479 480.5 l 1
 287.5 480.5 l 1
 287 480.5 l 1
 287 480 l 1
 287 96 l 1
 287 95.5 l 1
 287.5 95.5 l 1
 479 95.5 l 1
 479 0.5 l 1
 192 0.5 l 1
 192 96 l 1
 192 96.5 l 1
 191.5 96.5 l 1
 96 96.5 l 1
 96 479.5 l 1
 191.5 479.5 l 1
 192 479.5 l 1
 192 480 l 1
EndSplineSet
EndChar

StartChar: Egrave
Encoding: 200 200 134
Width: 575
VWidth: 0
Flags: W
LayerCount: 2
Back
Fore
SplineSet
288 577 m 1
 288 672 l 1
 383 672 l 1
 383 577 l 1
 288 577 l 1
287 768 m 1
 287 673 l 1
 192 673 l 1
 192 768 l 1
 287 768 l 1
96 0.5 m 1
 96 575.5 l 1
 479 575.5 l 1
 479 480.5 l 1
 287.5 480.5 l 1
 287 480.5 l 1
 287 480 l 1
 287 384 l 1
 287 383.5 l 1
 287.5 383.5 l 1
 383 383.5 l 1
 383 288.5 l 1
 287.5 288.5 l 1
 287 288.5 l 1
 287 288 l 1
 287 96 l 1
 287 95.5 l 1
 287.5 95.5 l 1
 479 95.5 l 1
 479 0.5 l 1
 96 0.5 l 1
EndSplineSet
EndChar

StartChar: Eacute
Encoding: 201 201 135
Width: 575
VWidth: 0
Flags: W
LayerCount: 2
Back
Fore
SplineSet
383 673 m 1
 288 673 l 1
 288 768 l 1
 383 768 l 1
 383 673 l 1
192 672 m 1
 287 672 l 1
 287 577 l 1
 192 577 l 1
 192 672 l 1
96 0.5 m 1
 96 575.5 l 1
 191.5 575.5 l 1
 479 575.5 l 1
 479 480.5 l 1
 287.5 480.5 l 1
 287 480.5 l 1
 287 480 l 1
 287 384 l 1
 287 383.5 l 1
 287.5 383.5 l 1
 383 383.5 l 1
 383 288.5 l 1
 287.5 288.5 l 1
 287 288.5 l 1
 287 288 l 1
 287 96 l 1
 287 95.5 l 1
 287.5 95.5 l 1
 479 95.5 l 1
 479 0.5 l 1
 96 0.5 l 1
EndSplineSet
EndChar

StartChar: Ecircumflex
Encoding: 202 202 136
Width: 575
VWidth: 0
Flags: W
LayerCount: 2
Back
Fore
SplineSet
384 577 m 1
 384 672 l 1
 479 672 l 1
 479 577 l 1
 384 577 l 1
383 768 m 1
 383 673 l 1
 192 673 l 1
 192 768 l 1
 383 768 l 1
96 672 m 1
 191 672 l 1
 191 577 l 1
 96 577 l 1
 96 672 l 1
96 0.5 m 1
 96 575.5 l 1
 479 575.5 l 1
 479 480.5 l 1
 287.5 480.5 l 1
 287 480.5 l 1
 287 480 l 1
 287 384 l 1
 287 383.5 l 1
 287.5 383.5 l 1
 383 383.5 l 1
 383 288.5 l 1
 287.5 288.5 l 1
 287 288.5 l 1
 287 288 l 1
 287 96 l 1
 287 95.5 l 1
 287.5 95.5 l 1
 479 95.5 l 1
 479 0.5 l 1
 96 0.5 l 1
EndSplineSet
EndChar

StartChar: Edieresis
Encoding: 203 203 137
Width: 575
VWidth: 0
Flags: W
LayerCount: 2
Back
Fore
SplineSet
479 673 m 1
 384 673 l 1
 384 768 l 1
 479 768 l 1
 479 673 l 1
287 673 m 1
 192 673 l 1
 192 768 l 1
 287 768 l 1
 287 673 l 1
96 0.5 m 1
 96 575.5 l 1
 479 575.5 l 1
 479 480.5 l 1
 287.5 480.5 l 1
 287 480.5 l 1
 287 480 l 1
 287 384 l 1
 287 383.5 l 1
 287.5 383.5 l 1
 383 383.5 l 1
 383 288.5 l 1
 287.5 288.5 l 1
 287 288.5 l 1
 287 288 l 1
 287 96 l 1
 287 95.5 l 1
 287.5 95.5 l 1
 479 95.5 l 1
 479 0.5 l 1
 96 0.5 l 1
EndSplineSet
EndChar

StartChar: Igrave
Encoding: 204 204 138
Width: 575
VWidth: 0
Flags: W
LayerCount: 2
Back
Fore
SplineSet
288 577 m 1
 288 672 l 1
 383 672 l 1
 383 577 l 1
 288 577 l 1
287 768 m 1
 287 673 l 1
 192 673 l 1
 192 768 l 1
 287 768 l 1
192 0.5 m 1
 192 479.5 l 1
 383 479.5 l 1
 383 0.5 l 1
 192 0.5 l 1
EndSplineSet
EndChar

StartChar: Iacute
Encoding: 205 205 139
Width: 575
VWidth: 0
Flags: W
LayerCount: 2
Back
Fore
SplineSet
383 673 m 1
 288 673 l 1
 288 768 l 1
 383 768 l 1
 383 673 l 1
192 672 m 1
 287 672 l 1
 287 577 l 1
 192 577 l 1
 192 672 l 1
192 0.5 m 1
 192 479.5 l 1
 383 479.5 l 1
 383 0.5 l 1
 192 0.5 l 1
EndSplineSet
EndChar

StartChar: Icircumflex
Encoding: 206 206 140
Width: 575
VWidth: 0
Flags: W
LayerCount: 2
Back
Fore
SplineSet
384 577 m 1
 384 672 l 1
 479 672 l 1
 479 577 l 1
 384 577 l 1
383 768 m 1
 383 673 l 1
 192 673 l 1
 192 768 l 1
 383 768 l 1
96 672 m 1
 191 672 l 1
 191 577 l 1
 96 577 l 1
 96 672 l 1
192 0.5 m 1
 192 479.5 l 1
 383 479.5 l 1
 383 0.5 l 1
 192 0.5 l 1
EndSplineSet
EndChar

StartChar: Idieresis
Encoding: 207 207 141
Width: 575
VWidth: 0
Flags: W
LayerCount: 2
Back
Fore
SplineSet
479 577 m 1
 384 577 l 1
 384 672 l 1
 479 672 l 1
 479 577 l 1
287 577 m 1
 192 577 l 1
 192 672 l 1
 287 672 l 1
 287 577 l 1
192 0.5 m 1
 192 479.5 l 1
 383 479.5 l 1
 383 0.5 l 1
 192 0.5 l 1
EndSplineSet
EndChar

StartChar: Eth
Encoding: 208 208 142
Width: 575
VWidth: 0
Flags: W
LayerCount: 2
Back
Fore
SplineSet
575 96.5 m 1
 480 96.5 l 1
 480 479.5 l 1
 575 479.5 l 1
 575 96.5 l 1
287.5 95.5 m 1
 479 95.5 l 1
 479 0.5 l 1
 96 0.5 l 1
 96 288 l 1
 96 288.5 l 1
 95.5 288.5 l 1
 0 288.5 l 1
 0 383.5 l 1
 95.5 383.5 l 1
 96 383.5 l 1
 96 384 l 1
 96 575.5 l 1
 479 575.5 l 1
 479 480.5 l 1
 287.5 480.5 l 1
 287 480.5 l 1
 287 480 l 1
 287 384 l 1
 287 383.5 l 1
 287.5 383.5 l 1
 383 383.5 l 1
 383 288.5 l 1
 287.5 288.5 l 1
 287 288.5 l 1
 287 288 l 1
 287 96 l 1
 287 95.5 l 1
 287.5 95.5 l 1
EndSplineSet
EndChar

StartChar: Ntilde
Encoding: 209 209 143
Width: 574
VWidth: 0
Flags: W
LayerCount: 2
Back
Fore
SplineSet
574 673 m 1
 479 673 l 1
 479 768 l 1
 574 768 l 1
 574 673 l 1
383.497409326 672 m 1
 478.005181347 672 l 1
 478.005181347 577 l 1
 383.497409326 577 l 1
 383.497409326 672 l 1
382.502590674 768 m 1
 382.502590674 673 l 1
 287.994818653 673 l 1
 287.994818653 768 l 1
 382.502590674 768 l 1
192 672 m 1
 287 672 l 1
 287 577 l 1
 192 577 l 1
 192 672 l 1
383.497409326 192.5 m 1
 383.497409326 287.5 l 1
 478.502590674 287.5 l 1
 479 287.5 l 1
 479 288 l 1
 479 575.5 l 1
 574 575.5 l 1
 574 0.5 l 1
 479 0.5 l 1
 479 192 l 1
 479 192.5 l 1
 478.502590674 192.5 l 1
 383.497409326 192.5 l 1
382.502590674 383.5 m 1
 382.502590674 288.5 l 1
 287.497409326 288.5 l 1
 287 288.5 l 1
 287 288 l 1
 287 0.5 l 1
 96 0.5 l 1
 96 575.5 l 1
 287 575.5 l 1
 287 384 l 1
 287 383.5 l 1
 287.497409326 383.5 l 1
 382.502590674 383.5 l 1
EndSplineSet
EndChar

StartChar: Ograve
Encoding: 210 210 144
Width: 575
VWidth: 0
Flags: W
LayerCount: 2
Back
Fore
SplineSet
288 577 m 1
 288 672 l 1
 383 672 l 1
 383 577 l 1
 288 577 l 1
287 768 m 1
 287 673 l 1
 192 673 l 1
 192 768 l 1
 287 768 l 1
479 96.5 m 1
 384 96.5 l 1
 384 479.5 l 1
 479 479.5 l 1
 479 96.5 l 1
287.5 95.5 m 1
 383 95.5 l 1
 383 0.5 l 1
 192 0.5 l 1
 192 96 l 1
 192 96.5 l 1
 191.5 96.5 l 1
 96 96.5 l 1
 96 479.5 l 1
 191.5 479.5 l 1
 192 479.5 l 1
 192 480 l 1
 192 575.5 l 1
 383 575.5 l 1
 383 480.5 l 1
 287.5 480.5 l 1
 287 480.5 l 1
 287 480 l 1
 287 96 l 1
 287 95.5 l 1
 287.5 95.5 l 1
EndSplineSet
EndChar

StartChar: Oacute
Encoding: 211 211 145
Width: 575
VWidth: 0
Flags: W
LayerCount: 2
Back
Fore
SplineSet
383 673 m 1
 288 673 l 1
 288 768 l 1
 383 768 l 1
 383 673 l 1
192 672 m 1
 287 672 l 1
 287 577 l 1
 192 577 l 1
 192 672 l 1
479 96.5 m 1
 384 96.5 l 1
 384 479.5 l 1
 479 479.5 l 1
 479 96.5 l 1
287.5 95.5 m 1
 383 95.5 l 1
 383 0.5 l 1
 192 0.5 l 1
 192 96 l 1
 192 96.5 l 1
 191.5 96.5 l 1
 96 96.5 l 1
 96 479.5 l 1
 191.5 479.5 l 1
 192 479.5 l 1
 192 480 l 1
 192 575.5 l 1
 383 575.5 l 1
 383 480.5 l 1
 287.5 480.5 l 1
 287 480.5 l 1
 287 480 l 1
 287 96 l 1
 287 95.5 l 1
 287.5 95.5 l 1
EndSplineSet
EndChar

StartChar: Ocircumflex
Encoding: 212 212 146
Width: 575
VWidth: 0
Flags: W
LayerCount: 2
Back
Fore
SplineSet
384 577 m 1
 384 672 l 1
 479 672 l 1
 479 577 l 1
 384 577 l 1
383 768 m 1
 383 673 l 1
 192 673 l 1
 192 768 l 1
 383 768 l 1
96 672 m 1
 191 672 l 1
 191 577 l 1
 96 577 l 1
 96 672 l 1
479 96.5 m 1
 384 96.5 l 1
 384 479.5 l 1
 479 479.5 l 1
 479 96.5 l 1
287.5 95.5 m 1
 383 95.5 l 1
 383 0.5 l 1
 192 0.5 l 1
 192 96 l 1
 192 96.5 l 1
 191.5 96.5 l 1
 96 96.5 l 1
 96 479.5 l 1
 191.5 479.5 l 1
 192 479.5 l 1
 192 480 l 1
 192 575.5 l 1
 383 575.5 l 1
 383 480.5 l 1
 287.5 480.5 l 1
 287 480.5 l 1
 287 480 l 1
 287 96 l 1
 287 95.5 l 1
 287.5 95.5 l 1
EndSplineSet
EndChar

StartChar: Otilde
Encoding: 213 213 147
Width: 575
VWidth: 0
Flags: W
LayerCount: 2
Back
Fore
SplineSet
479 673 m 1
 384 673 l 1
 384 768 l 1
 479 768 l 1
 479 673 l 1
288 672 m 1
 383 672 l 1
 383 577 l 1
 288 577 l 1
 288 672 l 1
287 768 m 1
 287 673 l 1
 192 673 l 1
 192 768 l 1
 287 768 l 1
96 672 m 1
 191 672 l 1
 191 577 l 1
 96 577 l 1
 96 672 l 1
479 96.5 m 1
 384 96.5 l 1
 384 479.5 l 1
 479 479.5 l 1
 479 96.5 l 1
287.5 95.5 m 1
 383 95.5 l 1
 383 0.5 l 1
 192 0.5 l 1
 192 96 l 1
 192 96.5 l 1
 191.5 96.5 l 1
 96 96.5 l 1
 96 479.5 l 1
 191.5 479.5 l 1
 192 479.5 l 1
 192 480 l 1
 192 575.5 l 1
 383 575.5 l 1
 383 480.5 l 1
 287.5 480.5 l 1
 287 480.5 l 1
 287 480 l 1
 287 96 l 1
 287 95.5 l 1
 287.5 95.5 l 1
EndSplineSet
EndChar

StartChar: Odieresis
Encoding: 214 214 148
Width: 575
VWidth: 0
Flags: W
LayerCount: 2
Back
Fore
SplineSet
384 673 m 1
 384 768 l 1
 479 768 l 1
 479 673 l 1
 384 673 l 1
192 673 m 1
 192 768 l 1
 287 768 l 1
 287 673 l 1
 192 673 l 1
479 96.5 m 1
 384 96.5 l 1
 384 479.5 l 1
 479 479.5 l 1
 479 96.5 l 1
287.5 95.5 m 1
 383 95.5 l 1
 383 0.5 l 1
 192 0.5 l 1
 192 96 l 1
 192 96.5 l 1
 191.5 96.5 l 1
 96 96.5 l 1
 96 479.5 l 1
 191.5 479.5 l 1
 192 479.5 l 1
 192 480 l 1
 192 575.5 l 1
 383 575.5 l 1
 383 480.5 l 1
 287.5 480.5 l 1
 287 480.5 l 1
 287 480 l 1
 287 96 l 1
 287 95.5 l 1
 287.5 95.5 l 1
EndSplineSet
EndChar

StartChar: multiply
Encoding: 215 215 149
Width: 574
VWidth: 0
Flags: W
LayerCount: 2
Back
Fore
SplineSet
382.010309278 288.5 m 1
 288.15496134 288.5 l 1
 287.989690722 383.5 l 1
 381.84503866 383.5 l 1
 382.010309278 288.5 l 1
478 384.5 m 1
 383 384.5 l 1
 383 479.5 l 1
 478 479.5 l 1
 478 384.5 l 1
383 192.5 m 1
 383 287.5 l 1
 478 287.5 l 1
 478 192.5 l 1
 383 192.5 l 1
192 287.5 m 1
 287 287.5 l 1
 287 192.5 l 1
 192 192.5 l 1
 192 287.5 l 1
287 479.5 m 1
 287 384.5 l 1
 192 384.5 l 1
 192 479.5 l 1
 287 479.5 l 1
EndSplineSet
EndChar

StartChar: Oslash
Encoding: 216 216 150
Width: 574
VWidth: 0
Flags: W
LayerCount: 2
Back
Fore
SplineSet
574 480.5 m 1
 479 480.5 l 1
 479 575.5 l 1
 574 575.5 l 1
 574 480.5 l 1
383.989690722 479.5 m 1
 478.010309278 479.5 l 1
 479 96.5 l 1
 384 96.5 l 1
 384 288 l 1
 383.989690722 288.5 l 1
 383.494845361 288.5 l 1
 287.5 288.5 l 1
 287 288.5 l 1
 287 288 l 1
 287 96 l 1
 287 95.5 l 1
 287.5 95.5 l 1
 383 95.5 l 1
 383 0.5 l 1
 192 0.5 l 1
 192 96 l 1
 192 96.5 l 1
 191.5 96.5 l 1
 96 96.5 l 1
 96 479.5 l 1
 191.5 479.5 l 1
 192 479.5 l 1
 192 480 l 1
 192 575.5 l 1
 383 575.5 l 1
 383 480.5 l 1
 287.5 480.5 l 1
 287 480.5 l 1
 287 480 l 1
 287 384 l 1
 287 383.5 l 1
 287.5 383.5 l 1
 383.494845361 383.5 l 1
 383.989690722 383.5 l 1
 383.989690722 384 l 1
 383.989690722 479.5 l 1
0 95.5 m 1
 95 95.5 l 1
 95 0.5 l 1
 0 0.5 l 1
 0 95.5 l 1
EndSplineSet
EndChar

StartChar: Ugrave
Encoding: 217 217 151
Width: 574
VWidth: 0
Flags: W
LayerCount: 2
Back
Fore
SplineSet
287.989690722 577 m 1
 287.989690722 672 l 1
 382.010309278 672 l 1
 382.010309278 577 l 1
 287.989690722 577 l 1
287 768 m 1
 287 673 l 1
 192 673 l 1
 192 768 l 1
 287 768 l 1
96 96.5 m 1
 96 575.5 l 1
 287 575.5 l 1
 287 96 l 1
 287 95.5 l 1
 287.494845361 95.5 l 1
 382.505154639 95.5 l 1
 383 95.5 l 1
 383 96 l 1
 383 575.5 l 1
 478 575.5 l 1
 478 0.5 l 1
 192 0.5 l 1
 192 96 l 1
 192 96.5 l 1
 191.5 96.5 l 1
 96 96.5 l 1
EndSplineSet
EndChar

StartChar: Uacute
Encoding: 218 218 152
Width: 574
VWidth: 0
Flags: W
LayerCount: 2
Back
Fore
SplineSet
382.010309278 673 m 1
 287.989690722 673 l 1
 287.989690722 768 l 1
 382.010309278 768 l 1
 382.010309278 673 l 1
192 672 m 1
 287 672 l 1
 287 577 l 1
 192 577 l 1
 192 672 l 1
96 96.5 m 1
 96 575.5 l 1
 287 575.5 l 1
 287 96 l 1
 287 95.5 l 1
 287.494845361 95.5 l 1
 382.505154639 95.5 l 1
 383 95.5 l 1
 383 96 l 1
 383 575.5 l 1
 478 575.5 l 1
 478 0.5 l 1
 192 0.5 l 1
 192 96 l 1
 192 96.5 l 1
 191.5 96.5 l 1
 96 96.5 l 1
EndSplineSet
EndChar

StartChar: Ucircumflex
Encoding: 219 219 153
Width: 574
VWidth: 0
Flags: W
LayerCount: 2
Back
Fore
SplineSet
383 577 m 1
 383 672 l 1
 478 672 l 1
 478 577 l 1
 383 577 l 1
382.010309278 768 m 1
 382.010309278 673 l 1
 192 673 l 1
 192 768 l 1
 382.010309278 768 l 1
96 672 m 1
 191 672 l 1
 191 577 l 1
 96 577 l 1
 96 672 l 1
96 96.5 m 1
 96 575.5 l 1
 287 575.5 l 1
 287 96 l 1
 287 95.5 l 1
 287.494845361 95.5 l 1
 382.505154639 95.5 l 1
 383 95.5 l 1
 383 96 l 1
 383 575.5 l 1
 478 575.5 l 1
 478 0.5 l 1
 192 0.5 l 1
 192 96 l 1
 192 96.5 l 1
 191.5 96.5 l 1
 96 96.5 l 1
EndSplineSet
EndChar

StartChar: Udieresis
Encoding: 220 220 154
Width: 574
VWidth: 0
Flags: W
LayerCount: 2
Back
Fore
SplineSet
478 673 m 1
 383 673 l 1
 383 768 l 1
 478 768 l 1
 478 673 l 1
287 673 m 1
 192 673 l 1
 192 768 l 1
 287 768 l 1
 287 673 l 1
96 96.5 m 1
 96 575.5 l 1
 287 575.5 l 1
 287 96 l 1
 287 95.5 l 1
 287.494845361 95.5 l 1
 382.505154639 95.5 l 1
 383 95.5 l 1
 383 96 l 1
 383 575.5 l 1
 478 575.5 l 1
 478 0.5 l 1
 192 0.5 l 1
 192 96 l 1
 192 96.5 l 1
 191.5 96.5 l 1
 96 96.5 l 1
EndSplineSet
EndChar

StartChar: Yacute
Encoding: 221 221 155
Width: 574
VWidth: 0
Flags: W
LayerCount: 2
Back
Fore
SplineSet
478.003460208 673 m 1
 383.332179931 673 l 1
 383.332179931 768 l 1
 478.003460208 768 l 1
 478.003460208 673 l 1
287.664359862 672 m 1
 382.335640138 672 l 1
 382.335640138 577 l 1
 287.664359862 577 l 1
 287.664359862 672 l 1
574 384.5 m 1
 479 384.5 l 1
 479 575.5 l 1
 574 575.5 l 1
 574 384.5 l 1
383.332179931 383.5 m 1
 478.003460208 383.5 l 1
 478.003460208 288.5 l 1
 383.332179931 288.5 l 1
 383.332179931 383.5 l 1
287.166089965 287.5 m 1
 382.335640138 287.5 l 1
 382.335640138 0.5 l 1
 191.996539792 0.5 l 1
 191.996539792 288 l 1
 191.996539792 288.5 l 1
 191.498269896 288.5 l 1
 96 288.5 l 1
 96 384 l 1
 96 384.5 l 1
 95.5 384.5 l 1
 0 384.5 l 1
 0 575.5 l 1
 191 575.5 l 1
 191 384 l 1
 191 383.5 l 1
 191.498269896 383.5 l 1
 286.667820069 383.5 l 1
 286.667820069 288 l 1
 286.667820069 287.5 l 1
 287.166089965 287.5 l 1
EndSplineSet
EndChar

StartChar: Thorn
Encoding: 222 222 156
Width: 575
VWidth: 0
Flags: W
LayerCount: 2
Back
Fore
SplineSet
479 192.5 m 1
 384 192.5 l 1
 384 383.5 l 1
 479 383.5 l 1
 479 192.5 l 1
287.5 191.5 m 1
 383 191.5 l 1
 383 96.5 l 1
 287.5 96.5 l 1
 287 96.5 l 1
 287 95.9990234375 l 1
 287 -96 l 1
 96 -96 l 1
 96 672 l 1
 287 672 l 1
 287 480.000976562 l 1
 287 479.5 l 1
 287.5 479.5 l 1
 383 479.5 l 1
 383 384.5 l 1
 287.5 384.5 l 1
 287 384.5 l 1
 287 384 l 1
 287 192 l 1
 287 191.5 l 1
 287.5 191.5 l 1
EndSplineSet
EndChar

StartChar: germandbls
Encoding: 223 223 157
Width: 575
VWidth: 0
Flags: W
LayerCount: 2
Back
Fore
SplineSet
288 95.5 m 1
 383 95.5 l 1
 383 0.5 l 1
 288 0.5 l 1
 288 95.5 l 1
479 96.5 m 1
 384 96.5 l 1
 384 383.5 l 1
 479 383.5 l 1
 479 96.5 l 1
383 672 m 1
 383 384.625976562 l 1
 287.5 384.625976562 l 1
 287 384.625976562 l 1
 287 384.125 l 1
 287 95.9169921875 l 1
 287 -0.208984375 l 1
 287 -96 l 1
 96 -96 l 1
 96 576 l 1
 191.5 576 l 1
 192 576 l 1
 192 576.5 l 1
 192 672 l 1
 383 672 l 1
EndSplineSet
EndChar

StartChar: agrave
Encoding: 224 224 158
Width: 574
VWidth: 0
Flags: W
LayerCount: 2
Back
Fore
SplineSet
288 577 m 1
 288 672 l 1
 383 672 l 1
 383 577 l 1
 288 577 l 1
287 768 m 1
 287 673 l 1
 192 673 l 1
 192 768 l 1
 287 768 l 1
479 0.5 m 1
 479 95.5 l 1
 574 95.5 l 1
 574 0.5 l 1
 479 0.5 l 1
96 383.5 m 1
 191 383.5 l 1
 191 96.5 l 1
 96 96.5 l 1
 96 383.5 l 1
287.5 384.5 m 1
 192 384.5 l 1
 192 479.5 l 1
 478.010309278 479.5 l 1
 478.010309278 96.5 l 1
 383.494845361 96.5 l 1
 383 96.5 l 1
 383 96 l 1
 383 0.5 l 1
 192 0.5 l 1
 192 95.5 l 1
 287.5 95.5 l 1
 288 95.5 l 1
 288 96 l 1
 288 384 l 1
 288 384.5 l 1
 287.5 384.5 l 1
EndSplineSet
EndChar

StartChar: aacute
Encoding: 225 225 159
Width: 574
VWidth: 0
Flags: W
LayerCount: 2
Back
Fore
SplineSet
383 673 m 1
 288 673 l 1
 288 768 l 1
 383 768 l 1
 383 673 l 1
192 672 m 1
 287 672 l 1
 287 577 l 1
 192 577 l 1
 192 672 l 1
479 0.5 m 1
 479 95.5 l 1
 574 95.5 l 1
 574 0.5 l 1
 479 0.5 l 1
96 383.5 m 1
 191 383.5 l 1
 191 96.5 l 1
 96 96.5 l 1
 96 383.5 l 1
287.5 384.5 m 1
 192 384.5 l 1
 192 479.5 l 1
 478.010309278 479.5 l 1
 478.010309278 96.5 l 1
 383.494845361 96.5 l 1
 383 96.5 l 1
 383 96 l 1
 383 0.5 l 1
 192 0.5 l 1
 192 95.5 l 1
 287.5 95.5 l 1
 288 95.5 l 1
 288 96 l 1
 288 384 l 1
 288 384.5 l 1
 287.5 384.5 l 1
EndSplineSet
EndChar

StartChar: acircumflex
Encoding: 226 226 160
Width: 574
VWidth: 0
Flags: W
LayerCount: 2
Back
Fore
SplineSet
383.989690722 577 m 1
 383.989690722 672 l 1
 478.010309278 672 l 1
 478.010309278 577 l 1
 383.989690722 577 l 1
383 768 m 1
 383 673 l 1
 192 673 l 1
 192 768 l 1
 383 768 l 1
96 672 m 1
 191 672 l 1
 191 577 l 1
 96 577 l 1
 96 672 l 1
479 0.5 m 1
 479 95.5 l 1
 574 95.5 l 1
 574 0.5 l 1
 479 0.5 l 1
96 383.5 m 1
 191 383.5 l 1
 191 96.5 l 1
 96 96.5 l 1
 96 383.5 l 1
287.5 384.5 m 1
 192 384.5 l 1
 192 479.5 l 1
 478.010309278 479.5 l 1
 478.010309278 96.5 l 1
 383.494845361 96.5 l 1
 383 96.5 l 1
 383 96 l 1
 383 0.5 l 1
 192 0.5 l 1
 192 95.5 l 1
 287.5 95.5 l 1
 288 95.5 l 1
 288 96 l 1
 288 384 l 1
 288 384.5 l 1
 287.5 384.5 l 1
EndSplineSet
EndChar

StartChar: atilde
Encoding: 227 227 161
Width: 574
VWidth: 0
Flags: W
LayerCount: 2
Back
Fore
SplineSet
478.010309278 673 m 1
 383.989690722 673 l 1
 383.989690722 768 l 1
 478.010309278 768 l 1
 478.010309278 673 l 1
288 672 m 1
 383 672 l 1
 383 577 l 1
 288 577 l 1
 288 672 l 1
287 768 m 1
 287 673 l 1
 192 673 l 1
 192 768 l 1
 287 768 l 1
96 672 m 1
 191 672 l 1
 191 577 l 1
 96 577 l 1
 96 672 l 1
479 0.5 m 1
 479 95.5 l 1
 574 95.5 l 1
 574 0.5 l 1
 479 0.5 l 1
96 383.5 m 1
 191 383.5 l 1
 191 96.5 l 1
 96 96.5 l 1
 96 383.5 l 1
287.5 384.5 m 1
 192 384.5 l 1
 192 479.5 l 1
 478.010309278 479.5 l 1
 478.010309278 96.5 l 1
 383.494845361 96.5 l 1
 383 96.5 l 1
 383 96 l 1
 383 0.5 l 1
 192 0.5 l 1
 192 95.5 l 1
 287.5 95.5 l 1
 288 95.5 l 1
 288 96 l 1
 288 384 l 1
 288 384.5 l 1
 287.5 384.5 l 1
EndSplineSet
EndChar

StartChar: adieresis
Encoding: 228 228 162
Width: 574
VWidth: 0
Flags: W
LayerCount: 2
Back
Fore
SplineSet
478.010309278 577 m 1
 383.989690722 577 l 1
 383.989690722 672 l 1
 478.010309278 672 l 1
 478.010309278 577 l 1
287 577 m 1
 192 577 l 1
 192 672 l 1
 287 672 l 1
 287 577 l 1
479 0.5 m 1
 479 95.5 l 1
 574 95.5 l 1
 574 0.5 l 1
 479 0.5 l 1
96 383.5 m 1
 191 383.5 l 1
 191 96.5 l 1
 96 96.5 l 1
 96 383.5 l 1
287.5 384.5 m 1
 192 384.5 l 1
 192 479.5 l 1
 478.010309278 479.5 l 1
 478.010309278 96.5 l 1
 383.494845361 96.5 l 1
 383 96.5 l 1
 383 96 l 1
 383 0.5 l 1
 192 0.5 l 1
 192 95.5 l 1
 287.5 95.5 l 1
 288 95.5 l 1
 288 96 l 1
 288 384 l 1
 288 384.5 l 1
 287.5 384.5 l 1
EndSplineSet
EndChar

StartChar: aring
Encoding: 229 229 163
Width: 574
VWidth: 0
Flags: W
LayerCount: 2
Back
Fore
SplineSet
383.989690722 577 m 1
 383.989690722 672 l 1
 478.010309278 672 l 1
 478.010309278 577 l 1
 383.989690722 577 l 1
383 768 m 1
 383 673 l 1
 288 673 l 1
 288 768 l 1
 383 768 l 1
288 481 m 1
 288 576 l 1
 383 576 l 1
 383 481 l 1
 288 481 l 1
287 672 m 1
 287 577 l 1
 192 577 l 1
 192 672 l 1
 287 672 l 1
479 0.5 m 1
 479 95.5 l 1
 574 95.5 l 1
 574 0.5 l 1
 479 0.5 l 1
96 383.5 m 1
 191 383.5 l 1
 191 96.5 l 1
 96 96.5 l 1
 96 383.5 l 1
287.5 384.5 m 1
 192 384.5 l 1
 192 479.5 l 1
 478.010309278 479.5 l 1
 478.010309278 96.5 l 1
 383.494845361 96.5 l 1
 383 96.5 l 1
 383 96 l 1
 383 0.5 l 1
 192 0.5 l 1
 192 95.5 l 1
 287.5 95.5 l 1
 288 95.5 l 1
 288 96 l 1
 288 384 l 1
 288 384.5 l 1
 287.5 384.5 l 1
EndSplineSet
EndChar

StartChar: ae
Encoding: 230 230 164
Width: 574
VWidth: 0
Flags: W
LayerCount: 2
Back
Fore
SplineSet
383 0.5 m 1
 383 95.5 l 1
 574 95.5 l 1
 574 0.5 l 1
 383 0.5 l 1
0 191.5 m 1
 95 191.5 l 1
 95 96.5 l 1
 0 96.5 l 1
 0 191.5 l 1
191.5 192.5 m 1
 96 192.5 l 1
 96 287.5 l 1
 191.5 287.5 l 1
 192 287.5 l 1
 192 288 l 1
 192 384 l 1
 192 384.5 l 1
 191.5 384.5 l 1
 96 384.5 l 1
 96 479.5 l 1
 478 479.5 l 1
 478 384.5 l 1
 382.505154639 384.5 l 1
 382.010309278 384.5 l 1
 382.010309278 384 l 1
 382.010309278 288 l 1
 382.010309278 287.5 l 1
 382.505154639 287.5 l 1
 478.5 287.5 l 1
 479 287.5 l 1
 479 288 l 1
 479 383.5 l 1
 574 383.5 l 1
 574 192.5 l 1
 382.505154639 192.5 l 1
 382.010309278 192.5 l 1
 382.010309278 192 l 1
 382.010309278 96.5 l 1
 287.494845361 96.5 l 1
 287 96.5 l 1
 287 96 l 1
 287 0.5 l 1
 96 0.5 l 1
 96 95.5 l 1
 191.5 95.5 l 1
 192 95.5 l 1
 192 96 l 1
 192 192 l 1
 192 192.5 l 1
 191.5 192.5 l 1
EndSplineSet
EndChar

StartChar: ccedilla
Encoding: 231 231 165
Width: 575
VWidth: 0
Flags: W
LayerCount: 2
Back
Fore
SplineSet
383 -96 m 1
 288 -96 l 1
 288 -1 l 1
 383 -1 l 1
 383 -96 l 1
192 -97 m 1
 287 -97 l 1
 287 -192 l 1
 192 -192 l 1
 192 -97 l 1
96 96.5 m 1
 96 383.5 l 1
 191.5 383.5 l 1
 192 383.5 l 1
 192 384 l 1
 192 479.5 l 1
 479 479.5 l 1
 479 384.5 l 1
 287.5 384.5 l 1
 287 384.5 l 1
 287 384 l 1
 287 96 l 1
 287 95.5 l 1
 287.5 95.5 l 1
 479 95.5 l 1
 479 0.5 l 1
 192 0.5 l 1
 192 96 l 1
 192 96.5 l 1
 191.5 96.5 l 1
 96 96.5 l 1
EndSplineSet
EndChar

StartChar: egrave
Encoding: 232 232 166
Width: 575
VWidth: 0
Flags: W
LayerCount: 2
Back
Fore
SplineSet
288 577 m 1
 288 672 l 1
 383 672 l 1
 383 577 l 1
 288 577 l 1
287 768 m 1
 287 673 l 1
 192 673 l 1
 192 768 l 1
 287 768 l 1
192 384 m 1
 192 479.5 l 1
 383 479.5 l 1
 383 384.5 l 1
 287.5 384.5 l 1
 287 384.5 l 1
 287 384 l 1
 287 288 l 1
 287 287.5 l 1
 287.5 287.5 l 1
 383.5 287.5 l 1
 384 287.5 l 1
 384 288 l 1
 384 383.5 l 1
 479 383.5 l 1
 479 192.5 l 1
 287.5 192.5 l 1
 287 192.5 l 1
 287 192 l 1
 287 96 l 1
 287 95.5 l 1
 287.5 95.5 l 1
 479 95.5 l 1
 479 0.5 l 1
 192 0.5 l 1
 192 96 l 1
 192 96.5 l 1
 191.5 96.5 l 1
 96 96.5 l 1
 96 383.5 l 1
 191.5 383.5 l 1
 192 383.5 l 1
 192 384 l 1
EndSplineSet
EndChar

StartChar: eacute
Encoding: 233 233 167
Width: 575
VWidth: 0
Flags: W
LayerCount: 2
Back
Fore
SplineSet
383 673 m 1
 288 673 l 1
 288 768 l 1
 383 768 l 1
 383 673 l 1
192 672 m 1
 287 672 l 1
 287 577 l 1
 192 577 l 1
 192 672 l 1
192 384 m 1
 192 479.5 l 1
 383 479.5 l 1
 383 384.5 l 1
 287.5 384.5 l 1
 287 384.5 l 1
 287 384 l 1
 287 288 l 1
 287 287.5 l 1
 287.5 287.5 l 1
 383.5 287.5 l 1
 384 287.5 l 1
 384 288 l 1
 384 383.5 l 1
 479 383.5 l 1
 479 192.5 l 1
 287.5 192.5 l 1
 287 192.5 l 1
 287 192 l 1
 287 96 l 1
 287 95.5 l 1
 287.5 95.5 l 1
 479 95.5 l 1
 479 0.5 l 1
 192 0.5 l 1
 192 96 l 1
 192 96.5 l 1
 191.5 96.5 l 1
 96 96.5 l 1
 96 383.5 l 1
 191.5 383.5 l 1
 192 383.5 l 1
 192 384 l 1
EndSplineSet
EndChar

StartChar: ecircumflex
Encoding: 234 234 168
Width: 575
VWidth: 0
Flags: W
LayerCount: 2
Back
Fore
SplineSet
384 577 m 1
 384 672 l 1
 479 672 l 1
 479 577 l 1
 384 577 l 1
383 768 m 1
 383 673 l 1
 192 673 l 1
 192 768 l 1
 383 768 l 1
96 672 m 1
 191 672 l 1
 191 577 l 1
 96 577 l 1
 96 672 l 1
192 384 m 1
 192 479.5 l 1
 383 479.5 l 1
 383 384.5 l 1
 287.5 384.5 l 1
 287 384.5 l 1
 287 384 l 1
 287 288 l 1
 287 287.5 l 1
 287.5 287.5 l 1
 383.5 287.5 l 1
 384 287.5 l 1
 384 288 l 1
 384 383.5 l 1
 479 383.5 l 1
 479 192.5 l 1
 287.5 192.5 l 1
 287 192.5 l 1
 287 192 l 1
 287 96 l 1
 287 95.5 l 1
 287.5 95.5 l 1
 479 95.5 l 1
 479 0.5 l 1
 192 0.5 l 1
 192 96 l 1
 192 96.5 l 1
 191.5 96.5 l 1
 96 96.5 l 1
 96 383.5 l 1
 191.5 383.5 l 1
 192 383.5 l 1
 192 384 l 1
EndSplineSet
EndChar

StartChar: edieresis
Encoding: 235 235 169
Width: 575
VWidth: 0
Flags: W
LayerCount: 2
Back
Fore
SplineSet
479 577 m 1
 384 577 l 1
 384 672 l 1
 479 672 l 1
 479 577 l 1
287 577 m 1
 192 577 l 1
 192 672 l 1
 287 672 l 1
 287 577 l 1
192 384 m 1
 192 479.5 l 1
 383 479.5 l 1
 383 384.5 l 1
 287.5 384.5 l 1
 287 384.5 l 1
 287 384 l 1
 287 288 l 1
 287 287.5 l 1
 287.5 287.5 l 1
 383.5 287.5 l 1
 384 287.5 l 1
 384 288 l 1
 384 383.5 l 1
 479 383.5 l 1
 479 192.5 l 1
 287.5 192.5 l 1
 287 192.5 l 1
 287 192 l 1
 287 96 l 1
 287 95.5 l 1
 287.5 95.5 l 1
 479 95.5 l 1
 479 0.5 l 1
 192 0.5 l 1
 192 96 l 1
 192 96.5 l 1
 191.5 96.5 l 1
 96 96.5 l 1
 96 383.5 l 1
 191.5 383.5 l 1
 192 383.5 l 1
 192 384 l 1
EndSplineSet
EndChar

StartChar: igrave
Encoding: 236 236 170
Width: 575
VWidth: 0
Flags: W
LayerCount: 2
Back
Fore
SplineSet
288 577 m 1
 288 672 l 1
 383 672 l 1
 383 577 l 1
 288 577 l 1
287 768 m 1
 287 673 l 1
 192 673 l 1
 192 768 l 1
 287 768 l 1
192 0.5 m 1
 192 479.5 l 1
 383 479.5 l 1
 383 0.5 l 1
 192 0.5 l 1
EndSplineSet
EndChar

StartChar: iacute
Encoding: 237 237 171
Width: 575
VWidth: 0
Flags: W
LayerCount: 2
Back
Fore
SplineSet
383 673 m 1
 288 673 l 1
 288 768 l 1
 383 768 l 1
 383 673 l 1
192 672 m 1
 287 672 l 1
 287 577 l 1
 192 577 l 1
 192 672 l 1
192 0.5 m 1
 192 479.5 l 1
 383 479.5 l 1
 383 0.5 l 1
 192 0.5 l 1
EndSplineSet
EndChar

StartChar: icircumflex
Encoding: 238 238 172
Width: 575
VWidth: 0
Flags: W
LayerCount: 2
Back
Fore
SplineSet
384 577 m 1
 384 672 l 1
 479 672 l 1
 479 577 l 1
 384 577 l 1
383 768 m 1
 383 673 l 1
 192 673 l 1
 192 768 l 1
 383 768 l 1
96 672 m 1
 191 672 l 1
 191 577 l 1
 96 577 l 1
 96 672 l 1
192 0.5 m 1
 192 479.5 l 1
 383 479.5 l 1
 383 0.5 l 1
 192 0.5 l 1
EndSplineSet
EndChar

StartChar: idieresis
Encoding: 239 239 173
Width: 575
VWidth: 0
Flags: W
LayerCount: 2
Back
Fore
SplineSet
479 577 m 1
 384 577 l 1
 384 672 l 1
 479 672 l 1
 479 577 l 1
191 577 m 1
 96 577 l 1
 96 672 l 1
 191 672 l 1
 191 577 l 1
192 0.5 m 1
 192 479.5 l 1
 383 479.5 l 1
 383 0.5 l 1
 192 0.5 l 1
EndSplineSet
EndChar

StartChar: eth
Encoding: 240 240 174
Width: 575
VWidth: 0
Flags: W
LayerCount: 2
Back
Fore
SplineSet
96 0.5 m 1
 96 95.5 l 1
 287.333007812 95.5 l 1
 383 95.5 l 1
 383 0.5 l 1
 96 0.5 l 1
95 191.5 m 1
 95 96.5 l 1
 0 96.5 l 1
 0 191.5 l 1
 95 191.5 l 1
287.5 192.5 m 1
 96 192.5 l 1
 96 287.5 l 1
 287.5 287.5 l 1
 288 287.5 l 1
 288 288.000976562 l 1
 288 384.250976562 l 1
 288 384.751953125 l 1
 287.5 384.751953125 l 1
 192 384.751953125 l 1
 192 479.999023438 l 1
 287.5 479.999023438 l 1
 288 479.999023438 l 1
 288 480.5 l 1
 288 576 l 1
 479 576 l 1
 479 480.5 l 1
 479 288.166015625 l 1
 479 96.5 l 1
 383.666992188 96.5 l 1
 288 96.5 l 1
 288 192 l 1
 288 192.5 l 1
 287.5 192.5 l 1
287 672 m 1
 287 577 l 1
 192 577 l 1
 192 672 l 1
 287 672 l 1
EndSplineSet
EndChar

StartChar: ntilde
Encoding: 241 241 175
Width: 574
VWidth: 0
Flags: W
LayerCount: 2
Back
Fore
SplineSet
478 673 m 1
 383 673 l 1
 383 768 l 1
 478 768 l 1
 478 673 l 1
287.989690722 672 m 1
 382.010309278 672 l 1
 382.010309278 577 l 1
 287.989690722 577 l 1
 287.989690722 672 l 1
287 768 m 1
 287 673 l 1
 192 673 l 1
 192 768 l 1
 287 768 l 1
96 672 m 1
 191 672 l 1
 191 577 l 1
 96 577 l 1
 96 672 l 1
383 0.5 m 1
 383 383.5 l 1
 478 383.5 l 1
 478 0.5 l 1
 383 0.5 l 1
382.010309278 479.5 m 1
 382.010309278 384.5 l 1
 287.494845361 384.5 l 1
 287 384.5 l 1
 287 384 l 1
 287 0.5 l 1
 96 0.5 l 1
 96 479.5 l 1
 382.010309278 479.5 l 1
EndSplineSet
EndChar

StartChar: ograve
Encoding: 242 242 176
Width: 575
VWidth: 0
Flags: W
LayerCount: 2
Back
Fore
SplineSet
288 577 m 1
 288 672 l 1
 383 672 l 1
 383 577 l 1
 288 577 l 1
287 768 m 1
 287 673 l 1
 192 673 l 1
 192 768 l 1
 287 768 l 1
479 96.5 m 1
 384 96.5 l 1
 384 383.5 l 1
 479 383.5 l 1
 479 96.5 l 1
287.5 95.5 m 1
 383 95.5 l 1
 383 0.5 l 1
 192 0.5 l 1
 192 96 l 1
 192 96.5 l 1
 191.5 96.5 l 1
 96 96.5 l 1
 96 383.5 l 1
 191.5 383.5 l 1
 192 383.5 l 1
 192 384 l 1
 192 479.5 l 1
 383 479.5 l 1
 383 384.5 l 1
 287.5 384.5 l 1
 287 384.5 l 1
 287 384 l 1
 287 96 l 1
 287 95.5 l 1
 287.5 95.5 l 1
EndSplineSet
EndChar

StartChar: oacute
Encoding: 243 243 177
Width: 575
VWidth: 0
Flags: W
LayerCount: 2
Back
Fore
SplineSet
383 673 m 1
 288 673 l 1
 288 768 l 1
 383 768 l 1
 383 673 l 1
192 672 m 1
 287 672 l 1
 287 577 l 1
 192 577 l 1
 192 672 l 1
479 96.5 m 1
 384 96.5 l 1
 384 383.5 l 1
 479 383.5 l 1
 479 96.5 l 1
287.5 95.5 m 1
 383 95.5 l 1
 383 0.5 l 1
 192 0.5 l 1
 192 96 l 1
 192 96.5 l 1
 191.5 96.5 l 1
 96 96.5 l 1
 96 383.5 l 1
 191.5 383.5 l 1
 192 383.5 l 1
 192 384 l 1
 192 479.5 l 1
 383 479.5 l 1
 383 384.5 l 1
 287.5 384.5 l 1
 287 384.5 l 1
 287 384 l 1
 287 96 l 1
 287 95.5 l 1
 287.5 95.5 l 1
EndSplineSet
EndChar

StartChar: ocircumflex
Encoding: 244 244 178
Width: 575
VWidth: 0
Flags: W
LayerCount: 2
Back
Fore
SplineSet
384 577 m 1
 384 672 l 1
 479 672 l 1
 479 577 l 1
 384 577 l 1
383 768 m 1
 383 673 l 1
 192 673 l 1
 192 768 l 1
 383 768 l 1
96 672 m 1
 191 672 l 1
 191 577 l 1
 96 577 l 1
 96 672 l 1
479 96.5 m 1
 384 96.5 l 1
 384 383.5 l 1
 479 383.5 l 1
 479 96.5 l 1
287.5 95.5 m 1
 383 95.5 l 1
 383 0.5 l 1
 192 0.5 l 1
 192 96 l 1
 192 96.5 l 1
 191.5 96.5 l 1
 96 96.5 l 1
 96 383.5 l 1
 191.5 383.5 l 1
 192 383.5 l 1
 192 384 l 1
 192 479.5 l 1
 383 479.5 l 1
 383 384.5 l 1
 287.5 384.5 l 1
 287 384.5 l 1
 287 384 l 1
 287 96 l 1
 287 95.5 l 1
 287.5 95.5 l 1
EndSplineSet
EndChar

StartChar: otilde
Encoding: 245 245 179
Width: 575
VWidth: 0
Flags: W
LayerCount: 2
Back
Fore
SplineSet
479 673 m 1
 384 673 l 1
 384 768 l 1
 479 768 l 1
 479 673 l 1
288 672 m 1
 383 672 l 1
 383 577 l 1
 288 577 l 1
 288 672 l 1
287 768 m 1
 287 673 l 1
 192 673 l 1
 192 768 l 1
 287 768 l 1
96 672 m 1
 191 672 l 1
 191 577 l 1
 96 577 l 1
 96 672 l 1
479 96.5 m 1
 384 96.5 l 1
 384 383.5 l 1
 479 383.5 l 1
 479 96.5 l 1
287.5 95.5 m 1
 383 95.5 l 1
 383 0.5 l 1
 192 0.5 l 1
 192 96 l 1
 192 96.5 l 1
 191.5 96.5 l 1
 96 96.5 l 1
 96 383.5 l 1
 191.5 383.5 l 1
 192 383.5 l 1
 192 384 l 1
 192 479.5 l 1
 383 479.5 l 1
 383 384.5 l 1
 287.5 384.5 l 1
 287 384.5 l 1
 287 384 l 1
 287 96 l 1
 287 95.5 l 1
 287.5 95.5 l 1
EndSplineSet
EndChar

StartChar: odieresis
Encoding: 246 246 180
Width: 575
VWidth: 0
Flags: W
LayerCount: 2
Back
Fore
SplineSet
479 577 m 1
 384 577 l 1
 384 672 l 1
 479 672 l 1
 479 577 l 1
287 577 m 1
 192 577 l 1
 192 672 l 1
 287 672 l 1
 287 577 l 1
479 96.5 m 1
 384 96.5 l 1
 384 383.5 l 1
 479 383.5 l 1
 479 96.5 l 1
287.5 95.5 m 1
 383 95.5 l 1
 383 0.5 l 1
 192 0.5 l 1
 192 96 l 1
 192 96.5 l 1
 191.5 96.5 l 1
 96 96.5 l 1
 96 383.5 l 1
 191.5 383.5 l 1
 192 383.5 l 1
 192 384 l 1
 192 479.5 l 1
 383 479.5 l 1
 383 384.5 l 1
 287.5 384.5 l 1
 287 384.5 l 1
 287 384 l 1
 287 96 l 1
 287 95.5 l 1
 287.5 95.5 l 1
EndSplineSet
EndChar

StartChar: divide
Encoding: 247 247 181
Width: 575
VWidth: 0
Flags: W
LayerCount: 2
Back
Fore
SplineSet
288 96.5 m 1
 288 191.5 l 1
 383 191.5 l 1
 383 96.5 l 1
 288 96.5 l 1
96 288.5 m 1
 96 383.5 l 1
 575 383.5 l 1
 575 288.5 l 1
 96 288.5 l 1
288 480.5 m 1
 288 575.5 l 1
 383 575.5 l 1
 383 480.5 l 1
 288 480.5 l 1
EndSplineSet
EndChar

StartChar: oslash
Encoding: 248 248 182
Width: 574
VWidth: 0
Flags: W
LayerCount: 2
Back
Fore
SplineSet
574 384.5 m 1
 479 384.5 l 1
 479 479.5 l 1
 574 479.5 l 1
 574 384.5 l 1
383.989690722 383.5 m 1
 478.010309278 383.5 l 1
 479 96.5 l 1
 384 96.5 l 1
 384 192 l 1
 384 192.5 l 1
 383.5 192.5 l 1
 287.5 192.5 l 1
 287 192.5 l 1
 287 192 l 1
 287 96 l 1
 287 95.5 l 1
 287.5 95.5 l 1
 383 95.5 l 1
 383 0.5 l 1
 192 0.5 l 1
 192 96 l 1
 192 96.5 l 1
 191.5 96.5 l 1
 96 96.5 l 1
 96 383.5 l 1
 191.5 383.5 l 1
 192 383.5 l 1
 192 384 l 1
 192 479.5 l 1
 383 479.5 l 1
 383 384.5 l 1
 287.5 384.5 l 1
 287 384.5 l 1
 287 384 l 1
 287 288 l 1
 287 287.5 l 1
 287.5 287.5 l 1
 383.494845361 287.5 l 1
 383.989690722 287.5 l 1
 383.989690722 288 l 1
 383.989690722 383.5 l 1
0 95.5 m 1
 95 95.5 l 1
 95 0.5 l 1
 0 0.5 l 1
 0 95.5 l 1
EndSplineSet
EndChar

StartChar: ugrave
Encoding: 249 249 183
Width: 574
VWidth: 0
Flags: W
LayerCount: 2
Back
Fore
SplineSet
287 577 m 1
 287 672 l 1
 382 672 l 1
 382 577 l 1
 287 577 l 1
286.010309278 768 m 1
 286.010309278 673 l 1
 191.989690722 673 l 1
 191.989690722 768 l 1
 286.010309278 768 l 1
191.989690722 0.5 m 1
 191.989690722 95.5 l 1
 286.505154639 95.5 l 1
 287 95.5 l 1
 287 96 l 1
 287 479.5 l 1
 478 479.5 l 1
 478 0.5 l 1
 191.989690722 0.5 l 1
191 479.5 m 1
 191 96.5 l 1
 96 96.5 l 1
 96 479.5 l 1
 191 479.5 l 1
EndSplineSet
EndChar

StartChar: uacute
Encoding: 250 250 184
Width: 574
VWidth: 0
Flags: W
LayerCount: 2
Back
Fore
SplineSet
382 673 m 1
 287 673 l 1
 287 768 l 1
 382 768 l 1
 382 673 l 1
191.989690722 672 m 1
 286.010309278 672 l 1
 286.010309278 577 l 1
 191.989690722 577 l 1
 191.989690722 672 l 1
191.989690722 0.5 m 1
 191.989690722 95.5 l 1
 286.505154639 95.5 l 1
 287 95.5 l 1
 287 96 l 1
 287 479.5 l 1
 478 479.5 l 1
 478 0.5 l 1
 191.989690722 0.5 l 1
191 479.5 m 1
 191 96.5 l 1
 96 96.5 l 1
 96 479.5 l 1
 191 479.5 l 1
EndSplineSet
EndChar

StartChar: ucircumflex
Encoding: 251 251 185
Width: 574
VWidth: 0
Flags: W
LayerCount: 2
Back
Fore
SplineSet
383 577 m 1
 383 672 l 1
 478 672 l 1
 478 577 l 1
 383 577 l 1
382 768 m 1
 382 673 l 1
 191.989690722 673 l 1
 191.989690722 768 l 1
 382 768 l 1
96 672 m 1
 191 672 l 1
 191 577 l 1
 96 577 l 1
 96 672 l 1
191.989690722 0.5 m 1
 191.989690722 95.5 l 1
 286.505154639 95.5 l 1
 287 95.5 l 1
 287 96 l 1
 287 479.5 l 1
 478 479.5 l 1
 478 0.5 l 1
 191.989690722 0.5 l 1
191 479.5 m 1
 191 96.5 l 1
 96 96.5 l 1
 96 479.5 l 1
 191 479.5 l 1
EndSplineSet
EndChar

StartChar: udieresis
Encoding: 252 252 186
Width: 574
VWidth: 0
Flags: W
LayerCount: 2
Back
Fore
SplineSet
382 577 m 1
 287 577 l 1
 287 672 l 1
 382 672 l 1
 382 577 l 1
191 577 m 1
 96 577 l 1
 96 672 l 1
 191 672 l 1
 191 577 l 1
191.989690722 0.5 m 1
 191.989690722 95.5 l 1
 286.505154639 95.5 l 1
 287 95.5 l 1
 287 96 l 1
 287 479.5 l 1
 478 479.5 l 1
 478 0.5 l 1
 191.989690722 0.5 l 1
191 479.5 m 1
 191 96.5 l 1
 96 96.5 l 1
 96 479.5 l 1
 191 479.5 l 1
EndSplineSet
EndChar

StartChar: yacute
Encoding: 253 253 187
Width: 574
VWidth: 0
Flags: W
LayerCount: 2
Back
Fore
SplineSet
382 673 m 1
 287 673 l 1
 287 768 l 1
 382 768 l 1
 382 673 l 1
191.989690722 672 m 1
 286.010309278 672 l 1
 286.010309278 577 l 1
 191.989690722 577 l 1
 191.989690722 672 l 1
191.989690722 96.5 m 1
 191.989690722 191.5 l 1
 286.505154639 191.5 l 1
 287 191.5 l 1
 287 192 l 1
 287 479.5 l 1
 478 479.5 l 1
 478 0 l 1
 382.5 0 l 1
 382 0 l 1
 382 -0.5 l 1
 382 -96 l 1
 191.989690722 -96 l 1
 191.989690722 -1 l 1
 286.505154639 -1 l 1
 287 -1 l 1
 287 -0.5 l 1
 287 95.9970703125 l 1
 287 96.5 l 1
 286.505154639 96.5 l 1
 191.989690722 96.5 l 1
191 479.5 m 1
 191 192.5 l 1
 96 192.5 l 1
 96 479.5 l 1
 191 479.5 l 1
EndSplineSet
EndChar

StartChar: thorn
Encoding: 254 254 188
Width: 575
VWidth: 0
Flags: W
LayerCount: 2
Back
Fore
SplineSet
479 192.5 m 1
 384 192.5 l 1
 384 287.5 l 1
 479 287.5 l 1
 479 192.5 l 1
287.5 191.5 m 1
 383 191.5 l 1
 383 96.5 l 1
 287.5 96.5 l 1
 287 96.5 l 1
 287 95.9990234375 l 1
 287 -96 l 1
 96 -96 l 1
 96 576 l 1
 287 576 l 1
 287 384.166015625 l 1
 287 383.665039062 l 1
 287.5 383.665039062 l 1
 383 383.665039062 l 1
 383 288.5 l 1
 287.5 288.5 l 1
 287 288.5 l 1
 287 288 l 1
 287 192 l 1
 287 191.5 l 1
 287.5 191.5 l 1
EndSplineSet
EndChar

StartChar: ydieresis
Encoding: 255 255 189
Width: 574
VWidth: 0
Flags: W
LayerCount: 2
Back
Fore
SplineSet
382 577 m 1
 287 577 l 1
 287 672 l 1
 382 672 l 1
 382 577 l 1
191 577 m 1
 96 577 l 1
 96 672 l 1
 191 672 l 1
 191 577 l 1
191.989690722 96.5 m 1
 191.989690722 191.5 l 1
 286.505154639 191.5 l 1
 287 191.5 l 1
 287 192 l 1
 287 479.5 l 1
 478 479.5 l 1
 478 0 l 1
 382.5 0 l 1
 382 0 l 1
 382 -0.5 l 1
 382 -96 l 1
 191.989690722 -96 l 1
 191.989690722 -1 l 1
 286.505154639 -1 l 1
 287 -1 l 1
 287 -0.5 l 1
 287 95.9970703125 l 1
 287 96.5 l 1
 286.505154639 96.5 l 1
 191.989690722 96.5 l 1
191 479.5 m 1
 191 192.5 l 1
 96 192.5 l 1
 96 479.5 l 1
 191 479.5 l 1
EndSplineSet
EndChar

StartChar: Euro
Encoding: 164 8364 256
Width: 576
VWidth: 0
Flags: W
LayerCount: 2
Fore
SplineSet
0.5 0.5 m 1
 0.5 95.5 l 1
 95.5 95.5 l 1
 95.5 0.5 l 1
 0.5 0.5 l 1
EndSplineSet
EndChar

StartChar: uni0185
Encoding: 270 389 270
Width: 575
VWidth: 0
Flags: W
LayerCount: 2
Back
SplineSet
0 8.10546875 m 29
 6.0546875 8.10546875 l 25
 6.0546875 -2.05078125 l 25
 0 -2.05078125 l 25
 0 8.10546875 l 29
EndSplineSet
EndChar

StartChar: pi
Encoding: 401 960 401
Width: 574
VWidth: 0
Flags: W
LayerCount: 2
Back
Fore
SplineSet
383 0.5 m 1
 383 95.5 l 1
 478 95.5 l 1
 478 0.5 l 1
 383 0.5 l 1
382.005181347 384 m 1
 382.005181347 96.5 l 1
 287.497409326 96.5 l 1
 287.497409326 384 l 1
 287.497409326 384.5 l 1
 287 384.5 l 1
 191.497409326 384.5 l 1
 191 384.5 l 1
 191 384 l 1
 191 0.5 l 1
 96 0.5 l 1
 96 384 l 1
 96 384.5 l 1
 95.5 384.5 l 1
 0 384.5 l 1
 0 479.5 l 1
 478 479.5 l 1
 478 384.5 l 1
 382.502590674 384.5 l 1
 382.005181347 384.5 l 1
 382.005181347 384 l 1
EndSplineSet
EndChar

StartChar: arrowup
Encoding: 402 8593 402
Width: 576
VWidth: 0
Flags: W
CounterMasks: 1 0e
LayerCount: 2
Back
Fore
SplineSet
480.5 479.5 m 1
 575.5 479.5 l 1
 575.5 384.5 l 1
 480.5 384.5 l 1
 480.5 479.5 l 1
479.5 480.5 m 1
 384 480.5 l 1
 383.5 480.5 l 1
 383.5 480 l 1
 383.5 0.5 l 1
 288.5 0.5 l 1
 288.5 480 l 1
 288.5 480.5 l 1
 288 480.5 l 1
 192.5 480.5 l 1
 192.5 575.5 l 1
 288 575.5 l 1
 288.5 575.5 l 1
 288.5 576 l 1
 288.5 671.5 l 1
 383.5 671.5 l 1
 383.5 576 l 1
 383.5 575.5 l 1
 384 575.5 l 1
 479.5 575.5 l 1
 479.5 480.5 l 1
191.5 479.5 m 1
 191.5 384.5 l 1
 96.5 384.5 l 1
 96.5 479.5 l 1
 191.5 479.5 l 1
EndSplineSet
EndChar

StartChar: arrowdown
Encoding: 403 8595 403
Width: 576
VWidth: 0
Flags: W
CounterMasks: 1 0e
LayerCount: 2
Back
Fore
SplineSet
480.5 192.5 m 1
 480.5 287.5 l 1
 575.5 287.5 l 1
 575.5 192.5 l 1
 480.5 192.5 l 1
191.5 192.5 m 1
 96.5 192.5 l 1
 96.5 287.5 l 1
 191.5 287.5 l 1
 191.5 192.5 l 1
192.5 191.5 m 1
 288 191.5 l 1
 288.5 191.5 l 1
 288.5 192 l 1
 288.5 671.5 l 1
 383.5 671.5 l 1
 383.5 192 l 1
 383.5 191.5 l 1
 384 191.5 l 1
 479.5 191.5 l 1
 479.5 96.5 l 1
 384 96.5 l 1
 383.5 96.5 l 1
 383.5 96 l 1
 383.5 0.5 l 1
 288.5 0.5 l 1
 288.5 96 l 1
 288.5 96.5 l 1
 288 96.5 l 1
 192.5 96.5 l 1
 192.5 191.5 l 1
EndSplineSet
EndChar

StartChar: lessequal
Encoding: 404 8804 404
Width: 576
VWidth: 0
Flags: W
LayerCount: 2
Back
Fore
SplineSet
192.5 -96.5 m 1
 287.5 -96.5 l 1
 287.5 -191.5 l 1
 192.5 -191.5 l 1
 192.5 -96.5 l 1
191.5 -95.5 m 1
 96.5 -95.5 l 1
 96.5 -0.5 l 1
 191.5 -0.5 l 1
 191.5 -95.5 l 1
95.5 0.5 m 1
 0.5 0.5 l 1
 0.5 95.5 l 1
 95.5 95.5 l 1
 95.5 0.5 l 1
288.5 95.5 m 1
 383.5 95.5 l 1
 383.5 0.5 l 1
 288.5 0.5 l 1
 288.5 95.5 l 1
287.5 96.5 m 1
 192.5 96.5 l 1
 192.5 191.5 l 1
 287.5 191.5 l 1
 287.5 96.5 l 1
191.5 192.5 m 1
 96.5 192.5 l 1
 96.5 287.5 l 1
 191.5 287.5 l 1
 191.5 192.5 l 1
95.5 288.5 m 1
 0.5 288.5 l 1
 0.5 383.5 l 1
 95.5 383.5 l 1
 95.5 288.5 l 1
96.5 384.5 m 1
 96.5 479.5 l 1
 191.5 479.5 l 1
 191.5 384.5 l 1
 96.5 384.5 l 1
192.5 480.5 m 1
 192.5 575.5 l 1
 287.5 575.5 l 1
 287.5 480.5 l 1
 192.5 480.5 l 1
288.5 576.5 m 1
 288.5 671.5 l 1
 383.5 671.5 l 1
 383.5 576.5 l 1
 288.5 576.5 l 1
EndSplineSet
EndChar

StartChar: greaterequal
Encoding: 405 8805 405
Width: 576
VWidth: 0
Flags: W
LayerCount: 2
Back
Fore
SplineSet
287.5 -96.5 m 1
 287.5 -191.5 l 1
 192.5 -191.5 l 1
 192.5 -96.5 l 1
 287.5 -96.5 l 1
288.5 -95.5 m 1
 288.5 -0.5 l 1
 383.5 -0.5 l 1
 383.5 -95.5 l 1
 288.5 -95.5 l 1
384.5 0.5 m 1
 384.5 95.5 l 1
 479.5 95.5 l 1
 479.5 0.5 l 1
 384.5 0.5 l 1
191.5 95.5 m 1
 191.5 0.5 l 1
 96.5 0.5 l 1
 96.5 95.5 l 1
 191.5 95.5 l 1
192.5 96.5 m 1
 192.5 191.5 l 1
 287.5 191.5 l 1
 287.5 96.5 l 1
 192.5 96.5 l 1
288.5 192.5 m 1
 288.5 287.5 l 1
 383.5 287.5 l 1
 383.5 192.5 l 1
 288.5 192.5 l 1
384.5 288.5 m 1
 384.5 383.5 l 1
 479.5 383.5 l 1
 479.5 288.5 l 1
 384.5 288.5 l 1
383.5 384.5 m 1
 288.5 384.5 l 1
 288.5 479.5 l 1
 383.5 479.5 l 1
 383.5 384.5 l 1
287.5 480.5 m 1
 192.5 480.5 l 1
 192.5 575.5 l 1
 287.5 575.5 l 1
 287.5 480.5 l 1
191.5 576.5 m 1
 96.5 576.5 l 1
 96.5 671.5 l 1
 191.5 671.5 l 1
 191.5 576.5 l 1
EndSplineSet
EndChar

StartChar: SF100000
Encoding: 406 9472 406
Width: 576
VWidth: 0
Flags: W
LayerCount: 2
Back
Fore
SplineSet
0.5 383.5 m 1
 575.5 383.5 l 1
 575.5 288.5 l 1
 0.5 288.5 l 1
 0.5 383.5 l 1
EndSplineSet
EndChar

StartChar: uni2501
Encoding: 407 9473 407
Width: 576
VWidth: 0
Flags: W
LayerCount: 2
Back
Fore
SplineSet
0.5 383.5 m 1
 575.5 383.5 l 1
 575.5 192.5 l 1
 0.5 192.5 l 1
 0.5 383.5 l 1
EndSplineSet
EndChar

StartChar: SF110000
Encoding: 408 9474 408
Width: 576
VWidth: 0
Flags: W
LayerCount: 2
Back
Fore
SplineSet
192.5 767.5 m 1
 287.5 767.5 l 1
 287.5 -191.5 l 1
 192.5 -191.5 l 1
 192.5 767.5 l 1
EndSplineSet
EndChar

StartChar: uni2503
Encoding: 409 9475 409
Width: 576
VWidth: 0
Flags: W
LayerCount: 2
Back
Fore
SplineSet
192.5 767.5 m 1
 383.5 767.5 l 1
 383.5 -191.5 l 1
 192.5 -191.5 l 1
 192.5 767.5 l 1
EndSplineSet
EndChar

StartChar: uni2504
Encoding: 410 9476 410
Width: 576
VWidth: 0
Flags: W
CounterMasks: 1 70
LayerCount: 2
Back
Fore
SplineSet
479.5 288.5 m 1
 384.5 288.5 l 1
 384.5 383.5 l 1
 479.5 383.5 l 1
 479.5 288.5 l 1
287.5 383.5 m 1
 287.5 288.5 l 1
 192.5 288.5 l 1
 192.5 383.5 l 1
 287.5 383.5 l 1
0.5 383.5 m 1
 95.5 383.5 l 1
 95.5 288.5 l 1
 0.5 288.5 l 1
 0.5 383.5 l 1
EndSplineSet
EndChar

StartChar: uni2505
Encoding: 411 9477 411
Width: 576
VWidth: 0
Flags: W
CounterMasks: 1 70
LayerCount: 2
Back
Fore
SplineSet
384.5 383.5 m 1
 479.5 383.5 l 1
 479.5 192.5 l 1
 384.5 192.5 l 1
 384.5 383.5 l 1
192.5 383.5 m 1
 287.5 383.5 l 1
 287.5 192.5 l 1
 192.5 192.5 l 1
 192.5 383.5 l 1
0.5 383.5 m 1
 95.5 383.5 l 1
 95.5 192.5 l 1
 0.5 192.5 l 1
 0.5 383.5 l 1
EndSplineSet
EndChar

StartChar: uni2506
Encoding: 412 9478 412
Width: 576
VWidth: 0
Flags: W
LayerCount: 2
Back
Fore
SplineSet
192.5 -0.5 m 1
 287.5 -0.5 l 1
 287.5 -191.5 l 1
 192.5 -191.5 l 1
 192.5 -0.5 l 1
192.5 479.5 m 1
 287.5 479.5 l 1
 287.5 96.5 l 1
 192.5 96.5 l 1
 192.5 479.5 l 1
192.5 767.5 m 1
 287.5 767.5 l 1
 287.5 576.5 l 1
 192.5 576.5 l 1
 192.5 767.5 l 1
EndSplineSet
EndChar

StartChar: uni2507
Encoding: 413 9479 413
Width: 576
VWidth: 0
Flags: W
LayerCount: 2
Back
Fore
SplineSet
192.5 -0.5 m 1
 383.5 -0.5 l 1
 383.5 -191.5 l 1
 192.5 -191.5 l 1
 192.5 -0.5 l 1
192.5 479.5 m 1
 383.5 479.5 l 1
 383.5 96.5 l 1
 192.5 96.5 l 1
 192.5 479.5 l 1
192.5 767.5 m 1
 383.5 767.5 l 1
 383.5 576.5 l 1
 192.5 576.5 l 1
 192.5 767.5 l 1
EndSplineSet
EndChar

StartChar: uni2508
Encoding: 414 9480 414
Width: 576
VWidth: 0
Flags: W
CounterMasks: 1 70
LayerCount: 2
Back
Fore
SplineSet
384.5 383.5 m 1
 479.5 383.5 l 1
 479.5 288.5 l 1
 384.5 288.5 l 1
 384.5 383.5 l 1
192.5 383.5 m 1
 287.5 383.5 l 1
 287.5 288.5 l 1
 192.5 288.5 l 1
 192.5 383.5 l 1
0.5 383.5 m 1
 95.5 383.5 l 1
 95.5 288.5 l 1
 0.5 288.5 l 1
 0.5 383.5 l 1
EndSplineSet
EndChar

StartChar: uni2509
Encoding: 415 9481 415
Width: 576
VWidth: 0
Flags: W
CounterMasks: 1 70
LayerCount: 2
Back
Fore
SplineSet
384.5 383.5 m 1
 479.5 383.5 l 1
 479.5 192.5 l 1
 384.5 192.5 l 1
 384.5 383.5 l 1
192.5 383.5 m 1
 287.5 383.5 l 1
 287.5 192.5 l 1
 192.5 192.5 l 1
 192.5 383.5 l 1
0.5 383.5 m 1
 95.5 383.5 l 1
 95.5 192.5 l 1
 0.5 192.5 l 1
 0.5 383.5 l 1
EndSplineSet
EndChar

StartChar: uni250A
Encoding: 416 9482 416
Width: 576
VWidth: 0
Flags: W
LayerCount: 2
Back
Fore
SplineSet
192.5 -96.5 m 1
 287.5 -96.5 l 1
 287.5 -191.5 l 1
 192.5 -191.5 l 1
 192.5 -96.5 l 1
192.5 191.5 m 1
 287.5 191.5 l 1
 287.5 0.5 l 1
 192.5 0.5 l 1
 192.5 191.5 l 1
192.5 479.5 m 1
 287.5 479.5 l 1
 287.5 288.5 l 1
 192.5 288.5 l 1
 192.5 479.5 l 1
192.5 767.5 m 1
 287.5 767.5 l 1
 287.5 576.5 l 1
 192.5 576.5 l 1
 192.5 767.5 l 1
EndSplineSet
EndChar

StartChar: uni250B
Encoding: 417 9483 417
Width: 576
VWidth: 0
Flags: W
LayerCount: 2
Back
Fore
SplineSet
192.5 -96.5 m 1
 383.5 -96.5 l 1
 383.5 -191.5 l 1
 192.5 -191.5 l 1
 192.5 -96.5 l 1
192.5 191.5 m 1
 383.5 191.5 l 1
 383.5 0.5 l 1
 192.5 0.5 l 1
 192.5 191.5 l 1
192.5 479.5 m 1
 383.5 479.5 l 1
 383.5 288.5 l 1
 192.5 288.5 l 1
 192.5 479.5 l 1
192.5 767.5 m 1
 383.5 767.5 l 1
 383.5 576.5 l 1
 192.5 576.5 l 1
 192.5 767.5 l 1
EndSplineSet
EndChar

StartChar: SF010000
Encoding: 418 9484 418
Width: 576
VWidth: 0
Flags: W
LayerCount: 2
Back
Fore
SplineSet
192.5 383.5 m 1
 575.5 383.5 l 1
 575.5 288.5 l 1
 288 288.5 l 1
 287.5 288.5 l 1
 287.5 288 l 1
 287.5 -191.5 l 1
 192.5 -191.5 l 1
 192.5 383.5 l 1
EndSplineSet
EndChar

StartChar: uni250D
Encoding: 419 9485 419
Width: 576
VWidth: 0
Flags: W
LayerCount: 2
Back
Fore
SplineSet
192.5 383.5 m 1
 575.5 383.5 l 1
 575.5 192.5 l 1
 288 192.5 l 1
 287.5 192.5 l 1
 287.5 192 l 1
 287.5 -191.5 l 1
 192.5 -191.5 l 1
 192.5 383.5 l 1
EndSplineSet
EndChar

StartChar: uni250E
Encoding: 420 9486 420
Width: 576
VWidth: 0
Flags: W
LayerCount: 2
Back
Fore
SplineSet
192.5 383.5 m 1
 575.5 383.5 l 1
 575.5 288.5 l 1
 384 288.5 l 1
 383.5 288.5 l 1
 383.5 288 l 1
 383.5 -191.5 l 1
 192.5 -191.5 l 1
 192.5 383.5 l 1
EndSplineSet
EndChar

StartChar: uni250F
Encoding: 421 9487 421
Width: 576
VWidth: 0
Flags: W
LayerCount: 2
Back
Fore
SplineSet
192.5 383.5 m 1
 575.5 383.5 l 1
 575.5 192.5 l 1
 384 192.5 l 1
 383.5 192.5 l 1
 383.5 192 l 1
 383.5 -191.5 l 1
 192.5 -191.5 l 1
 192.5 383.5 l 1
EndSplineSet
EndChar

StartChar: SF030000
Encoding: 422 9488 422
Width: 576
VWidth: 0
Flags: W
LayerCount: 2
Back
Fore
SplineSet
0.5 383.5 m 1
 287.5 383.5 l 1
 287.5 -191.5 l 1
 192.5 -191.5 l 1
 192.5 288 l 1
 192.5 288.5 l 1
 192 288.5 l 1
 0.5 288.5 l 1
 0.5 383.5 l 1
EndSplineSet
EndChar

StartChar: uni2511
Encoding: 423 9489 423
Width: 576
VWidth: 0
Flags: W
LayerCount: 2
Back
Fore
SplineSet
0.5 383.5 m 1
 287.5 383.5 l 1
 287.5 -191.5 l 1
 192.5 -191.5 l 1
 192.5 192 l 1
 192.5 192.5 l 1
 192 192.5 l 1
 0.5 192.5 l 1
 0.5 383.5 l 1
EndSplineSet
EndChar

StartChar: uni2512
Encoding: 424 9490 424
Width: 576
VWidth: 0
Flags: W
LayerCount: 2
Back
Fore
SplineSet
0.5 383.5 m 1
 383.5 383.5 l 1
 383.5 -191.5 l 1
 192.5 -191.5 l 1
 192.5 288 l 1
 192.5 288.5 l 1
 192 288.5 l 1
 0.5 288.5 l 1
 0.5 383.5 l 1
EndSplineSet
EndChar

StartChar: uni2513
Encoding: 425 9491 425
Width: 576
VWidth: 0
Flags: W
LayerCount: 2
Back
Fore
SplineSet
0.5 383.5 m 1
 383.5 383.5 l 1
 383.5 -191.5 l 1
 192.5 -191.5 l 1
 192.5 192 l 1
 192.5 192.5 l 1
 192 192.5 l 1
 0.5 192.5 l 1
 0.5 383.5 l 1
EndSplineSet
EndChar

StartChar: SF020000
Encoding: 426 9492 426
Width: 576
VWidth: 0
Flags: W
LayerCount: 2
Back
Fore
SplineSet
192.5 767.5 m 1
 287.5 767.5 l 1
 287.5 384 l 1
 287.5 383.5 l 1
 288 383.5 l 1
 575.5 383.5 l 1
 575.5 288.5 l 1
 192.5 288.5 l 1
 192.5 767.5 l 1
EndSplineSet
EndChar

StartChar: uni2515
Encoding: 427 9493 427
Width: 576
VWidth: 0
Flags: W
LayerCount: 2
Back
Fore
SplineSet
192.5 767.5 m 1
 287.5 767.5 l 1
 287.5 384 l 1
 287.5 383.5 l 1
 288 383.5 l 1
 575.5 383.5 l 1
 575.5 192.5 l 1
 192.5 192.5 l 1
 192.5 767.5 l 1
EndSplineSet
EndChar

StartChar: uni2516
Encoding: 428 9494 428
Width: 576
VWidth: 0
Flags: W
LayerCount: 2
Back
Fore
SplineSet
192.5 767.5 m 1
 383.5 767.5 l 1
 383.5 384 l 1
 383.5 383.5 l 1
 384 383.5 l 1
 575.5 383.5 l 1
 575.5 288.5 l 1
 192.5 288.5 l 1
 192.5 767.5 l 1
EndSplineSet
EndChar

StartChar: uni2517
Encoding: 429 9495 429
Width: 576
VWidth: 0
Flags: W
LayerCount: 2
Back
Fore
SplineSet
192.5 767.5 m 1
 383.5 767.5 l 1
 383.5 384 l 1
 383.5 383.5 l 1
 384 383.5 l 1
 575.5 383.5 l 1
 575.5 192.5 l 1
 192.5 192.5 l 1
 192.5 767.5 l 1
EndSplineSet
EndChar

StartChar: SF040000
Encoding: 430 9496 430
Width: 576
VWidth: 0
Flags: W
LayerCount: 2
Back
Fore
SplineSet
192.5 767.5 m 1
 287.5 767.5 l 1
 287.5 288.5 l 1
 0.5 288.5 l 1
 0.5 383.5 l 1
 192 383.5 l 1
 192.5 383.5 l 1
 192.5 384 l 1
 192.5 767.5 l 1
EndSplineSet
EndChar

StartChar: uni2519
Encoding: 431 9497 431
Width: 576
VWidth: 0
Flags: W
LayerCount: 2
Back
Fore
SplineSet
192.5 767.5 m 1
 287.5 767.5 l 1
 287.5 192.5 l 1
 0.5 192.5 l 1
 0.5 383.5 l 1
 192 383.5 l 1
 192.5 383.5 l 1
 192.5 384 l 1
 192.5 767.5 l 1
EndSplineSet
EndChar

StartChar: uni251A
Encoding: 432 9498 432
Width: 576
VWidth: 0
Flags: W
LayerCount: 2
Back
Fore
SplineSet
192.5 767.5 m 1
 383.5 767.5 l 1
 383.5 288.5 l 1
 0.5 288.5 l 1
 0.5 383.5 l 1
 192 383.5 l 1
 192.5 383.5 l 1
 192.5 384 l 1
 192.5 767.5 l 1
EndSplineSet
EndChar

StartChar: uni251B
Encoding: 433 9499 433
Width: 576
VWidth: 0
Flags: W
LayerCount: 2
Back
Fore
SplineSet
192.5 767.5 m 1
 383.5 767.5 l 1
 383.5 192.5 l 1
 0.5 192.5 l 1
 0.5 383.5 l 1
 192 383.5 l 1
 192.5 383.5 l 1
 192.5 384 l 1
 192.5 767.5 l 1
EndSplineSet
EndChar

StartChar: SF080000
Encoding: 434 9500 434
Width: 576
VWidth: 0
Flags: W
LayerCount: 2
Back
Fore
SplineSet
192.5 767.5 m 1
 287.5 767.5 l 1
 287.5 384 l 1
 287.5 383.5 l 1
 288 383.5 l 1
 575.5 383.5 l 1
 575.5 288.5 l 1
 288 288.5 l 1
 287.5 288.5 l 1
 287.5 288 l 1
 287.5 -191.5 l 1
 192.5 -191.5 l 1
 192.5 767.5 l 1
EndSplineSet
EndChar

StartChar: uni251D
Encoding: 435 9501 435
Width: 576
VWidth: 0
Flags: W
LayerCount: 2
Back
Fore
SplineSet
192.5 767.5 m 1
 287.5 767.5 l 1
 287.5 384 l 1
 287.5 383.5 l 1
 288 383.5 l 1
 575.5 383.5 l 1
 575.5 192.5 l 1
 288 192.5 l 1
 287.5 192.5 l 1
 287.5 192 l 1
 287.5 -191.5 l 1
 192.5 -191.5 l 1
 192.5 767.5 l 1
EndSplineSet
EndChar

StartChar: uni251E
Encoding: 436 9502 436
Width: 576
VWidth: 0
Flags: W
LayerCount: 2
Back
Fore
SplineSet
192.5 767.5 m 1
 383.5 767.5 l 1
 383.5 384 l 1
 383.5 383.5 l 1
 384 383.5 l 1
 575.5 383.5 l 1
 575.5 288.5 l 1
 288 288.5 l 1
 287.5 288.5 l 1
 287.5 288 l 1
 287.5 -191.5 l 1
 192.5 -191.5 l 1
 192.5 767.5 l 1
EndSplineSet
EndChar

StartChar: uni251F
Encoding: 437 9503 437
Width: 576
VWidth: 0
Flags: W
LayerCount: 2
Back
Fore
SplineSet
192.5 767.5 m 1
 287.5 767.5 l 1
 287.5 384 l 1
 287.5 383.5 l 1
 288 383.5 l 1
 575.5 383.5 l 1
 575.5 288.5 l 1
 384 288.5 l 1
 383.5 288.5 l 1
 383.5 288 l 1
 383.5 -191.5 l 1
 192.5 -191.5 l 1
 192.5 767.5 l 1
EndSplineSet
EndChar

StartChar: uni2520
Encoding: 438 9504 438
Width: 576
VWidth: 0
Flags: W
LayerCount: 2
Back
Fore
SplineSet
192.5 767.5 m 1
 383.5 767.5 l 1
 383.5 384 l 1
 383.5 383.5 l 1
 384 383.5 l 1
 575.5 383.5 l 1
 575.5 288.5 l 1
 384 288.5 l 1
 383.5 288.5 l 1
 383.5 288 l 1
 383.5 -191.5 l 1
 192.5 -191.5 l 1
 192.5 767.5 l 1
EndSplineSet
EndChar

StartChar: uni2521
Encoding: 439 9505 439
Width: 576
VWidth: 0
Flags: W
LayerCount: 2
Back
Fore
SplineSet
192.5 767.5 m 1
 383.5 767.5 l 1
 383.5 384 l 1
 383.5 383.5 l 1
 384 383.5 l 1
 575.5 383.5 l 1
 575.5 192.5 l 1
 288 192.5 l 1
 287.5 192.5 l 1
 287.5 192 l 1
 287.5 -191.5 l 1
 192.5 -191.5 l 1
 192.5 767.5 l 1
EndSplineSet
EndChar

StartChar: uni2522
Encoding: 440 9506 440
Width: 576
VWidth: 0
Flags: W
LayerCount: 2
Back
Fore
SplineSet
192.5 767.5 m 1
 287.5 767.5 l 1
 287.5 384 l 1
 287.5 383.5 l 1
 288 383.5 l 1
 575.5 383.5 l 1
 575.5 192.5 l 1
 384 192.5 l 1
 383.5 192.5 l 1
 383.5 192 l 1
 383.5 -191.5 l 1
 192.5 -191.5 l 1
 192.5 767.5 l 1
EndSplineSet
EndChar

StartChar: uni2523
Encoding: 441 9507 441
Width: 576
VWidth: 0
Flags: W
LayerCount: 2
Back
Fore
SplineSet
192.5 767.5 m 1
 383.5 767.5 l 1
 383.5 384 l 1
 383.5 383.5 l 1
 384 383.5 l 1
 575.5 383.5 l 1
 575.5 192.5 l 1
 384 192.5 l 1
 383.5 192.5 l 1
 383.5 192 l 1
 383.5 -191.5 l 1
 192.5 -191.5 l 1
 192.5 767.5 l 1
EndSplineSet
EndChar

StartChar: SF090000
Encoding: 442 9508 442
Width: 576
VWidth: 0
Flags: W
LayerCount: 2
Back
Fore
SplineSet
192.5 767.5 m 1
 287.5 767.5 l 1
 287.5 -191.5 l 1
 192.5 -191.5 l 1
 192.5 288 l 1
 192.5 288.5 l 1
 192 288.5 l 1
 0.5 288.5 l 1
 0.5 383.5 l 1
 192 383.5 l 1
 192.5 383.5 l 1
 192.5 384 l 1
 192.5 767.5 l 1
EndSplineSet
EndChar

StartChar: uni2525
Encoding: 443 9509 443
Width: 576
VWidth: 0
Flags: W
LayerCount: 2
Back
Fore
SplineSet
192.5 767.5 m 1
 287.5 767.5 l 1
 287.5 -191.5 l 1
 192.5 -191.5 l 1
 192.5 192 l 1
 192.5 192.5 l 1
 192 192.5 l 1
 0.5 192.5 l 1
 0.5 383.5 l 1
 192 383.5 l 1
 192.5 383.5 l 1
 192.5 384 l 1
 192.5 767.5 l 1
EndSplineSet
EndChar

StartChar: uni2526
Encoding: 444 9510 444
Width: 576
VWidth: 0
Flags: W
LayerCount: 2
Back
Fore
SplineSet
192.5 767.5 m 1
 383.5 767.5 l 1
 383.5 384.5 l 1
 288 384.5 l 1
 287.5 384.5 l 1
 287.5 384 l 1
 287.5 -191.5 l 1
 192.5 -191.5 l 1
 192.5 288 l 1
 192.5 288.5 l 1
 192 288.5 l 1
 0.5 288.5 l 1
 0.5 383.5 l 1
 192 383.5 l 1
 192.5 383.5 l 1
 192.5 384 l 1
 192.5 767.5 l 1
EndSplineSet
EndChar

StartChar: uni2527
Encoding: 445 9511 445
Width: 576
VWidth: 0
Flags: W
LayerCount: 2
Back
Fore
SplineSet
192.5 767.5 m 1
 287.5 767.5 l 1
 287.5 288 l 1
 287.5 287.5 l 1
 288 287.5 l 1
 383.5 287.5 l 1
 383.5 -191.5 l 1
 192.5 -191.5 l 1
 192.5 288 l 1
 192.5 288.5 l 1
 192 288.5 l 1
 0.5 288.5 l 1
 0.5 383.5 l 1
 192 383.5 l 1
 192.5 383.5 l 1
 192.5 384 l 1
 192.5 767.5 l 1
EndSplineSet
EndChar

StartChar: uni2528
Encoding: 446 9512 446
Width: 576
VWidth: 0
Flags: W
LayerCount: 2
Back
Fore
SplineSet
192.5 767.5 m 1
 383.5 767.5 l 1
 383.5 -191.5 l 1
 192.5 -191.5 l 1
 192.5 288 l 1
 192.5 288.5 l 1
 192 288.5 l 1
 0.5 288.5 l 1
 0.5 383.5 l 1
 192 383.5 l 1
 192.5 383.5 l 1
 192.5 384 l 1
 192.5 767.5 l 1
EndSplineSet
EndChar

StartChar: uni2529
Encoding: 447 9513 447
Width: 576
VWidth: 0
Flags: W
LayerCount: 2
Back
Fore
SplineSet
192.5 767.5 m 1
 383.5 767.5 l 1
 383.5 192.5 l 1
 288 192.5 l 1
 287.5 192.5 l 1
 287.5 192 l 1
 287.5 -191.5 l 1
 192.5 -191.5 l 1
 192.5 192 l 1
 192.5 192.5 l 1
 192 192.5 l 1
 0.5 192.5 l 1
 0.5 383.5 l 1
 192 383.5 l 1
 192.5 383.5 l 1
 192.5 384 l 1
 192.5 767.5 l 1
EndSplineSet
EndChar

StartChar: uni252A
Encoding: 448 9514 448
Width: 576
VWidth: 0
Flags: W
LayerCount: 2
Back
Fore
SplineSet
192.5 767.5 m 1
 287.5 767.5 l 1
 287.5 384 l 1
 287.5 383.5 l 1
 288 383.5 l 1
 383.5 383.5 l 1
 383.5 -191.5 l 1
 192.5 -191.5 l 1
 192.5 192 l 1
 192.5 192.5 l 1
 192 192.5 l 1
 0.5 192.5 l 1
 0.5 383.5 l 1
 192 383.5 l 1
 192.5 383.5 l 1
 192.5 384 l 1
 192.5 767.5 l 1
EndSplineSet
EndChar

StartChar: uni252B
Encoding: 449 9515 449
Width: 576
VWidth: 0
Flags: W
LayerCount: 2
Back
Fore
SplineSet
192.5 767.5 m 1
 383.5 767.5 l 1
 383.5 -191.5 l 1
 192.5 -191.5 l 1
 192.5 192 l 1
 192.5 192.5 l 1
 192 192.5 l 1
 0.5 192.5 l 1
 0.5 383.5 l 1
 192 383.5 l 1
 192.5 383.5 l 1
 192.5 384 l 1
 192.5 767.5 l 1
EndSplineSet
EndChar

StartChar: SF060000
Encoding: 450 9516 450
Width: 576
VWidth: 0
Flags: W
LayerCount: 2
Back
Fore
SplineSet
0.5 383.5 m 1
 575.5 383.5 l 1
 575.5 288.5 l 1
 288 288.5 l 1
 287.5 288.5 l 1
 287.5 288 l 1
 287.5 -191.5 l 1
 192.5 -191.5 l 1
 192.5 288 l 1
 192.5 288.5 l 1
 192 288.5 l 1
 0.5 288.5 l 1
 0.5 383.5 l 1
EndSplineSet
EndChar

StartChar: uni252D
Encoding: 451 9517 451
Width: 576
VWidth: 0
Flags: W
LayerCount: 2
Back
Fore
SplineSet
0.5 383.5 m 1
 575.5 383.5 l 1
 575.5 288.5 l 1
 288 288.5 l 1
 287.5 288.5 l 1
 287.5 288 l 1
 287.5 -191.5 l 1
 192.5 -191.5 l 1
 192.5 192 l 1
 192.5 192.5 l 1
 192 192.5 l 1
 0.5 192.5 l 1
 0.5 383.5 l 1
EndSplineSet
EndChar

StartChar: uni252E
Encoding: 452 9518 452
Width: 576
VWidth: 0
Flags: W
LayerCount: 2
Back
Fore
SplineSet
0.5 383.5 m 1
 575.5 383.5 l 1
 575.5 192.5 l 1
 288 192.5 l 1
 287.5 192.5 l 1
 287.5 192 l 1
 287.5 -191.5 l 1
 192.5 -191.5 l 1
 192.5 288 l 1
 192.5 288.5 l 1
 192 288.5 l 1
 0.5 288.5 l 1
 0.5 383.5 l 1
EndSplineSet
EndChar

StartChar: uni252F
Encoding: 453 9519 453
Width: 576
VWidth: 0
Flags: W
LayerCount: 2
Back
Fore
SplineSet
0.5 383.5 m 1
 575.5 383.5 l 1
 575.5 192.5 l 1
 288 192.5 l 1
 287.5 192.5 l 1
 287.5 192 l 1
 287.5 -191.5 l 1
 192.5 -191.5 l 1
 192.5 192 l 1
 192.5 192.5 l 1
 192 192.5 l 1
 0.5 192.5 l 1
 0.5 383.5 l 1
EndSplineSet
EndChar

StartChar: uni2530
Encoding: 454 9520 454
Width: 576
VWidth: 0
Flags: W
LayerCount: 2
Back
Fore
SplineSet
0.5 383.5 m 1
 575.5 383.5 l 1
 575.5 288.5 l 1
 384 288.5 l 1
 383.5 288.5 l 1
 383.5 288 l 1
 383.5 -191.5 l 1
 192.5 -191.5 l 1
 192.5 288 l 1
 192.5 288.5 l 1
 192 288.5 l 1
 0.5 288.5 l 1
 0.5 383.5 l 1
EndSplineSet
EndChar

StartChar: uni2531
Encoding: 455 9521 455
Width: 576
VWidth: 0
Flags: W
LayerCount: 2
Back
Fore
SplineSet
0.5 383.5 m 1
 575.5 383.5 l 1
 575.5 288.5 l 1
 384 288.5 l 1
 383.5 288.5 l 1
 383.5 288 l 1
 383.5 -191.5 l 1
 192.5 -191.5 l 1
 192.5 192 l 1
 192.5 192.5 l 1
 192 192.5 l 1
 0.5 192.5 l 1
 0.5 383.5 l 1
EndSplineSet
EndChar

StartChar: uni2532
Encoding: 456 9522 456
Width: 576
VWidth: 0
Flags: W
LayerCount: 2
Back
Fore
SplineSet
0.5 383.5 m 1
 575.5 383.5 l 1
 575.5 192.5 l 1
 384 192.5 l 1
 383.5 192.5 l 1
 383.5 192 l 1
 383.5 -191.5 l 1
 192.5 -191.5 l 1
 192.5 288 l 1
 192.5 288.5 l 1
 192 288.5 l 1
 0.5 288.5 l 1
 0.5 383.5 l 1
EndSplineSet
EndChar

StartChar: uni2533
Encoding: 457 9523 457
Width: 576
VWidth: 0
Flags: W
LayerCount: 2
Back
Fore
SplineSet
0.5 383.5 m 1
 575.5 383.5 l 1
 575.5 192.5 l 1
 384 192.5 l 1
 383.5 192.5 l 1
 383.5 192 l 1
 383.5 -191.5 l 1
 192.5 -191.5 l 1
 192.5 192 l 1
 192.5 192.5 l 1
 192 192.5 l 1
 0.5 192.5 l 1
 0.5 383.5 l 1
EndSplineSet
EndChar

StartChar: SF070000
Encoding: 458 9524 458
Width: 576
VWidth: 0
Flags: W
LayerCount: 2
Back
Fore
SplineSet
0.5 383.5 m 1
 192 383.5 l 1
 192.5 383.5 l 1
 192.5 384 l 1
 192.5 767.5 l 1
 287.5 767.5 l 1
 287.5 384 l 1
 287.5 383.5 l 1
 288 383.5 l 1
 575.5 383.5 l 1
 575.5 288.5 l 1
 0.5 288.5 l 1
 0.5 383.5 l 1
EndSplineSet
EndChar

StartChar: uni2535
Encoding: 459 9525 459
Width: 576
VWidth: 0
Flags: W
LayerCount: 2
Back
Fore
SplineSet
192.5 767.5 m 1
 287.5 767.5 l 1
 287.5 384 l 1
 287.5 383.5 l 1
 288 383.5 l 1
 575.5 383.5 l 1
 575.5 288.5 l 1
 192 288.5 l 1
 191.5 288.5 l 1
 191.5 288 l 1
 191.5 192.5 l 1
 0.5 192.5 l 1
 0.5 383.5 l 1
 192 383.5 l 1
 192.5 383.5 l 1
 192.5 384 l 1
 192.5 767.5 l 1
EndSplineSet
EndChar

StartChar: uni2536
Encoding: 460 9526 460
Width: 576
VWidth: 0
Flags: W
LayerCount: 2
Back
Fore
SplineSet
192.5 767.5 m 1
 287.5 767.5 l 1
 287.5 384 l 1
 287.5 383.5 l 1
 288 383.5 l 1
 575.5 383.5 l 1
 575.5 192.5 l 1
 288.5 192.5 l 1
 288.5 288 l 1
 288.5 288.5 l 1
 288 288.5 l 1
 0.5 288.5 l 1
 0.5 383.5 l 1
 192 383.5 l 1
 192.5 383.5 l 1
 192.5 384 l 1
 192.5 767.5 l 1
EndSplineSet
EndChar

StartChar: uni2537
Encoding: 461 9527 461
Width: 576
VWidth: 0
Flags: W
LayerCount: 2
Back
Fore
SplineSet
192.5 767.5 m 1
 287.5 767.5 l 1
 287.5 384 l 1
 287.5 383.5 l 1
 288 383.5 l 1
 575.5 383.5 l 1
 575.5 192.5 l 1
 0.5 192.5 l 1
 0.5 383.5 l 1
 192 383.5 l 1
 192.5 383.5 l 1
 192.5 384 l 1
 192.5 767.5 l 1
EndSplineSet
EndChar

StartChar: uni2538
Encoding: 462 9528 462
Width: 576
VWidth: 0
Flags: W
LayerCount: 2
Back
Fore
SplineSet
192.5 767.5 m 1
 383.5 767.5 l 1
 383.5 384 l 1
 383.5 383.5 l 1
 384 383.5 l 1
 575.5 383.5 l 1
 575.5 288.5 l 1
 0.5 288.5 l 1
 0.5 383.5 l 1
 192 383.5 l 1
 192.5 383.5 l 1
 192.5 384 l 1
 192.5 767.5 l 1
EndSplineSet
EndChar

StartChar: uni2539
Encoding: 463 9529 463
Width: 576
VWidth: 0
Flags: W
LayerCount: 2
Back
Fore
SplineSet
192.5 767.5 m 1
 383.5 767.5 l 1
 383.5 384 l 1
 383.5 383.5 l 1
 384 383.5 l 1
 575.5 383.5 l 1
 575.5 288.5 l 1
 288 288.5 l 1
 287.5 288.5 l 1
 287.5 288 l 1
 287.5 192.5 l 1
 0.5 192.5 l 1
 0.5 383.5 l 1
 192 383.5 l 1
 192.5 383.5 l 1
 192.5 384 l 1
 192.5 767.5 l 1
EndSplineSet
EndChar

StartChar: uni253A
Encoding: 464 9530 464
Width: 576
VWidth: 0
Flags: W
LayerCount: 2
Back
Fore
SplineSet
192.5 767.5 m 1
 383.5 767.5 l 1
 383.5 384 l 1
 383.5 383.5 l 1
 384 383.5 l 1
 575.5 383.5 l 1
 575.5 192.5 l 1
 288.5 192.5 l 1
 288.5 288 l 1
 288.5 288.5 l 1
 288 288.5 l 1
 0.5 288.5 l 1
 0.5 383.5 l 1
 192 383.5 l 1
 192.5 383.5 l 1
 192.5 384 l 1
 192.5 767.5 l 1
EndSplineSet
EndChar

StartChar: uni253B
Encoding: 465 9531 465
Width: 576
VWidth: 0
Flags: W
LayerCount: 2
Back
Fore
SplineSet
192.5 767.5 m 1
 383.5 767.5 l 1
 383.5 384 l 1
 383.5 383.5 l 1
 384 383.5 l 1
 575.5 383.5 l 1
 575.5 192.5 l 1
 0.5 192.5 l 1
 0.5 383.5 l 1
 192 383.5 l 1
 192.5 383.5 l 1
 192.5 384 l 1
 192.5 767.5 l 1
EndSplineSet
EndChar

StartChar: SF050000
Encoding: 466 9532 466
Width: 576
VWidth: 0
Flags: W
LayerCount: 2
Back
Fore
SplineSet
192.5 767.5 m 1
 287.5 767.5 l 1
 287.5 384 l 1
 287.5 383.5 l 1
 288 383.5 l 1
 575.5 383.5 l 1
 575.5 288.5 l 1
 288 288.5 l 1
 287.5 288.5 l 1
 287.5 288 l 1
 287.5 -191.5 l 1
 192.5 -191.5 l 1
 192.5 288 l 1
 192.5 288.5 l 1
 192 288.5 l 1
 0.5 288.5 l 1
 0.5 383.5 l 1
 192 383.5 l 1
 192.5 383.5 l 1
 192.5 384 l 1
 192.5 767.5 l 1
EndSplineSet
EndChar

StartChar: uni253D
Encoding: 467 9533 467
Width: 576
VWidth: 0
Flags: W
LayerCount: 2
Back
Fore
SplineSet
192.5 767.5 m 1
 287.5 767.5 l 1
 287.5 384 l 1
 287.5 383.5 l 1
 288 383.5 l 1
 575.5 383.5 l 1
 575.5 288.5 l 1
 288 288.5 l 1
 287.5 288.5 l 1
 287.5 288 l 1
 287.5 -191.5 l 1
 192.5 -191.5 l 1
 192.5 192 l 1
 192.5 192.5 l 1
 192 192.5 l 1
 0.5 192.5 l 1
 0.5 383.5 l 1
 192 383.5 l 1
 192.5 383.5 l 1
 192.5 384 l 1
 192.5 767.5 l 1
EndSplineSet
EndChar

StartChar: uni253E
Encoding: 468 9534 468
Width: 576
VWidth: 0
Flags: W
LayerCount: 2
Back
Fore
SplineSet
192.5 767.5 m 1
 287.5 767.5 l 1
 287.5 384 l 1
 287.5 383.5 l 1
 288 383.5 l 1
 575.5 383.5 l 1
 575.5 192.5 l 1
 288 192.5 l 1
 287.5 192.5 l 1
 287.5 192 l 1
 287.5 -191.5 l 1
 192.5 -191.5 l 1
 192.5 288 l 1
 192.5 288.5 l 1
 192 288.5 l 1
 0.5 288.5 l 1
 0.5 383.5 l 1
 192 383.5 l 1
 192.5 383.5 l 1
 192.5 384 l 1
 192.5 767.5 l 1
EndSplineSet
EndChar

StartChar: uni253F
Encoding: 469 9535 469
Width: 576
VWidth: 0
Flags: W
LayerCount: 2
Back
Fore
SplineSet
192.5 767.5 m 1
 287.5 767.5 l 1
 287.5 384 l 1
 287.5 383.5 l 1
 288 383.5 l 1
 575.5 383.5 l 1
 575.5 192.5 l 1
 288 192.5 l 1
 287.5 192.5 l 1
 287.5 192 l 1
 287.5 -191.5 l 1
 192.5 -191.5 l 1
 192.5 192 l 1
 192.5 192.5 l 1
 192 192.5 l 1
 0.5 192.5 l 1
 0.5 383.5 l 1
 192 383.5 l 1
 192.5 383.5 l 1
 192.5 384 l 1
 192.5 767.5 l 1
EndSplineSet
EndChar

StartChar: uni2540
Encoding: 470 9536 470
Width: 576
VWidth: 0
Flags: W
LayerCount: 2
Back
Fore
SplineSet
192.5 767.5 m 1
 383.5 767.5 l 1
 383.5 384 l 1
 383.5 383.5 l 1
 384 383.5 l 1
 575.5 383.5 l 1
 575.5 288.5 l 1
 288 288.5 l 1
 287.5 288.5 l 1
 287.5 288 l 1
 287.5 -191.5 l 1
 192.5 -191.5 l 1
 192.5 288 l 1
 192.5 288.5 l 1
 192 288.5 l 1
 0.5 288.5 l 1
 0.5 383.5 l 1
 192 383.5 l 1
 192.5 383.5 l 1
 192.5 384 l 1
 192.5 767.5 l 1
EndSplineSet
EndChar

StartChar: uni2541
Encoding: 471 9537 471
Width: 576
VWidth: 0
Flags: W
LayerCount: 2
Back
Fore
SplineSet
192.5 767.5 m 1
 287.5 767.5 l 1
 287.5 384 l 1
 287.5 383.5 l 1
 288 383.5 l 1
 575.5 383.5 l 1
 575.5 288.5 l 1
 384 288.5 l 1
 383.5 288.5 l 1
 383.5 288 l 1
 383.5 -191.5 l 1
 192.5 -191.5 l 1
 192.5 288 l 1
 192.5 288.5 l 1
 192 288.5 l 1
 0.5 288.5 l 1
 0.5 383.5 l 1
 192 383.5 l 1
 192.5 383.5 l 1
 192.5 384 l 1
 192.5 767.5 l 1
EndSplineSet
EndChar

StartChar: uni2542
Encoding: 472 9538 472
Width: 576
VWidth: 0
Flags: W
LayerCount: 2
Back
Fore
SplineSet
192.5 767.5 m 1
 383.5 767.5 l 1
 383.5 384 l 1
 383.5 383.5 l 1
 384 383.5 l 1
 575.5 383.5 l 1
 575.5 288.5 l 1
 384 288.5 l 1
 383.5 288.5 l 1
 383.5 288 l 1
 383.5 -191.5 l 1
 192.5 -191.5 l 1
 192.5 288 l 1
 192.5 288.5 l 1
 192 288.5 l 1
 0.5 288.5 l 1
 0.5 383.5 l 1
 192 383.5 l 1
 192.5 383.5 l 1
 192.5 384 l 1
 192.5 767.5 l 1
EndSplineSet
EndChar

StartChar: uni2543
Encoding: 473 9539 473
Width: 576
VWidth: 0
Flags: W
LayerCount: 2
Back
Fore
SplineSet
192.5 767.5 m 1
 383.5 767.5 l 1
 383.5 384 l 1
 383.5 383.5 l 1
 384 383.5 l 1
 575.5 383.5 l 1
 575.5 288.5 l 1
 288 288.5 l 1
 287.5 288.5 l 1
 287.5 288 l 1
 287.5 -191.5 l 1
 192.5 -191.5 l 1
 192.5 192 l 1
 192.5 192.5 l 1
 192 192.5 l 1
 0.5 192.5 l 1
 0.5 383.5 l 1
 192 383.5 l 1
 192.5 383.5 l 1
 192.5 384 l 1
 192.5 767.5 l 1
EndSplineSet
EndChar

StartChar: uni2544
Encoding: 474 9540 474
Width: 576
VWidth: 0
Flags: W
LayerCount: 2
Back
Fore
SplineSet
192.5 767.5 m 1
 383.5 767.5 l 1
 383.5 384 l 1
 383.5 383.5 l 1
 384 383.5 l 1
 575.5 383.5 l 1
 575.5 192.5 l 1
 288 192.5 l 1
 287.5 192.5 l 1
 287.5 192 l 1
 287.5 -191.5 l 1
 192.5 -191.5 l 1
 192.5 288 l 1
 192.5 288.5 l 1
 192 288.5 l 1
 0.5 288.5 l 1
 0.5 383.5 l 1
 192 383.5 l 1
 192.5 383.5 l 1
 192.5 384 l 1
 192.5 767.5 l 1
EndSplineSet
EndChar

StartChar: uni2545
Encoding: 475 9541 475
Width: 576
VWidth: 0
Flags: W
LayerCount: 2
Back
Fore
SplineSet
192.5 767.5 m 1
 287.5 767.5 l 1
 287.5 384 l 1
 287.5 383.5 l 1
 288 383.5 l 1
 575.5 383.5 l 1
 575.5 288.5 l 1
 384 288.5 l 1
 383.5 288.5 l 1
 383.5 288 l 1
 383.5 -191.5 l 1
 192.5 -191.5 l 1
 192.5 192 l 1
 192.5 192.5 l 1
 192 192.5 l 1
 0.5 192.5 l 1
 0.5 383.5 l 1
 192 383.5 l 1
 192.5 383.5 l 1
 192.5 384 l 1
 192.5 767.5 l 1
EndSplineSet
EndChar

StartChar: uni2546
Encoding: 476 9542 476
Width: 576
VWidth: 0
Flags: W
LayerCount: 2
Back
Fore
SplineSet
192.5 767.5 m 1
 287.5 767.5 l 1
 287.5 384 l 1
 287.5 383.5 l 1
 288 383.5 l 1
 575.5 383.5 l 1
 575.5 192.5 l 1
 384 192.5 l 1
 383.5 192.5 l 1
 383.5 192 l 1
 383.5 -191.5 l 1
 192.5 -191.5 l 1
 192.5 288 l 1
 192.5 288.5 l 1
 192 288.5 l 1
 0.5 288.5 l 1
 0.5 383.5 l 1
 192 383.5 l 1
 192.5 383.5 l 1
 192.5 384 l 1
 192.5 767.5 l 1
EndSplineSet
EndChar

StartChar: uni2547
Encoding: 477 9543 477
Width: 576
VWidth: 0
Flags: W
LayerCount: 2
Back
Fore
SplineSet
192.5 767.5 m 1
 383.5 767.5 l 1
 383.5 384 l 1
 383.5 383.5 l 1
 384 383.5 l 1
 575.5 383.5 l 1
 575.5 192.5 l 1
 288 192.5 l 1
 287.5 192.5 l 1
 287.5 192 l 1
 287.5 -191.5 l 1
 192.5 -191.5 l 1
 192.5 192 l 1
 192.5 192.5 l 1
 192 192.5 l 1
 0.5 192.5 l 1
 0.5 383.5 l 1
 192 383.5 l 1
 192.5 383.5 l 1
 192.5 384 l 1
 192.5 767.5 l 1
EndSplineSet
EndChar

StartChar: uni2548
Encoding: 478 9544 478
Width: 576
VWidth: 0
Flags: W
LayerCount: 2
Back
Fore
SplineSet
192.5 767.5 m 1
 287.5 767.5 l 1
 287.5 384 l 1
 287.5 383.5 l 1
 288 383.5 l 1
 575.5 383.5 l 1
 575.5 192.5 l 1
 384 192.5 l 1
 383.5 192.5 l 1
 383.5 192 l 1
 383.5 -191.5 l 1
 192.5 -191.5 l 1
 192.5 192 l 1
 192.5 192.5 l 1
 192 192.5 l 1
 0.5 192.5 l 1
 0.5 383.5 l 1
 192 383.5 l 1
 192.5 383.5 l 1
 192.5 384 l 1
 192.5 767.5 l 1
EndSplineSet
EndChar

StartChar: uni2549
Encoding: 479 9545 479
Width: 576
VWidth: 0
Flags: W
LayerCount: 2
Back
Fore
SplineSet
192.5 767.5 m 1
 383.5 767.5 l 1
 383.5 384 l 1
 383.5 383.5 l 1
 384 383.5 l 1
 575.5 383.5 l 1
 575.5 288.5 l 1
 384 288.5 l 1
 383.5 288.5 l 1
 383.5 288 l 1
 383.5 -191.5 l 1
 192.5 -191.5 l 1
 192.5 192 l 1
 192.5 192.5 l 1
 192 192.5 l 1
 0.5 192.5 l 1
 0.5 383.5 l 1
 192 383.5 l 1
 192.5 383.5 l 1
 192.5 384 l 1
 192.5 767.5 l 1
EndSplineSet
EndChar

StartChar: uni254A
Encoding: 480 9546 480
Width: 576
VWidth: 0
Flags: W
LayerCount: 2
Back
Fore
SplineSet
192.5 767.5 m 1
 383.5 767.5 l 1
 383.5 384 l 1
 383.5 383.5 l 1
 384 383.5 l 1
 575.5 383.5 l 1
 575.5 192.5 l 1
 384 192.5 l 1
 383.5 192.5 l 1
 383.5 192 l 1
 383.5 -191.5 l 1
 192.5 -191.5 l 1
 192.5 288 l 1
 192.5 288.5 l 1
 192 288.5 l 1
 0.5 288.5 l 1
 0.5 383.5 l 1
 192 383.5 l 1
 192.5 383.5 l 1
 192.5 384 l 1
 192.5 767.5 l 1
EndSplineSet
EndChar

StartChar: uni254B
Encoding: 481 9547 481
Width: 576
VWidth: 0
Flags: W
LayerCount: 2
Back
Fore
SplineSet
192.5 767.5 m 1
 383.5 767.5 l 1
 383.5 384 l 1
 383.5 383.5 l 1
 384 383.5 l 1
 575.5 383.5 l 1
 575.5 192.5 l 1
 384 192.5 l 1
 383.5 192.5 l 1
 383.5 192 l 1
 383.5 -191.5 l 1
 192.5 -191.5 l 1
 192.5 192 l 1
 192.5 192.5 l 1
 192 192.5 l 1
 0.5 192.5 l 1
 0.5 383.5 l 1
 192 383.5 l 1
 192.5 383.5 l 1
 192.5 384 l 1
 192.5 767.5 l 1
EndSplineSet
EndChar

StartChar: uni254C
Encoding: 482 9548 482
Width: 576
VWidth: 0
Flags: W
LayerCount: 2
Back
Fore
SplineSet
384.5 383.5 m 1
 575.5 383.5 l 1
 575.5 288.5 l 1
 384.5 288.5 l 1
 384.5 383.5 l 1
0.5 383.5 m 1
 191.5 383.5 l 1
 191.5 288.5 l 1
 0.5 288.5 l 1
 0.5 383.5 l 1
EndSplineSet
EndChar

StartChar: uni254D
Encoding: 483 9549 483
Width: 576
VWidth: 0
Flags: W
LayerCount: 2
Back
Fore
SplineSet
384.5 383.5 m 1
 575.5 383.5 l 1
 575.5 192.5 l 1
 384.5 192.5 l 1
 384.5 383.5 l 1
0.5 383.5 m 1
 191.5 383.5 l 1
 191.5 192.5 l 1
 0.5 192.5 l 1
 0.5 383.5 l 1
EndSplineSet
EndChar

StartChar: uni254E
Encoding: 484 9550 484
Width: 576
VWidth: 0
Flags: W
LayerCount: 2
Back
Fore
SplineSet
192.5 191.5 m 1
 287.5 191.5 l 1
 287.5 -191.5 l 1
 192.5 -191.5 l 1
 192.5 191.5 l 1
192.5 767.5 m 1
 287.5 767.5 l 1
 287.5 384.5 l 1
 192.5 384.5 l 1
 192.5 767.5 l 1
EndSplineSet
EndChar

StartChar: uni254F
Encoding: 485 9551 485
Width: 576
VWidth: 0
Flags: W
LayerCount: 2
Back
Fore
SplineSet
192.5 191.5 m 1
 383.5 191.5 l 1
 383.5 -191.5 l 1
 192.5 -191.5 l 1
 192.5 191.5 l 1
192.5 767.5 m 1
 383.5 767.5 l 1
 383.5 384.5 l 1
 192.5 384.5 l 1
 192.5 767.5 l 1
EndSplineSet
EndChar

StartChar: SF430000
Encoding: 486 9552 486
Width: 576
VWidth: 0
Flags: W
LayerCount: 2
Back
Fore
SplineSet
0.5 287.5 m 1
 575.5 287.5 l 1
 575.5 192.5 l 1
 0.5 192.5 l 1
 0.5 287.5 l 1
0.5 479.5 m 1
 575.5 479.5 l 1
 575.5 384.5 l 1
 0.5 384.5 l 1
 0.5 479.5 l 1
EndSplineSet
EndChar

StartChar: SF240000
Encoding: 487 9553 487
Width: 576
VWidth: 0
Flags: W
LayerCount: 2
Back
Fore
SplineSet
288.5 767.5 m 1
 383.5 767.5 l 1
 383.5 -191.5 l 1
 288.5 -191.5 l 1
 288.5 767.5 l 1
96.5 767.5 m 1
 191.5 767.5 l 1
 191.5 -191.5 l 1
 96.5 -191.5 l 1
 96.5 767.5 l 1
EndSplineSet
EndChar

StartChar: SF510000
Encoding: 488 9554 488
Width: 576
VWidth: 0
Flags: W
LayerCount: 2
Back
Fore
SplineSet
192.5 479.5 m 1
 575.5 479.5 l 1
 575.5 384.5 l 1
 288 384.5 l 1
 287.5 384.5 l 1
 287.5 384 l 1
 287.5 288 l 1
 287.5 287.5 l 1
 288 287.5 l 1
 575.5 287.5 l 1
 575.5 192.5 l 1
 288 192.5 l 1
 287.5 192.5 l 1
 287.5 192 l 1
 287.5 -191.5 l 1
 192.5 -191.5 l 1
 192.5 479.5 l 1
EndSplineSet
EndChar

StartChar: SF520000
Encoding: 489 9555 489
Width: 576
VWidth: 0
Flags: W
LayerCount: 2
Back
Fore
SplineSet
96.5 383.5 m 1
 575.5 383.5 l 1
 575.5 288.5 l 1
 384 288.5 l 1
 383.5 288.5 l 1
 383.5 288 l 1
 383.5 -191.5 l 1
 288.5 -191.5 l 1
 288.5 288 l 1
 288.5 288.5 l 1
 288 288.5 l 1
 192 288.5 l 1
 191.5 288.5 l 1
 191.5 288 l 1
 191.5 -191.5 l 1
 96.5 -191.5 l 1
 96.5 383.5 l 1
EndSplineSet
EndChar

StartChar: SF390000
Encoding: 490 9556 490
Width: 576
VWidth: 0
Flags: W
LayerCount: 2
Back
Fore
SplineSet
288.5 287.5 m 1
 575.5 287.5 l 1
 575.5 192.5 l 1
 384 192.5 l 1
 383.5 192.5 l 1
 383.5 192 l 1
 383.5 -191.5 l 1
 288.5 -191.5 l 1
 288.5 287.5 l 1
96.5 479.5 m 1
 575.5 479.5 l 1
 575.5 384.5 l 1
 192 384.5 l 1
 191.5 384.5 l 1
 191.5 384 l 1
 191.5 -191.5 l 1
 96.5 -191.5 l 1
 96.5 479.5 l 1
EndSplineSet
EndChar

StartChar: SF220000
Encoding: 491 9557 491
Width: 576
VWidth: 0
Flags: W
LayerCount: 2
Back
Fore
SplineSet
0.5 479.5 m 1
 287.5 479.5 l 1
 287.5 -191.5 l 1
 192.5 -191.5 l 1
 192.5 192 l 1
 192.5 192.5 l 1
 192 192.5 l 1
 0.5 192.5 l 1
 0.5 287.5 l 1
 192 287.5 l 1
 192.5 287.5 l 1
 192.5 288 l 1
 192.5 384 l 1
 192.5 384.5 l 1
 192 384.5 l 1
 0.5 384.5 l 1
 0.5 479.5 l 1
EndSplineSet
EndChar

StartChar: SF210000
Encoding: 492 9558 492
Width: 576
VWidth: 0
Flags: W
LayerCount: 2
Back
Fore
SplineSet
0.5 383.5 m 1
 383.5 383.5 l 1
 383.5 -191.5 l 1
 288.5 -191.5 l 1
 288.5 288 l 1
 288.5 288.5 l 1
 288 288.5 l 1
 192 288.5 l 1
 191.5 288.5 l 1
 191.5 288 l 1
 191.5 -191.5 l 1
 96.5 -191.5 l 1
 96.5 288 l 1
 96.5 288.5 l 1
 96 288.5 l 1
 0.5 288.5 l 1
 0.5 383.5 l 1
EndSplineSet
EndChar

StartChar: SF250000
Encoding: 493 9559 493
Width: 576
VWidth: 0
Flags: W
LayerCount: 2
Back
Fore
SplineSet
0.5 287.5 m 1
 191.5 287.5 l 1
 191.5 -191.5 l 1
 96.5 -191.5 l 1
 96.5 192 l 1
 96.5 192.5 l 1
 96 192.5 l 1
 0.5 192.5 l 1
 0.5 287.5 l 1
0.5 479.5 m 1
 383.5 479.5 l 1
 383.5 -191.5 l 1
 288.5 -191.5 l 1
 288.5 384 l 1
 288.5 384.5 l 1
 288 384.5 l 1
 0.5 384.5 l 1
 0.5 479.5 l 1
EndSplineSet
EndChar

StartChar: SF500000
Encoding: 494 9560 494
Width: 576
VWidth: 0
Flags: W
LayerCount: 2
Back
Fore
SplineSet
192.5 767.5 m 1
 287.5 767.5 l 1
 287.5 480 l 1
 287.5 479.5 l 1
 288 479.5 l 1
 575.5 479.5 l 1
 575.5 384.5 l 1
 288 384.5 l 1
 287.5 384.5 l 1
 287.5 384 l 1
 287.5 288 l 1
 287.5 287.5 l 1
 288 287.5 l 1
 575.5 287.5 l 1
 575.5 192.5 l 1
 192.5 192.5 l 1
 192.5 767.5 l 1
EndSplineSet
EndChar

StartChar: SF490000
Encoding: 495 9561 495
Width: 576
VWidth: 0
Flags: W
LayerCount: 2
Back
Fore
SplineSet
96.5 767.5 m 1
 191.5 767.5 l 1
 191.5 384 l 1
 191.5 383.5 l 1
 192 383.5 l 1
 288 383.5 l 1
 288.5 383.5 l 1
 288.5 384 l 1
 288.5 767.5 l 1
 383.5 767.5 l 1
 383.5 384 l 1
 383.5 383.5 l 1
 384 383.5 l 1
 575.5 383.5 l 1
 575.5 288.5 l 1
 96.5 288.5 l 1
 96.5 767.5 l 1
EndSplineSet
EndChar

StartChar: SF380000
Encoding: 496 9562 496
Width: 576
VWidth: 0
Flags: W
LayerCount: 2
Back
Fore
SplineSet
288.5 767.5 m 1
 383.5 767.5 l 1
 383.5 480 l 1
 383.5 479.5 l 1
 384 479.5 l 1
 575.5 479.5 l 1
 575.5 384.5 l 1
 288.5 384.5 l 1
 288.5 767.5 l 1
96.5 767.5 m 1
 191.5 767.5 l 1
 191.5 288 l 1
 191.5 287.5 l 1
 192 287.5 l 1
 575.5 287.5 l 1
 575.5 192.5 l 1
 96.5 192.5 l 1
 96.5 767.5 l 1
EndSplineSet
EndChar

StartChar: SF280000
Encoding: 497 9563 497
Width: 576
VWidth: 0
Flags: W
LayerCount: 2
Back
Fore
SplineSet
192.5 767.5 m 1
 287.5 767.5 l 1
 287.5 192.5 l 1
 0.5 192.5 l 1
 0.5 287.5 l 1
 192 287.5 l 1
 192.5 287.5 l 1
 192.5 288 l 1
 192.5 384 l 1
 192.5 384.5 l 1
 192 384.5 l 1
 0.5 384.5 l 1
 0.5 479.5 l 1
 192 479.5 l 1
 192.5 479.5 l 1
 192.5 480 l 1
 192.5 767.5 l 1
EndSplineSet
EndChar

StartChar: SF270000
Encoding: 498 9564 498
Width: 576
VWidth: 0
Flags: W
LayerCount: 2
Back
Fore
SplineSet
96.5 767.5 m 1
 191.5 767.5 l 1
 191.5 384 l 1
 191.5 383.5 l 1
 192 383.5 l 1
 288 383.5 l 1
 288.5 383.5 l 1
 288.5 384 l 1
 288.5 767.5 l 1
 383.5 767.5 l 1
 383.5 288.5 l 1
 0.5 288.5 l 1
 0.5 383.5 l 1
 96 383.5 l 1
 96.5 383.5 l 1
 96.5 384 l 1
 96.5 767.5 l 1
EndSplineSet
EndChar

StartChar: SF260000
Encoding: 499 9565 499
Width: 576
VWidth: 0
Flags: W
LayerCount: 2
Back
Fore
SplineSet
288.5 767.5 m 1
 383.5 767.5 l 1
 383.5 192.5 l 1
 0.5 192.5 l 1
 0.5 287.5 l 1
 288 287.5 l 1
 288.5 287.5 l 1
 288.5 288 l 1
 288.5 767.5 l 1
96.5 767.5 m 1
 191.5 767.5 l 1
 191.5 384.5 l 1
 0.5 384.5 l 1
 0.5 479.5 l 1
 96 479.5 l 1
 96.5 479.5 l 1
 96.5 480 l 1
 96.5 767.5 l 1
EndSplineSet
EndChar

StartChar: SF360000
Encoding: 500 9566 500
Width: 576
VWidth: 0
Flags: W
LayerCount: 2
Back
Fore
SplineSet
192.5 767.5 m 1
 287.5 767.5 l 1
 287.5 480 l 1
 287.5 479.5 l 1
 288 479.5 l 1
 575.5 479.5 l 1
 575.5 384.5 l 1
 288 384.5 l 1
 287.5 384.5 l 1
 287.5 384 l 1
 287.5 288 l 1
 287.5 287.5 l 1
 288 287.5 l 1
 575.5 287.5 l 1
 575.5 192.5 l 1
 288 192.5 l 1
 287.5 192.5 l 1
 287.5 192 l 1
 287.5 -191.5 l 1
 192.5 -191.5 l 1
 192.5 767.5 l 1
EndSplineSet
EndChar

StartChar: SF370000
Encoding: 501 9567 501
Width: 576
VWidth: 0
Flags: W
LayerCount: 2
Back
Fore
SplineSet
288.5 767.5 m 1
 383.5 767.5 l 1
 383.5 384 l 1
 383.5 383.5 l 1
 384 383.5 l 1
 575.5 383.5 l 1
 575.5 288.5 l 1
 384 288.5 l 1
 383.5 288.5 l 1
 383.5 288 l 1
 383.5 -191.5 l 1
 288.5 -191.5 l 1
 288.5 767.5 l 1
96.5 767.5 m 1
 191.5 767.5 l 1
 191.5 -191.5 l 1
 96.5 -191.5 l 1
 96.5 767.5 l 1
EndSplineSet
EndChar

StartChar: SF420000
Encoding: 502 9568 502
Width: 576
VWidth: 0
Flags: W
LayerCount: 2
Back
Fore
SplineSet
288.5 287.5 m 1
 575.5 287.5 l 1
 575.5 192.5 l 1
 384 192.5 l 1
 383.5 192.5 l 1
 383.5 192 l 1
 383.5 -191.5 l 1
 288.5 -191.5 l 1
 288.5 287.5 l 1
288.5 767.5 m 1
 383.5 767.5 l 1
 383.5 480 l 1
 383.5 479.5 l 1
 384 479.5 l 1
 575.5 479.5 l 1
 575.5 384.5 l 1
 288.5 384.5 l 1
 288.5 767.5 l 1
96.5 767.5 m 1
 191.5 767.5 l 1
 191.5 -191.5 l 1
 96.5 -191.5 l 1
 96.5 767.5 l 1
EndSplineSet
EndChar

StartChar: SF190000
Encoding: 503 9569 503
Width: 576
VWidth: 0
Flags: W
LayerCount: 2
Back
Fore
SplineSet
0.5 479.5 m 1
 192 479.5 l 1
 192.5 479.5 l 1
 192.5 480 l 1
 192.5 767.5 l 1
 287.5 767.5 l 1
 287.5 -191.5 l 1
 192.5 -191.5 l 1
 192.5 192 l 1
 192.5 192.5 l 1
 192 192.5 l 1
 0.5 192.5 l 1
 0.5 287.5 l 1
 192 287.5 l 1
 192.5 287.5 l 1
 192.5 288 l 1
 192.5 384 l 1
 192.5 384.5 l 1
 192 384.5 l 1
 0.5 384.5 l 1
 0.5 479.5 l 1
EndSplineSet
EndChar

StartChar: SF200000
Encoding: 504 9570 504
Width: 576
VWidth: 0
Flags: W
LayerCount: 2
Back
Fore
SplineSet
288.5 767.5 m 1
 383.5 767.5 l 1
 383.5 -191.5 l 1
 288.5 -191.5 l 1
 288.5 767.5 l 1
96.5 767.5 m 1
 191.5 767.5 l 1
 191.5 -191.5 l 1
 96.5 -191.5 l 1
 96.5 288 l 1
 96.5 288.5 l 1
 96 288.5 l 1
 0.5 288.5 l 1
 0.5 383.5 l 1
 96 383.5 l 1
 96.5 383.5 l 1
 96.5 384 l 1
 96.5 767.5 l 1
EndSplineSet
EndChar

StartChar: SF230000
Encoding: 505 9571 505
Width: 576
VWidth: 0
Flags: W
LayerCount: 2
Back
Fore
SplineSet
288.5 767.5 m 1
 383.5 767.5 l 1
 383.5 -191.5 l 1
 288.5 -191.5 l 1
 288.5 767.5 l 1
0.5 287.5 m 1
 191.5 287.5 l 1
 191.5 -191.5 l 1
 96.5 -191.5 l 1
 96.5 192 l 1
 96.5 192.5 l 1
 96 192.5 l 1
 0.5 192.5 l 1
 0.5 287.5 l 1
96.5 767.5 m 1
 191.5 767.5 l 1
 191.5 384.5 l 1
 0.5 384.5 l 1
 0.5 479.5 l 1
 96 479.5 l 1
 96.5 479.5 l 1
 96.5 480 l 1
 96.5 767.5 l 1
EndSplineSet
EndChar

StartChar: SF470000
Encoding: 506 9572 506
Width: 576
VWidth: 0
Flags: W
LayerCount: 2
Back
Fore
SplineSet
0.5 287.5 m 1
 575.5 287.5 l 1
 575.5 192.5 l 1
 288 192.5 l 1
 287.5 192.5 l 1
 287.5 192 l 1
 287.5 -191.5 l 1
 192.5 -191.5 l 1
 192.5 192 l 1
 192.5 192.5 l 1
 192 192.5 l 1
 0.5 192.5 l 1
 0.5 287.5 l 1
0.5 479.5 m 1
 575.5 479.5 l 1
 575.5 384.5 l 1
 0.5 384.5 l 1
 0.5 479.5 l 1
EndSplineSet
EndChar

StartChar: SF480000
Encoding: 507 9573 507
Width: 576
VWidth: 0
Flags: W
LayerCount: 2
Back
Fore
SplineSet
0.5 383.5 m 1
 575.5 383.5 l 1
 575.5 288.5 l 1
 384 288.5 l 1
 383.5 288.5 l 1
 383.5 288 l 1
 383.5 -191.5 l 1
 288.5 -191.5 l 1
 288.5 288 l 1
 288.5 288.5 l 1
 288 288.5 l 1
 192 288.5 l 1
 191.5 288.5 l 1
 191.5 288 l 1
 191.5 -191.5 l 1
 96.5 -191.5 l 1
 96.5 288 l 1
 96.5 288.5 l 1
 96 288.5 l 1
 0.5 288.5 l 1
 0.5 383.5 l 1
EndSplineSet
EndChar

StartChar: SF410000
Encoding: 508 9574 508
Width: 576
VWidth: 0
Flags: W
LayerCount: 2
Back
Fore
SplineSet
288.5 287.5 m 1
 575.5 287.5 l 1
 575.5 192.5 l 1
 384 192.5 l 1
 383.5 192.5 l 1
 383.5 192 l 1
 383.5 -191.5 l 1
 288.5 -191.5 l 1
 288.5 287.5 l 1
0.5 287.5 m 1
 191.5 287.5 l 1
 191.5 -191.5 l 1
 96.5 -191.5 l 1
 96.5 192 l 1
 96.5 192.5 l 1
 96 192.5 l 1
 0.5 192.5 l 1
 0.5 287.5 l 1
0.5 479.5 m 1
 575.5 479.5 l 1
 575.5 384.5 l 1
 0.5 384.5 l 1
 0.5 479.5 l 1
EndSplineSet
EndChar

StartChar: SF450000
Encoding: 509 9575 509
Width: 576
VWidth: 0
Flags: W
LayerCount: 2
Back
Fore
SplineSet
0.5 287.5 m 1
 575.5 287.5 l 1
 575.5 192.5 l 1
 0.5 192.5 l 1
 0.5 287.5 l 1
0.5 479.5 m 1
 192 479.5 l 1
 192.5 479.5 l 1
 192.5 480 l 1
 192.5 767.5 l 1
 287.5 767.5 l 1
 287.5 480 l 1
 287.5 479.5 l 1
 288 479.5 l 1
 575.5 479.5 l 1
 575.5 384.5 l 1
 0.5 384.5 l 1
 0.5 479.5 l 1
EndSplineSet
EndChar

StartChar: SF460000
Encoding: 510 9576 510
Width: 576
VWidth: 0
Flags: W
LayerCount: 2
Back
Fore
SplineSet
0.5 383.5 m 1
 96 383.5 l 1
 96.5 383.5 l 1
 96.5 384 l 1
 96.5 767.5 l 1
 191.5 767.5 l 1
 191.5 384 l 1
 191.5 383.5 l 1
 192 383.5 l 1
 288 383.5 l 1
 288.5 383.5 l 1
 288.5 384 l 1
 288.5 767.5 l 1
 383.5 767.5 l 1
 383.5 384 l 1
 383.5 383.5 l 1
 384 383.5 l 1
 575.5 383.5 l 1
 575.5 288.5 l 1
 0.5 288.5 l 1
 0.5 383.5 l 1
EndSplineSet
EndChar

StartChar: SF400000
Encoding: 511 9577 511
Width: 576
VWidth: 0
Flags: W
LayerCount: 2
Back
Fore
SplineSet
0.5 287.5 m 1
 575.5 287.5 l 1
 575.5 192.5 l 1
 0.5 192.5 l 1
 0.5 287.5 l 1
288.5 767.5 m 1
 383.5 767.5 l 1
 383.5 480 l 1
 383.5 479.5 l 1
 384 479.5 l 1
 575.5 479.5 l 1
 575.5 384.5 l 1
 288.5 384.5 l 1
 288.5 767.5 l 1
0.5 479.5 m 1
 96 479.5 l 1
 96.5 479.5 l 1
 96.5 480 l 1
 96.5 767.5 l 1
 191.5 767.5 l 1
 191.5 384.5 l 1
 0.5 384.5 l 1
 0.5 479.5 l 1
EndSplineSet
EndChar

StartChar: SF540000
Encoding: 512 9578 512
Width: 576
VWidth: 0
Flags: W
LayerCount: 2
Back
Fore
SplineSet
0.5 479.5 m 1
 192 479.5 l 1
 192.5 479.5 l 1
 192.5 480 l 1
 192.5 767.5 l 1
 287.5 767.5 l 1
 287.5 480 l 1
 287.5 479.5 l 1
 288 479.5 l 1
 575.5 479.5 l 1
 575.5 384.5 l 1
 288 384.5 l 1
 287.5 384.5 l 1
 287.5 384 l 1
 287.5 288 l 1
 287.5 287.5 l 1
 288 287.5 l 1
 575.5 287.5 l 1
 575.5 192.5 l 1
 288 192.5 l 1
 287.5 192.5 l 1
 287.5 192 l 1
 287.5 -191.5 l 1
 192.5 -191.5 l 1
 192.5 192 l 1
 192.5 192.5 l 1
 192 192.5 l 1
 0.5 192.5 l 1
 0.5 287.5 l 1
 192 287.5 l 1
 192.5 287.5 l 1
 192.5 288 l 1
 192.5 384 l 1
 192.5 384.5 l 1
 192 384.5 l 1
 0.5 384.5 l 1
 0.5 479.5 l 1
EndSplineSet
EndChar

StartChar: SF530000
Encoding: 513 9579 513
Width: 576
VWidth: 0
Flags: W
LayerCount: 2
Back
Fore
SplineSet
0.5 383.5 m 1
 96 383.5 l 1
 96.5 383.5 l 1
 96.5 384 l 1
 96.5 767.5 l 1
 191.5 767.5 l 1
 191.5 384 l 1
 191.5 383.5 l 1
 192 383.5 l 1
 288 383.5 l 1
 288.5 383.5 l 1
 288.5 384 l 1
 288.5 767.5 l 1
 383.5 767.5 l 1
 383.5 384 l 1
 383.5 383.5 l 1
 384 383.5 l 1
 575.5 383.5 l 1
 575.5 288.5 l 1
 384 288.5 l 1
 383.5 288.5 l 1
 383.5 288 l 1
 383.5 -191.5 l 1
 288.5 -191.5 l 1
 288.5 288 l 1
 288.5 288.5 l 1
 288 288.5 l 1
 192 288.5 l 1
 191.5 288.5 l 1
 191.5 288 l 1
 191.5 -191.5 l 1
 96.5 -191.5 l 1
 96.5 288 l 1
 96.5 288.5 l 1
 96 288.5 l 1
 0.5 288.5 l 1
 0.5 383.5 l 1
EndSplineSet
EndChar

StartChar: SF440000
Encoding: 514 9580 514
Width: 576
VWidth: 0
Flags: W
LayerCount: 2
Back
Fore
SplineSet
288.5 287.5 m 1
 575.5 287.5 l 1
 575.5 192.5 l 1
 384 192.5 l 1
 383.5 192.5 l 1
 383.5 192 l 1
 383.5 -191.5 l 1
 288.5 -191.5 l 1
 288.5 287.5 l 1
0.5 287.5 m 1
 191.5 287.5 l 1
 191.5 -191.5 l 1
 96.5 -191.5 l 1
 96.5 192 l 1
 96.5 192.5 l 1
 96 192.5 l 1
 0.5 192.5 l 1
 0.5 287.5 l 1
288.5 767.5 m 1
 383.5 767.5 l 1
 383.5 480 l 1
 383.5 479.5 l 1
 384 479.5 l 1
 575.5 479.5 l 1
 575.5 384.5 l 1
 288.5 384.5 l 1
 288.5 767.5 l 1
0.5 479.5 m 1
 96 479.5 l 1
 96.5 479.5 l 1
 96.5 480 l 1
 96.5 767.5 l 1
 191.5 767.5 l 1
 191.5 384.5 l 1
 0.5 384.5 l 1
 0.5 479.5 l 1
EndSplineSet
EndChar

StartChar: uni256D
Encoding: 515 9581 515
Width: 576
VWidth: 0
Flags: W
LayerCount: 2
Back
Fore
SplineSet
384.5 288.5 m 1
 384.5 383.5 l 1
 575.5 383.5 l 1
 575.5 288.5 l 1
 384.5 288.5 l 1
383.5 287.5 m 1
 383.5 192.5 l 1
 288.5 192.5 l 1
 288.5 287.5 l 1
 383.5 287.5 l 1
287.5 191.5 m 1
 287.5 -191.5 l 1
 192.5 -191.5 l 1
 192.5 191.5 l 1
 287.5 191.5 l 1
EndSplineSet
EndChar

StartChar: uni256E
Encoding: 516 9582 516
Width: 576
VWidth: 0
Flags: W
LayerCount: 2
Back
Fore
SplineSet
192.5 191.5 m 1
 287.5 191.5 l 1
 287.5 -191.5 l 1
 192.5 -191.5 l 1
 192.5 191.5 l 1
191.5 192.5 m 1
 96.5 192.5 l 1
 96.5 287.5 l 1
 191.5 287.5 l 1
 191.5 192.5 l 1
95.5 288.5 m 1
 0.5 288.5 l 1
 0.5 383.5 l 1
 95.5 383.5 l 1
 95.5 288.5 l 1
EndSplineSet
EndChar

StartChar: uni256F
Encoding: 517 9583 517
Width: 576
VWidth: 0
Flags: W
LayerCount: 2
Back
Fore
SplineSet
192.5 480.5 m 1
 192.5 767.5 l 1
 287.5 767.5 l 1
 287.5 480.5 l 1
 192.5 480.5 l 1
191.5 479.5 m 1
 191.5 384.5 l 1
 96.5 384.5 l 1
 96.5 479.5 l 1
 191.5 479.5 l 1
95.5 383.5 m 1
 95.5 288.5 l 1
 0.5 288.5 l 1
 0.5 383.5 l 1
 95.5 383.5 l 1
EndSplineSet
EndChar

StartChar: uni2570
Encoding: 518 9584 518
Width: 576
VWidth: 0
Flags: W
LayerCount: 2
Back
Fore
SplineSet
384.5 383.5 m 1
 575.5 383.5 l 1
 575.5 288.5 l 1
 384.5 288.5 l 1
 384.5 383.5 l 1
383.5 384.5 m 1
 288.5 384.5 l 1
 288.5 479.5 l 1
 383.5 479.5 l 1
 383.5 384.5 l 1
287.5 480.5 m 1
 192.5 480.5 l 1
 192.5 767.5 l 1
 287.5 767.5 l 1
 287.5 480.5 l 1
EndSplineSet
EndChar

StartChar: uni2571
Encoding: 519 9585 519
Width: 576
VWidth: 0
Flags: W
LayerCount: 2
Back
Fore
SplineSet
95.5 -0.5 m 1
 95.5 -191.5 l 1
 0.5 -191.5 l 1
 0.5 -0.5 l 1
 95.5 -0.5 l 1
96.5 0.5 m 1
 96.5 191.5 l 1
 191.5 191.5 l 1
 191.5 0.5 l 1
 96.5 0.5 l 1
192.5 192.5 m 1
 192.5 287.5 l 1
 287.5 287.5 l 1
 287.5 192.5 l 1
 192.5 192.5 l 1
288.5 288.5 m 1
 288.5 383.5 l 1
 383.5 383.5 l 1
 383.5 288.5 l 1
 288.5 288.5 l 1
384.5 384.5 m 1
 384.5 575.5 l 1
 479.5 575.5 l 1
 479.5 384.5 l 1
 384.5 384.5 l 1
480.5 576.5 m 1
 480.5 767.5 l 1
 575.5 767.5 l 1
 575.5 576.5 l 1
 480.5 576.5 l 1
EndSplineSet
EndChar

StartChar: uni2572
Encoding: 520 9586 520
Width: 576
VWidth: 0
Flags: W
LayerCount: 2
Back
Fore
SplineSet
480.5 -0.5 m 1
 575.5 -0.5 l 1
 575.5 -191.5 l 1
 480.5 -191.5 l 1
 480.5 -0.5 l 1
479.5 0.5 m 1
 384.5 0.5 l 1
 384.5 191.5 l 1
 479.5 191.5 l 1
 479.5 0.5 l 1
383.5 192.5 m 1
 288.5 192.5 l 1
 288.5 287.5 l 1
 383.5 287.5 l 1
 383.5 192.5 l 1
287.5 288.5 m 1
 192.5 288.5 l 1
 192.5 383.5 l 1
 287.5 383.5 l 1
 287.5 288.5 l 1
191.5 384.5 m 1
 96.5 384.5 l 1
 96.5 575.5 l 1
 191.5 575.5 l 1
 191.5 384.5 l 1
95.5 576.5 m 1
 0.5 576.5 l 1
 0.5 767.5 l 1
 95.5 767.5 l 1
 95.5 576.5 l 1
EndSplineSet
EndChar

StartChar: uni2573
Encoding: 521 9587 521
Width: 576
VWidth: 0
Flags: W
LayerCount: 2
Back
Fore
SplineSet
192.666666667 192.5 m 1
 192.5 383.5 l 1
 383.333333333 383.5 l 1
 383.5 192.5 l 1
 192.666666667 192.5 l 1
480.5 576.5 m 1
 480.5 767.5 l 1
 575.5 767.5 l 1
 575.5 576.5 l 1
 480.5 576.5 l 1
479.5 575.5 m 1
 479.5 384.5 l 1
 384.5 384.5 l 1
 384.5 575.5 l 1
 479.5 575.5 l 1
480.5 -0.5 m 1
 575.5 -0.5 l 1
 575.5 -191.5 l 1
 480.5 -191.5 l 1
 480.5 -0.5 l 1
479.5 0.5 m 1
 384.5 0.5 l 1
 384.5 191.5 l 1
 479.5 191.5 l 1
 479.5 0.5 l 1
95.5 -0.5 m 1
 95.5 -191.5 l 1
 0.5 -191.5 l 1
 0.5 -0.5 l 1
 95.5 -0.5 l 1
96.5 0.5 m 1
 96.5 191.5 l 1
 191.5 191.5 l 1
 191.5 0.5 l 1
 96.5 0.5 l 1
191.5 384.5 m 1
 96.5 384.5 l 1
 96.5 575.5 l 1
 191.5 575.5 l 1
 191.5 384.5 l 1
95.5 576.5 m 1
 0.5 576.5 l 1
 0.5 767.5 l 1
 95.5 767.5 l 1
 95.5 576.5 l 1
EndSplineSet
EndChar

StartChar: uni2574
Encoding: 522 9588 522
Width: 576
VWidth: 0
Flags: W
LayerCount: 2
Back
Fore
SplineSet
0.5 383.5 m 1
 287.5 383.5 l 1
 287.5 288.5 l 1
 0.5 288.5 l 1
 0.5 383.5 l 1
EndSplineSet
EndChar

StartChar: uni2575
Encoding: 523 9589 523
Width: 576
VWidth: 0
Flags: W
LayerCount: 2
Back
Fore
SplineSet
192.5 767.5 m 1
 287.5 767.5 l 1
 287.5 288.5 l 1
 192.5 288.5 l 1
 192.5 767.5 l 1
EndSplineSet
EndChar

StartChar: uni2576
Encoding: 524 9590 524
Width: 576
VWidth: 0
Flags: W
LayerCount: 2
Back
Fore
SplineSet
192.5 383.5 m 1
 575.5 383.5 l 1
 575.5 288.5 l 1
 192.5 288.5 l 1
 192.5 383.5 l 1
EndSplineSet
EndChar

StartChar: uni2577
Encoding: 525 9591 525
Width: 576
VWidth: 0
Flags: W
LayerCount: 2
Back
Fore
SplineSet
192.5 383.5 m 1
 287.5 383.5 l 1
 287.5 -191.5 l 1
 192.5 -191.5 l 1
 192.5 383.5 l 1
EndSplineSet
EndChar

StartChar: uni2578
Encoding: 526 9592 526
Width: 576
VWidth: 0
Flags: W
LayerCount: 2
Back
Fore
SplineSet
0.5 383.5 m 1
 287.5 383.5 l 1
 287.5 192.5 l 1
 0.5 192.5 l 1
 0.5 383.5 l 1
EndSplineSet
EndChar

StartChar: uni2579
Encoding: 527 9593 527
Width: 576
VWidth: 0
Flags: W
LayerCount: 2
Back
Fore
SplineSet
192.5 767.5 m 1
 383.5 767.5 l 1
 383.5 288.5 l 1
 192.5 288.5 l 1
 192.5 767.5 l 1
EndSplineSet
EndChar

StartChar: uni257A
Encoding: 528 9594 528
Width: 576
VWidth: 0
Flags: W
LayerCount: 2
Back
Fore
SplineSet
192.5 383.5 m 1
 575.5 383.5 l 1
 575.5 192.5 l 1
 192.5 192.5 l 1
 192.5 383.5 l 1
EndSplineSet
EndChar

StartChar: uni257B
Encoding: 529 9595 529
Width: 576
VWidth: 0
Flags: W
LayerCount: 2
Back
Fore
SplineSet
192.5 383.5 m 1
 383.5 383.5 l 1
 383.5 -191.5 l 1
 192.5 -191.5 l 1
 192.5 383.5 l 1
EndSplineSet
EndChar

StartChar: uni257C
Encoding: 530 9596 530
Width: 576
VWidth: 0
Flags: W
LayerCount: 2
Back
Fore
SplineSet
0.5 383.5 m 1
 575.5 383.5 l 1
 575.5 192.5 l 1
 192.5 192.5 l 1
 192.5 288 l 1
 192.5 288.5 l 1
 192 288.5 l 1
 0.5 288.5 l 1
 0.5 383.5 l 1
EndSplineSet
EndChar

StartChar: uni257D
Encoding: 531 9597 531
Width: 576
VWidth: 0
Flags: W
LayerCount: 2
Back
Fore
SplineSet
192.5 767.5 m 1
 287.5 767.5 l 1
 287.5 384 l 1
 287.5 383.5 l 1
 288 383.5 l 1
 383.5 383.5 l 1
 383.5 -191.5 l 1
 192.5 -191.5 l 1
 192.5 767.5 l 1
EndSplineSet
EndChar

StartChar: uni257E
Encoding: 532 9598 532
Width: 576
VWidth: 0
Flags: W
LayerCount: 2
Back
Fore
SplineSet
0.5 383.5 m 1
 575.5 383.5 l 1
 575.5 288.5 l 1
 288 288.5 l 1
 287.5 288.5 l 1
 287.5 288 l 1
 287.5 192.5 l 1
 0.5 192.5 l 1
 0.5 383.5 l 1
EndSplineSet
EndChar

StartChar: uni257F
Encoding: 533 9599 533
Width: 576
VWidth: 0
Flags: W
LayerCount: 2
Back
Fore
SplineSet
192.5 767.5 m 1
 383.5 767.5 l 1
 383.5 288.5 l 1
 288 288.5 l 1
 287.5 288.5 l 1
 287.5 288 l 1
 287.5 -191.5 l 1
 192.5 -191.5 l 1
 192.5 767.5 l 1
EndSplineSet
EndChar

StartChar: block
Encoding: 534 9608 534
Width: 576
VWidth: 0
Flags: W
LayerCount: 2
Back
Fore
SplineSet
0.5 767.5 m 1
 575.5 767.5 l 1
 575.5 -191.5 l 1
 0.5 -191.5 l 1
 0.5 767.5 l 1
EndSplineSet
EndChar

StartChar: ltshade
Encoding: 535 9617 535
Width: 576
VWidth: 0
Flags: W
LayerCount: 2
Back
Fore
SplineSet
0.5 -96.5 m 1
 95.5 -96.5 l 1
 95.5 -191.5 l 1
 0.5 -191.5 l 1
 0.5 -96.5 l 1
288.5 -96.5 m 1
 383.5 -96.5 l 1
 383.5 -191.5 l 1
 288.5 -191.5 l 1
 288.5 -96.5 l 1
287.5 -95.5 m 1
 192.5 -95.5 l 1
 192.5 -0.5 l 1
 287.5 -0.5 l 1
 287.5 -95.5 l 1
191.5 0.5 m 1
 96.5 0.5 l 1
 96.5 95.5 l 1
 191.5 95.5 l 1
 191.5 0.5 l 1
95.5 96.5 m 1
 0.5 96.5 l 1
 0.5 191.5 l 1
 95.5 191.5 l 1
 95.5 96.5 l 1
480.5 -0.5 m 1
 575.5 -0.5 l 1
 575.5 -95.5 l 1
 480.5 -95.5 l 1
 480.5 -0.5 l 1
479.5 0.5 m 1
 384.5 0.5 l 1
 384.5 95.5 l 1
 479.5 95.5 l 1
 479.5 0.5 l 1
383.5 96.5 m 1
 288.5 96.5 l 1
 288.5 191.5 l 1
 383.5 191.5 l 1
 383.5 96.5 l 1
287.5 192.5 m 1
 192.5 192.5 l 1
 192.5 287.5 l 1
 287.5 287.5 l 1
 287.5 192.5 l 1
191.5 288.5 m 1
 96.5 288.5 l 1
 96.5 383.5 l 1
 191.5 383.5 l 1
 191.5 288.5 l 1
95.5 384.5 m 1
 0.5 384.5 l 1
 0.5 479.5 l 1
 95.5 479.5 l 1
 95.5 384.5 l 1
480.5 575.5 m 1
 575.5 575.5 l 1
 575.5 480.5 l 1
 480.5 480.5 l 1
 480.5 575.5 l 1
479.5 576.5 m 1
 384.5 576.5 l 1
 384.5 671.5 l 1
 479.5 671.5 l 1
 479.5 576.5 l 1
383.5 672.5 m 1
 288.5 672.5 l 1
 288.5 767.5 l 1
 383.5 767.5 l 1
 383.5 672.5 l 1
480.5 287.5 m 1
 575.5 287.5 l 1
 575.5 192.5 l 1
 480.5 192.5 l 1
 480.5 287.5 l 1
479.5 288.5 m 1
 384.5 288.5 l 1
 384.5 383.5 l 1
 479.5 383.5 l 1
 479.5 288.5 l 1
383.5 384.5 m 1
 288.5 384.5 l 1
 288.5 479.5 l 1
 383.5 479.5 l 1
 383.5 384.5 l 1
287.5 480.5 m 1
 192.5 480.5 l 1
 192.5 575.5 l 1
 287.5 575.5 l 1
 287.5 480.5 l 1
191.5 576.5 m 1
 96.5 576.5 l 1
 96.5 671.5 l 1
 191.5 671.5 l 1
 191.5 576.5 l 1
95.5 672.5 m 1
 0.5 672.5 l 1
 0.5 767.5 l 1
 95.5 767.5 l 1
 95.5 672.5 l 1
EndSplineSet
EndChar

StartChar: shade
Encoding: 536 9618 536
Width: 576
VWidth: 0
Flags: W
LayerCount: 2
Back
Fore
SplineSet
192.666666667 96.5 m 0
 192.5 191.5 l 1
 287.5 191.5 l 1
 287.5 96.6666666667 l 1024
96.6666666667 192.5 m 0
 96.5 287.5 l 1
 191.5 287.5 l 1
 191.5 192.666666667 l 1024
192.666666667 288.5 m 0
 192.5 383.5 l 1
 287.5 383.5 l 1
 287.5 288.666666667 l 1024
96.6666666667 384.5 m 0
 96.5 479.5 l 1
 191.5 479.5 l 1
 191.5 384.666666667 l 1024
192.666666667 480.5 m 0
 192.5 575.5 l 1
 287.5 575.5 l 1
 287.5 480.666666667 l 1024
96.6666666667 0.5 m 0
 96.5 95.5 l 1
 191.5 95.5 l 1
 191.5 0.666666666665 l 1
 191.5 576.5 l 1
 96.6666666667 576.5 l 1
 96.5 671.5 l 1
 191.333333333 671.5 l 1024
95.5 672.5 m 1
 0.5 672.5 l 1
 0.5 767.5 l 1
 95.5 767.5 l 1
 95.5 672.5 l 1
95.5 575.5 m 1
 95.5 480.5 l 1
 0.5 480.5 l 1
 0.5 575.5 l 1
 95.5 575.5 l 1
95.5 383.5 m 1
 95.5 288.5 l 1
 0.5 288.5 l 1
 0.5 383.5 l 1
 95.5 383.5 l 1
95.5 191.5 m 1
 95.5 96.5 l 1
 0.5 96.5 l 1
 0.5 191.5 l 1
 95.5 191.5 l 1
95.5 -95.5 m 1
 0.5 -95.5 l 1
 0.5 -0.5 l 1
 95.5 -0.5 l 1
 95.5 -95.5 l 1
96.5 -96.5 m 1
 191.5 -96.5 l 1
 191.5 -191.5 l 1
 96.5 -191.5 l 1
 96.5 -96.5 l 1
287.5 -95.5 m 1
 192.5 -95.5 l 1
 192.5 -0.5 l 1
 287.5 -0.5 l 1
 287.5 -95.5 l 1
383.5 -96.5 m 1
 383.5 -191.5 l 1
 288.5 -191.5 l 1
 288.5 -96.5 l 1
 383.5 -96.5 l 1
479.5 -95.5 m 1
 384.5 -95.5 l 1
 384.5 -0.5 l 1
 479.5 -0.5 l 1
 479.5 -95.5 l 1
480.5 -96.5 m 1
 575.5 -96.5 l 1
 575.5 -191.5 l 1
 480.5 -191.5 l 1
 480.5 -96.5 l 1
383.5 95.5 m 1
 383.5 0.5 l 1
 288.5 0.5 l 1
 288.5 95.5 l 1
 383.5 95.5 l 1
479.5 96.5 m 1
 384.5 96.5 l 1
 384.5 191.5 l 1
 479.5 191.5 l 1
 479.5 96.5 l 1
480.5 95.5 m 1
 575.5 95.5 l 1
 575.5 0.5 l 1
 480.5 0.5 l 1
 480.5 95.5 l 1
383.5 287.5 m 1
 383.5 192.5 l 1
 288.5 192.5 l 1
 288.5 287.5 l 1
 383.5 287.5 l 1
479.5 288.5 m 1
 384.5 288.5 l 1
 384.5 383.5 l 1
 479.5 383.5 l 1
 479.5 288.5 l 1
480.5 287.5 m 1
 575.5 287.5 l 1
 575.5 192.5 l 1
 480.5 192.5 l 1
 480.5 287.5 l 1
383.5 479.5 m 1
 383.5 384.5 l 1
 288.5 384.5 l 1
 288.5 479.5 l 1
 383.5 479.5 l 1
479.5 480.5 m 1
 384.5 480.5 l 1
 384.5 575.5 l 1
 479.5 575.5 l 1
 479.5 480.5 l 1
480.5 479.5 m 1
 575.5 479.5 l 1
 575.5 384.5 l 1
 480.5 384.5 l 1
 480.5 479.5 l 1
287.5 672.5 m 1
 192.5 672.5 l 1
 192.5 767.5 l 1
 287.5 767.5 l 1
 287.5 672.5 l 1
383.5 671.5 m 1
 383.5 576.5 l 1
 288.5 576.5 l 1
 288.5 671.5 l 1
 383.5 671.5 l 1
479.5 672.5 m 1
 384.5 672.5 l 1
 384.5 767.5 l 1
 479.5 767.5 l 1
 479.5 672.5 l 1
480.5 671.5 m 1
 575.5 671.5 l 1
 575.5 576.5 l 1
 480.5 576.5 l 1
 480.5 671.5 l 1
EndSplineSet
EndChar

StartChar: filledbox
Encoding: 537 9632 537
Width: 576
VWidth: 0
Flags: W
LayerCount: 2
Back
Fore
SplineSet
0.5 287.5 m 1
 575.5 287.5 l 1
 575.5 -191.5 l 1
 0.5 -191.5 l 1
 0.5 287.5 l 1
EndSplineSet
EndChar

StartChar: uni25B6
Encoding: 538 9654 538
Width: 576
VWidth: 0
Flags: W
LayerCount: 2
Back
Fore
SplineSet
96.5 671.5 m 1
 191.5 671.5 l 1
 191.5 576 l 1
 191.5 575.5 l 1
 192 575.5 l 1
 287.5 575.5 l 1
 287.5 480 l 1
 287.5 479.5 l 1
 288 479.5 l 1
 383.5 479.5 l 1
 383.5 384 l 1
 383.5 383.5 l 1
 384 383.5 l 1
 479.5 383.5 l 1
 479.5 288.5 l 1
 384 288.5 l 1
 383.5 288.5 l 1
 383.5 288 l 1
 383.5 192.5 l 1
 288 192.5 l 1
 287.5 192.5 l 1
 287.5 192 l 1
 287.5 96.5 l 1
 192 96.5 l 1
 191.5 96.5 l 1
 191.5 96 l 1
 191.5 0.5 l 1
 96.5 0.5 l 1
 96.5 671.5 l 1
EndSplineSet
EndChar

StartChar: uni25C0
Encoding: 539 9664 539
Width: 576
VWidth: 0
Flags: W
LayerCount: 2
Back
Fore
SplineSet
384.5 671.5 m 1
 479.5 671.5 l 1
 479.5 0.5 l 1
 384.5 0.5 l 1
 384.5 96 l 1
 384.5 96.5 l 1
 384 96.5 l 1
 288.5 96.5 l 1
 288.5 192 l 1
 288.5 192.5 l 1
 288 192.5 l 1
 192.5 192.5 l 1
 192.5 288 l 1
 192.5 288.5 l 1
 192 288.5 l 1
 96.5 288.5 l 1
 96.5 383.5 l 1
 192 383.5 l 1
 192.5 383.5 l 1
 192.5 384 l 1
 192.5 479.5 l 1
 288 479.5 l 1
 288.5 479.5 l 1
 288.5 480 l 1
 288.5 575.5 l 1
 384 575.5 l 1
 384.5 575.5 l 1
 384.5 576 l 1
 384.5 671.5 l 1
EndSplineSet
EndChar

StartChar: diamond
Encoding: 540 9830 540
Width: 576
VWidth: 0
Flags: W
LayerCount: 2
Back
Fore
SplineSet
96.5 575.5 m 1
 192 575.5 l 1
 192.5 575.5 l 1
 192.5 576 l 1
 192.5 671.5 l 1
 287.5 671.5 l 1
 287.5 576 l 1
 287.5 575.5 l 1
 288 575.5 l 1
 383.5 575.5 l 1
 383.5 480 l 1
 383.5 479.5 l 1
 384 479.5 l 1
 479.5 479.5 l 1
 479.5 192.5 l 1
 384 192.5 l 1
 383.5 192.5 l 1
 383.5 192 l 1
 383.5 96.5 l 1
 288 96.5 l 1
 287.5 96.5 l 1
 287.5 96 l 1
 287.5 0.5 l 1
 192.5 0.5 l 1
 192.5 96 l 1
 192.5 96.5 l 1
 192 96.5 l 1
 96.5 96.5 l 1
 96.5 192 l 1
 96.5 192.5 l 1
 96 192.5 l 1
 0.5 192.5 l 1
 0.5 479.5 l 1
 96 479.5 l 1
 96.5 479.5 l 1
 96.5 480 l 1
 96.5 575.5 l 1
EndSplineSet
EndChar

StartChar: uni2714
Encoding: 541 10004 541
Width: 576
VWidth: 0
Flags: W
LayerCount: 2
Back
Fore
SplineSet
480.5 480.5 m 1
 480.5 575.5 l 1
 575.5 575.5 l 1
 575.5 480.5 l 1
 480.5 480.5 l 1
479.5 479.5 m 1
 479.5 288.5 l 1
 384.5 288.5 l 1
 384.5 479.5 l 1
 479.5 479.5 l 1
383.5 287.5 m 1
 383.5 96.5 l 1
 288.5 96.5 l 1
 288.5 287.5 l 1
 383.5 287.5 l 1
287.5 95.5 m 1
 287.5 0.5 l 1
 192.5 0.5 l 1
 192.5 95.5 l 1
 287.5 95.5 l 1
191.5 96.5 m 1
 96.5 96.5 l 1
 96.5 191.5 l 1
 191.5 191.5 l 1
 191.5 96.5 l 1
EndSplineSet
EndChar

StartChar: uni271A
Encoding: 542 10010 542
Width: 576
VWidth: 0
Flags: W
LayerCount: 2
Back
Fore
SplineSet
0.5 383.5 m 1
 192 383.5 l 1
 192.5 383.5 l 1
 192.5 384 l 1
 192.5 575.5 l 1
 383.5 575.5 l 1
 383.5 384 l 1
 383.5 383.5 l 1
 384 383.5 l 1
 575.5 383.5 l 1
 575.5 192.5 l 1
 384 192.5 l 1
 383.5 192.5 l 1
 383.5 192 l 1
 383.5 0.5 l 1
 192.5 0.5 l 1
 192.5 192 l 1
 192.5 192.5 l 1
 192 192.5 l 1
 0.5 192.5 l 1
 0.5 383.5 l 1
EndSplineSet
EndChar

StartChar: H18533
Encoding: 543 9679 543
Width: 576
VWidth: 0
Flags: W
LayerCount: 2
Back
Fore
SplineSet
96.5 575.5 m 1
 383.5 575.5 l 1
 383.5 480 l 1
 383.5 479.5 l 1
 384 479.5 l 1
 479.5 479.5 l 1
 479.5 192.5 l 1
 384 192.5 l 1
 383.5 192.5 l 1
 383.5 192 l 1
 383.5 96.5 l 1
 96.5 96.5 l 1
 96.5 192 l 1
 96.5 192.5 l 1
 96 192.5 l 1
 0.5 192.5 l 1
 0.5 479.5 l 1
 96 479.5 l 1
 96.5 479.5 l 1
 96.5 480 l 1
 96.5 575.5 l 1
EndSplineSet
EndChar

